<svg width="1253" height="506" viewBox="0 0 1253 506" fill="none" xmlns="http://www.w3.org/2000/svg">
<path opacity="0.3" d="M1145.06 140.231C1145.06 140.231 1145.18 140.045 1145.4 139.675C1146.08 138.564 1146.61 137.49 1146.99 136.451C1147.59 135.042 1147.9 133.706 1147.91 132.441C1147.99 131.475 1147.92 130.545 1147.71 129.651C1147.79 128.684 1147.46 127.975 1146.72 127.524C1146.65 127.226 1146.16 127.185 1145.27 127.402C1144.3 127.32 1143.3 127.722 1142.25 128.607C1141.13 129.194 1139.93 130.115 1138.66 131.37C1137.68 132.553 1136.71 133.736 1135.73 134.919C1134.76 136.102 1134.04 137.064 1133.59 137.804C1133.59 137.804 1133.48 137.989 1133.25 138.36C1132.57 139.47 1131.93 140.73 1131.33 142.139C1130.95 143.177 1130.61 144.365 1130.3 145.702C1130.22 146.668 1130.14 147.634 1130.05 148.601C1130.27 149.495 1130.75 150.168 1131.49 150.619C1131.93 151.143 1132.27 151.22 1132.49 150.85C1133.76 150.859 1134.95 150.57 1136.07 149.983C1137.12 149.098 1138.28 148.028 1139.55 146.773C1140.82 145.518 1141.95 144.299 1142.92 143.116C1143.9 141.933 1144.61 140.971 1145.06 140.231ZM1156.65 127.484C1159.88 122.599 1162.93 117.6 1165.8 112.489C1168.51 106.782 1171.91 100.596 1175.97 93.931C1176.65 92.8203 1178.23 90.2285 1180.71 86.1557C1183.13 81.7848 1185.69 77.3779 1188.4 72.9348C1191.33 68.1215 1194.08 63.8275 1196.64 60.0527C1199.19 56.2779 1200.92 54.2822 1201.81 54.0656C1203.3 53.7045 1205.53 54.4274 1208.49 56.234C1211.68 57.6704 1213.83 58.7274 1214.94 59.4049C1216.12 60.3804 1218.12 62.1056 1220.92 64.5806C1223.96 66.6853 1225.36 68.555 1225.12 70.1896L1225.34 71.0837C1225.03 72.4203 1224.39 73.6801 1223.42 74.8631C1222.67 75.6758 1221.95 76.6376 1221.27 77.7483C1219.47 80.7104 1217.77 83.4873 1216.19 86.0791C1214.61 88.6708 1212.92 91.4478 1211.11 94.4098L1196.27 124.983L1188.47 139.654C1191.9 138.191 1195.79 135.988 1200.12 133.044C1204.38 129.803 1208.65 126.561 1212.91 123.319C1217.1 119.78 1220.99 116.312 1224.59 112.917C1228.41 109.151 1231.59 106.013 1234.14 103.503C1237.21 100.55 1239.12 99.2994 1239.86 99.7511C1240.6 100.203 1242.6 101.296 1245.86 103.03C1245.93 103.328 1245.85 104.295 1245.62 105.929L1242.24 109.587C1239.09 113.506 1234.92 118.459 1229.75 124.446C1224.8 130.063 1219.37 135.639 1213.45 141.174C1207.46 146.412 1201.29 150.904 1194.94 154.651C1188.59 158.398 1182.82 159.956 1177.62 159.323C1176.42 159.611 1174.94 159.34 1173.16 158.509C1171.68 157.606 1170.16 156.554 1168.61 155.352C1166.98 153.853 1165.36 152.353 1163.73 150.854C1162.4 149.282 1161.3 147.973 1160.41 146.925C1157.87 149.435 1154.79 152.388 1151.2 155.783C1147.6 159.179 1143.79 162.312 1139.75 165.183C1135.71 168.055 1131.57 170.479 1127.31 172.457C1122.99 174.136 1118.89 174.813 1115.03 174.487C1112.94 174.993 1110.31 173.895 1107.13 171.194C1103.95 168.493 1101.88 166.47 1100.93 165.124C1099.3 163.625 1097.57 161.678 1095.72 159.285C1093.81 156.593 1092.75 154.168 1092.54 152.01C1092.25 150.817 1093.02 148.108 1094.83 143.882C1096.65 139.655 1098.73 135.208 1101.07 130.539C1103.7 125.798 1106.12 121.427 1108.3 117.426C1110.79 113.353 1112.48 110.576 1113.38 109.095C1114.06 107.985 1115.64 105.393 1118.12 101.32C1120.54 96.9492 1123.25 92.5062 1126.25 87.9909C1129.19 83.1776 1131.94 78.8836 1134.49 75.1088C1137.05 71.334 1138.77 69.3383 1139.67 69.1217C1141.16 68.7606 1143.39 69.4834 1146.35 71.2901C1149.54 72.7265 1151.68 73.7835 1152.8 74.461C1154.28 75.3643 1156.42 77.0534 1159.23 79.5284C1162.26 81.6331 1163.66 83.5027 1163.43 85.1374L1163.64 86.0315C1163.34 87.3681 1162.7 88.6279 1161.72 89.8109C1160.67 90.6958 1159.81 91.6937 1159.13 92.8044C1157.33 95.7665 1155.63 98.5434 1154.05 101.135C1152.47 103.727 1150.93 106.468 1149.42 109.358L1143.64 120.696C1145.21 120.633 1146.99 120.832 1149 121.292C1151 121.753 1152.82 122.733 1154.44 124.233C1155.62 125.208 1156.36 126.292 1156.65 127.484Z" fill="url(#paint0_linear_11019_5)"/>
<path opacity="0.3" d="M1053.57 124.061C1054.17 122.652 1054.7 120.946 1055.17 118.941C1055.85 116.565 1055.46 114.926 1053.97 114.023C1052.79 113.047 1051.31 112.776 1049.52 113.209C1047.66 113.345 1045.72 113.814 1043.71 114.618C1041.69 115.421 1039.75 116.523 1037.88 117.922C1035.94 119.024 1034.56 119.832 1033.73 120.347L1025.75 128.433C1025.3 129.174 1024.02 131.061 1021.92 134.095C1020.04 136.759 1018.01 140.092 1015.82 144.092C1013.56 147.795 1011.38 151.795 1009.26 156.094C1007.38 160.022 1006.05 163.657 1005.28 166.999C1004.51 170.34 1004.64 172.833 1005.67 174.477C1007 176.048 1009.75 176.329 1013.92 175.318L1015.71 174.885C1019.3 172.754 1023.22 169.435 1027.5 164.929C1031.7 160.125 1035.11 155.985 1037.74 152.508C1040.82 148.291 1043.83 143.775 1046.76 138.962C1049.63 133.851 1051.9 128.884 1053.57 124.061ZM1072.46 41.8604C1065.71 50.4393 1059.32 59.244 1053.3 68.2746C1043.83 82.5609 1034.8 96.7389 1026.22 110.809C1028.99 107.928 1032.1 105.124 1035.54 102.397C1039.28 99.5979 1043.01 97.4309 1046.74 95.8961C1048.16 95.237 1049.47 94.763 1050.66 94.4741C1054.7 91.6027 1058.15 87.6113 1061.01 82.4999C1064.55 76.2778 1067.28 69.306 1069.19 61.5844C1071.11 53.8629 1072.2 47.2882 1072.46 41.8604ZM1071.44 106.005L1080.39 117.562C1082.45 120.85 1083.46 124.39 1083.44 128.183C1083.71 131.904 1083.23 135.806 1082.01 139.888C1080.72 143.672 1079.13 147.528 1077.24 151.456C1075.28 155.087 1073.36 158.234 1071.48 160.898C1076.57 157.141 1081.47 153.272 1086.18 149.29C1090.83 145.01 1095.28 140.617 1099.56 136.111C1102.33 133.23 1104.09 132.015 1104.83 132.467C1105.87 132.847 1108.02 133.903 1111.28 135.638C1111.35 135.936 1111.27 136.902 1111.03 138.537L1107.66 142.194C1104.21 146.186 1100.12 150.805 1095.4 156.051C1090.97 161.226 1086.06 166.359 1080.67 171.452C1075.5 176.175 1070.08 180.487 1064.4 184.387C1058.94 187.918 1053.83 190.261 1049.06 191.416C1047.27 191.85 1044.59 192.499 1041.01 193.366C1037.73 194.16 1034.16 195.027 1030.28 195.966C1026.63 196.534 1023.13 197.066 1019.78 197.563C1016.73 197.987 1014.54 198.045 1013.2 197.738L989.93 175.924C983.525 187.258 977.418 198.519 971.61 209.708C971.456 210.376 970.824 210.372 969.713 209.694C968.078 209.459 966.299 208.628 964.376 207.201C962.452 205.774 960.642 204.161 958.944 202.364C956.876 200.341 955.291 198.358 954.19 196.416C952.718 194.248 951.951 192.383 951.888 190.821C951.599 189.629 954.092 184.292 959.368 174.809C964.643 165.327 971.31 153.772 979.368 140.145C987.425 126.518 996.197 111.929 1005.68 96.3783C1015.46 80.7554 1024.46 66.4284 1032.66 53.3973C1041.09 39.9959 1048.2 28.965 1053.99 20.3047C1060 11.2742 1063.31 6.6867 1063.9 6.54228C1064.8 6.32564 1066.43 7.19286 1068.79 9.14395C1071.46 11.0228 1074.05 13.2358 1076.56 15.783C1077.44 16.8308 1078.36 18.0275 1079.32 19.3733C1085.63 20.6837 1092.43 26.6092 1099.72 37.1497C1100.02 46.2262 1099.22 55.2574 1097.29 64.2434C1095.66 73.1571 1092.74 81.2804 1088.52 88.6133C1084.53 95.5759 1078.98 101.337 1071.88 105.897L1071.44 106.005Z" fill="url(#paint1_linear_11019_5)"/>
<path opacity="0.3" d="M948.188 186.511C951.394 185.419 954.379 184.064 957.143 182.448C959.907 180.832 962.45 178.954 964.771 176.813C966.794 174.746 968.705 172.863 970.502 171.165C972.598 169.395 974.544 167.661 976.341 165.964C979.114 163.083 980.871 161.869 981.612 162.32C982.352 162.772 984.353 163.865 987.613 165.6C988.353 166.051 988.272 167.018 987.368 168.499L983.995 172.156C981.366 175.633 978.476 179.33 975.323 183.25C972.397 186.799 969.1 190.122 965.433 193.219C961.991 195.946 958.107 198.149 953.781 199.828C949.455 201.508 944.804 201.846 939.828 200.843C937.723 203.877 935.094 207.354 931.942 211.273C929.088 215.12 925.791 218.443 922.051 221.242C918.538 223.671 914.623 225.093 910.306 225.508C906.287 225.85 902.245 224.147 898.182 220.399L883.661 207.351C880.04 204.127 878.099 200.022 877.837 195.036C877.802 189.681 878.548 184.294 880.075 178.875C881.602 173.456 883.648 168.228 886.214 163.188C888.779 158.149 891.114 154.113 893.219 151.078C896.155 146.265 899.312 141.714 902.69 137.424C905.996 132.837 909.745 128.773 913.936 125.233C916.853 122.949 920.105 120.741 923.69 118.61C927.204 116.181 930.744 115.166 934.312 115.563L934.759 115.455L963.07 134.628C964.623 135.829 965.047 138.882 964.342 143.786C963.564 148.392 962.15 153.625 960.099 159.486C958.274 164.977 956.115 170.391 953.622 175.728C951.427 180.993 949.615 184.587 948.188 186.511ZM934.465 186.523C935.142 185.412 936.312 183.077 937.975 179.519C939.637 175.961 941.227 172.105 942.745 167.951C944.19 163.499 945.487 159.082 946.634 154.702C948.08 150.25 948.776 146.611 948.722 143.784C948.596 140.659 947.643 138.681 945.864 137.85C944.013 136.721 940.997 137.294 936.815 139.569C936.056 141.646 934.841 145.096 933.169 149.918C931.724 154.371 930.499 159.085 929.496 164.061C928.719 168.667 928.538 173.128 928.953 177.445C929.367 181.762 931.205 184.788 934.465 186.523ZM928.259 196.072C923.599 192.468 920.62 187.984 919.32 182.619C918.02 177.254 917.502 171.858 917.764 166.43C915.795 171.325 914.01 176.333 912.411 181.453C910.74 186.276 909.402 191.175 908.399 196.151C908.092 197.488 907.744 199.308 907.355 201.61C907.265 203.841 908.109 205.372 909.888 206.203C912.037 207.26 914.643 206.944 917.705 205.256C920.695 203.269 922.826 201.649 924.1 200.393C924.849 199.581 925.635 198.917 926.457 198.402C927.207 197.59 927.808 196.813 928.259 196.072Z" fill="url(#paint2_linear_11019_5)"/>
<path opacity="0.3" d="M820.713 186.632L851.742 138.882C851.895 138.214 852.64 138.034 853.977 138.341C855.612 138.576 857.318 139.109 859.097 139.94C861.102 140.401 862.845 141.083 864.326 141.986C865.735 142.592 866.774 142.971 867.442 143.125C868.182 143.576 869.329 144.403 870.883 145.604C872.734 146.733 874.323 148.084 875.651 149.655C877.204 150.857 878.197 152.352 878.63 154.14C879.289 155.558 878.833 156.931 877.262 158.258C874.344 160.543 871.499 163.125 868.726 166.006C866.251 168.814 863.74 171.474 861.193 173.984C857.814 178.273 854.287 182.599 850.611 186.961C846.862 191.024 842.965 195.124 838.918 199.26C836.145 202.14 833.521 204.985 831.046 207.793C828.499 210.304 825.839 212.999 823.066 215.88C823.942 218.192 824.966 220.468 826.14 222.708C827.314 224.948 829.274 226.524 832.019 227.437C835.361 228.205 839.199 227.117 843.534 224.173C848.168 221.157 852.657 217.545 857.002 213.337C861.572 208.759 865.844 204.253 869.819 199.819C873.793 195.385 876.905 191.949 879.154 189.511C881.629 186.703 883.273 185.673 884.086 186.423C885.124 186.803 887.088 187.747 889.978 189.255C890.05 189.553 889.969 190.52 889.734 192.154C889.282 192.895 888.307 194.078 886.807 195.703C880.502 203.542 872.928 212.003 864.086 221.087C855.243 230.172 846.341 237.061 837.382 241.756C829.768 245.494 822.199 248.117 814.676 249.624C807.378 250.761 800.745 247.478 794.777 239.773C792.455 241.913 790.098 243.904 787.704 245.746C785.311 247.588 782.804 249.616 780.185 251.828C778.315 253.228 776.297 254.663 774.129 256.135C772.259 257.535 770.313 259.268 768.289 261.336C767.766 261.779 766.867 262.628 765.593 263.883C764.546 264.768 763.349 265.689 762.003 266.646C760.359 267.675 758.977 268.483 757.857 269.07C756.367 269.431 755.216 269.237 754.403 268.487C752.85 267.286 752.529 265.313 753.442 262.567C754.354 259.822 755.298 257.858 756.274 256.675L788.914 217.528L785.584 199.876C784.752 201.655 783.623 203.506 782.196 205.43C780.769 207.353 779.491 209.241 778.361 211.092C777.088 212.347 775.814 213.602 774.541 214.857C773.565 216.04 772.441 217.259 771.167 218.515C770.715 219.255 770.115 220.032 769.365 220.845C768.615 221.657 768.015 222.434 767.563 223.174C765.756 226.136 763.204 229.279 759.908 232.602C756.837 235.555 753.404 237.018 749.611 236.99C747.525 237.495 745.854 237.111 744.599 235.838C743.344 234.564 742.906 233.408 743.285 232.37L743.733 232.261C746.957 228.64 750.936 223.574 755.669 217.063C760.629 210.182 765.366 203.039 769.883 195.634C774.328 187.93 778.361 180.485 781.984 173.296C785.606 166.108 787.955 160.174 789.03 155.496C788.886 154.9 789.112 154.53 789.708 154.386C790.602 154.169 792.458 154.666 795.275 155.876C798.021 156.789 800.875 158.149 803.837 159.955C806.726 161.464 809.503 163.158 812.167 165.036C814.759 166.617 816.312 167.819 816.827 168.641C817.269 169.164 817.373 170.244 817.138 171.878L820.713 186.632Z" fill="url(#paint3_linear_11019_5)"/>
<path opacity="0.3" d="M690.602 254.6L682.269 265.138C679.496 268.019 676.312 271.157 672.718 274.552C669.123 277.948 665.198 280.634 660.944 282.611C656.988 284.516 652.928 285.342 648.765 285.089C644.827 284.465 641.202 281.872 637.888 277.311L625.738 260.376C623.382 257.16 622.032 253.543 621.689 249.524C621.645 245.433 622.232 241.346 623.452 237.264C624.672 233.182 626.262 229.326 628.222 225.696C630.408 221.695 632.554 218.178 634.658 215.144C636.763 212.109 639.206 208.52 641.989 204.375C645.069 200.157 648.37 196.202 651.893 192.509C655.416 188.815 659.083 185.718 662.894 183.217C666.932 180.346 671.109 178.702 675.426 178.288C681.902 177.665 688.395 179.721 694.906 184.454C701.417 189.187 707.074 193.654 711.878 197.854C712.556 196.743 713.911 194.522 715.943 191.19C717.904 187.559 720.013 183.893 722.271 180.19C724.828 176.416 727.158 173.011 729.263 169.977C731.666 166.87 733.165 165.245 733.761 165.1C735.251 164.739 737.478 165.462 740.44 167.269C743.627 168.705 745.777 169.762 746.888 170.44C747.998 171.117 750.071 172.508 753.105 174.613C756.139 176.718 757.539 178.587 757.304 180.222C757.448 180.818 757.408 181.301 757.182 181.672C756.802 182.71 756.161 183.97 755.258 185.451C754.58 186.562 753.903 187.672 753.225 188.783C748.944 194.554 745.705 200.071 743.51 205.336L727.114 235.341L719.864 250.35C723.296 248.887 727.18 246.684 731.516 243.741C735.779 240.499 740.006 237.108 744.197 233.568C748.388 230.029 752.43 226.525 756.323 223.058C760.216 219.59 763.585 216.565 766.43 213.982C769.131 210.804 770.888 209.589 771.7 210.339C772.441 210.791 774.626 211.997 778.257 213.957C778.699 214.481 778.582 215.298 777.904 216.409C776.775 218.26 775.65 219.479 774.53 220.066C771.378 223.985 767.214 228.938 762.038 234.925C756.79 240.614 751.059 246.263 744.845 251.87C738.856 257.108 732.687 261.6 726.338 265.347C719.988 269.094 714.213 270.652 709.011 270.019C707.818 270.308 706.297 269.887 704.445 268.758C702.892 267.557 701.154 266.243 699.23 264.815C697.533 263.018 695.835 261.22 694.137 259.423C692.666 257.255 691.487 255.648 690.602 254.6ZM651.668 254.093C649.699 258.988 649.229 262.258 650.258 263.901C651.585 265.473 653.477 266.119 655.934 265.839C658.391 265.56 661.15 264.576 664.212 262.887C667.273 261.199 669.703 259.506 671.501 257.808L679.589 250.169C680.565 248.986 682.895 245.581 686.581 239.955C690.492 233.959 693.771 227.958 696.418 221.952C699.291 215.577 700.705 210.343 700.661 206.252C700.842 201.79 697.839 200.467 691.652 202.281C690.984 202.128 690.537 202.236 690.311 202.606C690.311 202.606 690.013 202.679 689.417 202.823C686.427 204.81 682.683 208.241 678.185 213.117C673.985 217.921 670.534 221.913 667.834 225.091C664.753 229.309 661.781 233.973 658.918 239.084C656.352 244.124 653.936 249.127 651.668 254.093Z" fill="url(#paint4_linear_11019_5)"/>
<path opacity="0.3" d="M144.004 411.171C166.333 388.722 188.435 366.644 210.312 344.935C232.189 323.227 254.215 301.482 276.389 279.702C278.187 278.004 282.27 274.017 288.638 267.741C294.933 261.167 302.801 253.266 312.239 244.037C321.977 234.736 332.576 224.437 344.038 213.141C355.726 201.474 367.415 189.807 379.103 178.14C391.089 166.401 402.7 155.068 413.936 144.141C425.173 133.215 435.285 123.508 444.272 115.019C453.187 106.233 460.341 99.2933 465.733 94.2003C471.351 88.7371 474.31 85.9694 474.608 85.8972C475.502 85.6805 476.874 86.1368 478.726 87.266C480.803 88.0249 482.952 89.0818 485.174 90.4368C487.395 91.7918 489.468 93.1829 491.391 94.6101C493.54 95.667 494.985 96.4214 495.726 96.873C496.168 97.3969 497.387 98.5215 499.383 100.247C501.605 101.602 503.749 103.291 505.817 105.314C508.111 106.967 510.107 108.692 511.804 110.49C513.43 111.989 513.868 113.145 513.118 113.958C503.742 124.749 494.623 135.951 485.762 147.565C476.829 158.88 468.116 170.457 459.625 182.296C449.635 195.76 439.866 209.486 430.318 223.475C421.068 237.391 411.818 251.307 402.568 265.223C391.512 282.101 380.604 298.943 369.845 315.749C359.385 332.483 348.812 349.401 338.125 366.505C359.487 343.975 380.922 321.743 402.428 299.808C424.233 277.802 446.299 255.574 468.628 233.125C488.337 212.889 508.046 192.652 527.755 172.415C547.762 152.106 567.805 131.947 587.884 111.936C595.228 104.477 602.458 97.2032 609.576 90.1145C616.919 82.6556 624.263 75.1967 631.606 67.7378C635.653 63.6019 639.735 59.6151 643.854 55.7773C647.973 51.9396 652.205 47.9167 656.549 43.7086C656.775 43.3384 657.001 42.9681 657.227 42.5979C657.678 41.8574 658.053 41.451 658.351 41.3788L659.693 41.0538C660.587 40.8372 661.661 41.3657 662.917 42.6393C665.806 44.1479 668.547 45.6926 671.139 47.2734C674.029 48.782 676.806 50.4758 679.47 52.3547C679.912 52.8785 681.131 54.0031 683.127 55.7283C685.348 57.0833 687.493 58.7725 689.561 60.7958C691.855 62.4488 693.851 64.174 695.548 65.9715C697.174 67.4709 697.612 68.627 696.862 69.4397C683.439 84.3668 670.938 100.491 659.357 117.811C654.245 125.361 649.466 132.987 645.022 140.69C640.505 148.095 636.061 155.798 631.688 163.8C626.937 172.839 622.185 181.879 617.433 190.919C612.98 199.886 608.377 208.89 603.625 217.93C598.043 228.748 592.275 239.454 586.322 250.047C580.369 260.64 574.23 271.12 567.907 281.488L545.955 323.724C545.73 324.094 545.061 323.941 543.951 323.263C542.316 323.028 540.352 322.084 538.058 320.431C535.692 318.48 533.403 316.195 531.191 313.576C528.978 310.956 526.951 308.45 525.109 306.056C523.493 303.292 522.653 301.129 522.59 299.567C522.373 298.673 524.04 294.482 527.591 286.996C531.367 279.139 536.01 269.652 541.521 258.535C547.329 247.346 553.702 235.232 560.64 222.191C567.506 208.853 574.069 196.219 580.329 184.289C586.589 172.36 592.095 161.875 596.847 152.835C601.824 143.425 605.18 137.09 606.915 133.83C587.829 150.129 568.929 166.541 550.214 183.066C531.797 199.519 513.38 215.972 494.963 232.424C462.69 262.016 431.343 292.172 400.921 322.892C370.5 353.613 340.408 385.043 310.645 417.181C310.347 417.253 309.828 417.064 309.087 416.612C307.453 416.377 305.489 415.433 303.195 413.78C300.829 411.829 298.427 409.729 295.989 407.48C293.776 404.86 291.898 402.318 290.354 399.852C288.738 397.088 287.749 394.961 287.388 393.471C287.172 392.577 289.737 387.538 295.085 378.353C300.36 368.871 306.914 357.502 314.746 344.245C322.804 330.617 331.688 315.843 341.399 299.922C351.037 283.703 360.26 268.374 369.068 253.934C378.101 239.124 386.005 226.165 392.78 215.057C399.853 203.877 404.632 196.251 407.116 192.178C388.699 208.631 370.652 225.309 352.976 242.214C335.227 258.82 317.365 275.611 299.391 292.588C270.631 319.75 242.242 347.139 214.223 374.753C186.43 401.997 158.411 429.611 130.167 457.595L88.0026 502.363L87.5556 502.471L80.6743 497.512C78.6064 495.488 76.0238 492.643 72.9266 488.976C70.8587 486.953 69.4229 484.934 68.6194 482.92L144.004 411.171Z" fill="url(#paint5_linear_11019_5)"/>
<defs>
<linearGradient id="paint0_linear_11019_5" x1="35.6515" y1="350.088" x2="1218.43" y2="63.5178" gradientUnits="userSpaceOnUse">
<stop offset="0.381119" stop-color="#BF1D17"/>
<stop offset="1" stop-color="#590E0B" stop-opacity="0.2"/>
</linearGradient>
<linearGradient id="paint1_linear_11019_5" x1="35.6514" y1="350.088" x2="1218.43" y2="63.5178" gradientUnits="userSpaceOnUse">
<stop offset="0.381119" stop-color="#BF1D17"/>
<stop offset="1" stop-color="#590E0B" stop-opacity="0.2"/>
</linearGradient>
<linearGradient id="paint2_linear_11019_5" x1="35.6513" y1="350.088" x2="1218.43" y2="63.5178" gradientUnits="userSpaceOnUse">
<stop offset="0.381119" stop-color="#BF1D17"/>
<stop offset="1" stop-color="#590E0B" stop-opacity="0.2"/>
</linearGradient>
<linearGradient id="paint3_linear_11019_5" x1="35.6516" y1="350.088" x2="1218.43" y2="63.5181" gradientUnits="userSpaceOnUse">
<stop offset="0.381119" stop-color="#BF1D17"/>
<stop offset="1" stop-color="#590E0B" stop-opacity="0.2"/>
</linearGradient>
<linearGradient id="paint4_linear_11019_5" x1="35.6513" y1="350.088" x2="1218.43" y2="63.5178" gradientUnits="userSpaceOnUse">
<stop offset="0.381119" stop-color="#BF1D17"/>
<stop offset="1" stop-color="#590E0B" stop-opacity="0.2"/>
</linearGradient>
<linearGradient id="paint5_linear_11019_5" x1="35.6514" y1="350.088" x2="1218.43" y2="63.5181" gradientUnits="userSpaceOnUse">
<stop offset="0.381119" stop-color="#BF1D17"/>
<stop offset="1" stop-color="#590E0B" stop-opacity="0.2"/>
</linearGradient>
</defs>
</svg>
