<svg width="1380" height="770" viewBox="0 0 1380 770" fill="none" xmlns="http://www.w3.org/2000/svg">
<path d="M1443.42 283.916C1448.3 282.253 1452.84 280.193 1457.04 277.733C1461.25 275.274 1465.12 272.415 1468.65 269.159C1471.73 266.012 1474.64 263.147 1477.37 260.563C1480.56 257.87 1483.52 255.232 1486.26 252.648C1490.48 248.265 1493.15 246.417 1494.28 247.104C1495.41 247.791 1498.45 249.455 1503.41 252.094C1504.54 252.781 1504.41 254.252 1503.04 256.506L1497.91 262.071C1493.91 267.362 1489.51 272.989 1484.71 278.953C1480.26 284.353 1475.24 289.41 1469.66 294.124C1464.42 298.273 1458.51 301.626 1451.93 304.181C1445.35 306.737 1438.27 307.251 1430.7 305.725C1427.49 310.342 1423.49 315.633 1418.7 321.597C1414.35 327.451 1409.33 332.508 1403.64 336.767C1398.3 340.464 1392.34 342.627 1385.77 343.259C1379.65 343.78 1373.5 341.189 1367.32 335.484L1345.22 315.629C1339.71 310.722 1336.76 304.475 1336.36 296.889C1336.31 288.739 1337.44 280.542 1339.77 272.296C1342.09 264.05 1345.2 256.093 1349.11 248.425C1353.01 240.757 1356.57 234.614 1359.77 229.997C1364.24 222.672 1369.04 215.746 1374.18 209.218C1379.21 202.238 1384.92 196.054 1391.29 190.667C1395.73 187.191 1400.68 183.831 1406.14 180.588C1411.49 176.892 1416.87 175.347 1422.3 175.952L1422.98 175.787L1466.06 204.963C1468.43 206.791 1469.07 211.437 1468 218.899C1466.82 225.908 1464.66 233.872 1461.54 242.791C1458.77 251.147 1455.48 259.385 1451.69 267.507C1448.35 275.519 1445.59 280.989 1443.42 283.916ZM1422.53 283.934C1423.57 282.243 1425.35 278.691 1427.88 273.276C1430.4 267.862 1432.82 261.994 1435.13 255.672C1437.33 248.897 1439.31 242.177 1441.05 235.511C1443.25 228.736 1444.31 223.198 1444.23 218.896C1444.04 214.141 1442.59 211.131 1439.88 209.866C1437.06 208.148 1432.47 209.02 1426.11 212.482C1424.96 215.643 1423.11 220.893 1420.56 228.232C1418.36 235.007 1416.5 242.181 1414.97 249.753C1413.79 256.762 1413.51 263.551 1414.15 270.12C1414.78 276.69 1417.57 281.294 1422.53 283.934ZM1413.09 298.466C1406 292.981 1401.47 286.157 1399.49 277.993C1397.51 269.83 1396.72 261.618 1397.12 253.358C1394.12 260.807 1391.41 268.427 1388.97 276.219C1386.43 283.558 1384.4 291.013 1382.87 298.586C1382.4 300.62 1381.87 303.389 1381.28 306.893C1381.14 310.288 1382.43 312.618 1385.14 313.882C1388.41 315.491 1392.37 315.01 1397.03 312.441C1401.58 309.418 1404.82 306.951 1406.76 305.041C1407.9 303.805 1409.1 302.795 1410.35 302.011C1411.49 300.775 1412.4 299.593 1413.09 298.466Z" fill="url(#paint0_linear_11016_39)"/>
<path d="M1249.43 284.099L1296.65 211.437C1296.88 210.42 1298.02 210.146 1300.05 210.613C1302.54 210.971 1305.14 211.782 1307.84 213.047C1310.9 213.748 1313.55 214.786 1315.8 216.161C1317.95 217.082 1319.53 217.659 1320.54 217.893C1321.67 218.58 1323.42 219.838 1325.78 221.666C1328.6 223.384 1331.01 225.439 1333.03 227.831C1335.4 229.659 1336.91 231.934 1337.57 234.655C1338.57 236.813 1337.88 238.902 1335.49 240.922C1331.05 244.398 1326.72 248.328 1322.5 252.712C1318.73 256.986 1314.91 261.032 1311.03 264.853C1305.89 271.38 1300.52 277.962 1294.93 284.6C1289.23 290.783 1283.29 297.022 1277.14 303.316C1272.92 307.699 1268.92 312.028 1265.16 316.302C1261.28 320.122 1257.23 324.224 1253.01 328.607C1254.35 332.126 1255.91 335.589 1257.69 338.998C1259.48 342.406 1262.46 344.805 1266.64 346.194C1271.72 347.362 1277.56 345.707 1284.16 341.228C1291.21 336.638 1298.04 331.142 1304.66 324.738C1311.61 317.771 1318.11 310.914 1324.16 304.167C1330.21 297.42 1334.94 292.191 1338.37 288.481C1342.13 284.207 1344.63 282.641 1345.87 283.782C1347.45 284.359 1350.44 285.796 1354.84 288.091C1354.95 288.545 1354.82 290.016 1354.47 292.503C1353.78 293.63 1352.29 295.43 1350.01 297.904C1340.42 309.832 1328.89 322.708 1315.44 336.532C1301.98 350.356 1288.43 360.84 1274.8 367.985C1263.21 373.673 1251.7 377.664 1240.25 379.957C1229.14 381.688 1219.05 376.691 1209.97 364.966C1206.43 368.223 1202.85 371.253 1199.2 374.056C1195.56 376.859 1191.75 379.944 1187.76 383.311C1184.92 385.441 1181.84 387.625 1178.54 389.865C1175.7 391.995 1172.74 394.633 1169.66 397.78C1168.86 398.454 1167.49 399.745 1165.56 401.655C1163.96 403.002 1162.14 404.403 1160.09 405.86C1157.59 407.426 1155.49 408.656 1153.78 409.549C1151.52 410.099 1149.76 409.803 1148.53 408.662C1146.16 406.834 1145.68 403.831 1147.06 399.653C1148.45 395.475 1149.89 392.486 1151.37 390.686L1201.04 331.115L1195.98 304.253C1194.71 306.961 1192.99 309.778 1190.82 312.705C1188.65 315.632 1186.7 318.504 1184.99 321.321C1183.05 323.231 1181.11 325.141 1179.17 327.051C1177.69 328.852 1175.98 330.707 1174.04 332.617C1173.35 333.744 1172.44 334.925 1171.3 336.162C1170.15 337.399 1169.24 338.581 1168.55 339.708C1165.8 344.215 1161.92 348.997 1156.9 354.054C1152.23 358.548 1147.01 360.773 1141.24 360.731C1138.06 361.5 1135.52 360.916 1133.61 358.978C1131.7 357.04 1131.03 355.281 1131.61 353.7L1132.29 353.535C1137.2 348.025 1143.25 340.316 1150.45 330.408C1158 319.936 1165.21 309.066 1172.08 297.798C1178.85 286.076 1184.98 274.745 1190.5 263.806C1196.01 252.867 1199.58 243.838 1201.22 236.719C1201 235.812 1201.34 235.249 1202.25 235.029C1203.61 234.699 1206.44 235.456 1210.72 237.298C1214.9 238.686 1219.24 240.755 1223.75 243.505C1228.15 245.8 1232.38 248.378 1236.43 251.237C1240.37 253.643 1242.74 255.471 1243.52 256.721C1244.19 257.519 1244.35 259.161 1243.99 261.648L1249.43 284.099Z" fill="url(#paint1_linear_11016_39)"/>
<path d="M1051.44 387.53L1038.76 403.566C1034.54 407.95 1029.69 412.725 1024.22 417.892C1018.75 423.059 1012.78 427.147 1006.31 430.156C1000.29 433.055 994.11 434.311 987.774 433.926C981.782 432.977 976.265 429.031 971.222 422.09L952.734 396.319C949.147 391.426 947.093 385.922 946.572 379.806C946.504 373.58 947.398 367.361 949.254 361.15C951.111 354.938 953.53 349.07 956.513 343.545C959.84 337.457 963.105 332.105 966.307 327.488C969.51 322.87 973.228 317.408 977.462 311.1C982.15 304.683 987.174 298.664 992.534 293.043C997.895 287.423 1003.48 282.71 1009.28 278.904C1015.42 274.534 1021.78 272.034 1028.35 271.402C1038.2 270.455 1048.08 273.583 1057.99 280.786C1067.9 287.989 1076.51 294.786 1083.82 301.178C1084.85 299.487 1086.91 296.107 1090 291.036C1092.99 285.511 1096.2 279.932 1099.63 274.298C1103.52 268.554 1107.07 263.373 1110.27 258.755C1113.93 254.028 1116.21 251.555 1117.12 251.335C1119.38 250.785 1122.77 251.885 1127.28 254.635C1132.13 256.82 1135.4 258.429 1137.09 259.46C1138.78 260.491 1141.94 262.608 1146.55 265.811C1151.17 269.013 1153.3 271.858 1152.94 274.346C1153.16 275.253 1153.1 275.988 1152.76 276.552C1152.18 278.132 1151.2 280.049 1149.83 282.303C1148.8 283.993 1147.77 285.684 1146.74 287.374C1140.22 296.155 1135.29 304.551 1131.95 312.563L1107 358.222L1095.97 381.062C1101.19 378.837 1107.1 375.484 1113.7 371.005C1120.19 366.072 1126.62 360.912 1133 355.525C1139.37 350.139 1145.53 344.807 1151.45 339.53C1157.37 334.254 1162.5 329.65 1166.83 325.72C1170.94 320.883 1173.61 319.035 1174.85 320.176C1175.98 320.863 1179.3 322.698 1184.83 325.682C1185.5 326.479 1185.32 327.722 1184.29 329.413C1182.57 332.23 1180.86 334.085 1179.16 334.978C1174.36 340.942 1168.02 348.479 1160.15 357.59C1152.16 366.248 1143.44 374.843 1133.98 383.376C1124.87 391.346 1115.48 398.182 1105.82 403.884C1096.16 409.587 1087.37 411.956 1079.45 410.993C1077.64 411.433 1075.32 410.793 1072.51 409.075C1070.14 407.247 1067.5 405.247 1064.57 403.075C1061.99 400.34 1059.4 397.605 1056.82 394.869C1054.58 391.571 1052.79 389.124 1051.44 387.53ZM992.192 386.759C989.195 394.208 988.48 399.183 990.046 401.684C992.066 404.076 994.945 405.059 998.683 404.633C1002.42 404.208 1006.62 402.71 1011.28 400.141C1015.94 397.571 1019.64 394.995 1022.37 392.412L1034.68 380.786C1036.16 378.986 1039.71 373.805 1045.32 365.244C1051.27 356.119 1056.26 346.987 1060.29 337.849C1064.66 328.146 1066.81 320.182 1066.75 313.957C1067.02 307.167 1062.45 305.153 1053.04 307.915C1052.02 307.681 1051.34 307.846 1051 308.409C1051 308.409 1050.54 308.519 1049.64 308.739C1045.09 311.762 1039.39 316.983 1032.54 324.404C1026.15 331.715 1020.9 337.788 1016.79 342.626C1012.1 349.043 1007.58 356.141 1003.22 363.919C999.32 371.587 995.643 379.201 992.192 386.759Z" fill="url(#paint2_linear_11016_39)"/>
<path d="M219.66 625.791C253.638 591.629 287.272 558.031 320.563 524.997C353.854 491.962 387.371 458.872 421.115 425.728C423.851 423.145 430.063 417.078 439.754 407.527C449.334 397.523 461.306 385.5 475.67 371.456C490.487 357.302 506.617 341.63 524.059 324.439C541.846 306.685 559.632 288.931 577.418 271.177C595.658 253.313 613.327 236.068 630.426 219.44C647.525 202.813 662.913 188.041 676.589 175.124C690.155 161.754 701.041 151.194 709.247 143.443C717.797 135.13 722.298 130.918 722.752 130.808C724.112 130.478 726.201 131.173 729.018 132.891C732.179 134.046 735.45 135.654 738.83 137.716C742.211 139.778 745.365 141.895 748.292 144.067C751.563 145.675 753.761 146.823 754.888 147.51C755.562 148.308 757.417 150.019 760.454 152.644C763.834 154.706 767.098 157.277 770.245 160.356C773.735 162.871 776.772 165.497 779.356 168.232C781.829 170.513 782.495 172.273 781.355 173.51C767.087 189.931 753.211 206.978 739.726 224.65C726.132 241.868 712.874 259.486 699.953 277.501C684.75 297.991 669.884 318.879 655.354 340.165C641.278 361.342 627.202 382.518 613.126 403.695C596.301 429.379 579.703 455.008 563.331 480.583C547.413 506.047 531.323 531.793 515.061 557.821C547.569 523.535 580.186 489.703 612.913 456.325C646.094 422.837 679.674 389.012 713.652 354.851C743.644 324.056 773.636 293.261 803.628 262.466C834.073 231.561 864.574 200.883 895.129 170.432C906.304 159.082 917.307 148.013 928.138 137.226C939.313 125.875 950.488 114.525 961.663 103.174C967.82 96.8805 974.033 90.8137 980.301 84.9736C986.569 79.1335 993.008 73.0116 999.62 66.6081C999.963 66.0447 1000.31 65.4813 1000.65 64.9179C1001.34 63.791 1001.91 63.1726 1002.36 63.0627L1004.4 62.5682C1005.76 62.2385 1007.4 63.0428 1009.31 64.9808C1013.71 67.2765 1017.88 69.6272 1021.82 72.0328C1026.22 74.3285 1030.44 76.906 1034.5 79.7651C1035.17 80.5623 1037.03 82.2736 1040.06 84.899C1043.44 86.9609 1046.71 89.5314 1049.86 92.6103C1053.35 95.1258 1056.38 97.7511 1058.97 100.486C1061.44 102.768 1062.11 104.527 1060.96 105.764C1040.54 128.479 1021.52 153.015 1003.89 179.373C996.112 190.861 988.841 202.466 982.077 214.189C975.204 225.457 968.441 237.179 961.788 249.355C954.557 263.111 947.326 276.867 940.095 290.624C933.318 304.27 926.314 317.971 919.083 331.727C910.588 348.191 901.81 364.482 892.751 380.602C883.692 396.722 874.352 412.67 864.729 428.446L831.325 492.719C830.981 493.282 829.964 493.048 828.274 492.017C825.786 491.66 822.797 490.223 819.307 487.708C815.706 484.739 812.223 481.261 808.856 477.275C805.49 473.289 802.405 469.475 799.602 465.833C797.142 461.627 795.864 458.335 795.768 455.958C795.439 454.597 797.975 448.22 803.378 436.828C809.124 424.872 816.19 410.435 824.576 393.519C833.415 376.492 843.113 358.056 853.671 338.212C864.118 317.915 874.106 298.689 883.632 280.535C893.159 262.382 901.537 246.427 908.768 232.671C916.342 218.351 921.449 208.711 924.089 203.75C895.046 228.553 866.285 253.527 837.805 278.674C809.779 303.711 781.753 328.747 753.727 353.784C704.616 398.815 656.914 444.704 610.62 491.453C564.327 538.202 518.535 586.029 473.244 634.936C472.79 635.046 472 634.757 470.873 634.07C468.386 633.712 465.397 632.276 461.906 629.76C458.306 626.791 454.651 623.595 450.94 620.173C447.574 616.187 444.716 612.317 442.366 608.565C439.907 604.359 438.402 601.123 437.853 598.855C437.523 597.494 441.427 589.826 449.565 575.85C457.593 561.421 467.566 544.119 479.484 523.946C491.746 503.208 505.265 480.726 520.043 456.499C534.71 431.817 548.745 408.49 562.148 386.516C575.894 363.979 587.922 344.259 598.232 327.356C608.995 310.343 616.267 298.738 620.047 292.54C592.021 317.577 564.559 342.957 537.66 368.681C510.651 393.951 483.47 419.504 456.117 445.337C412.353 486.672 369.152 528.349 326.515 570.371C284.221 611.829 241.584 653.851 198.603 696.436L134.44 764.56L133.76 764.724L123.288 757.178C120.141 754.099 116.211 749.769 111.498 744.189C108.351 741.11 106.166 738.038 104.944 734.973L219.66 625.791Z" fill="url(#paint3_linear_11016_39)"/>
<defs>
<linearGradient id="paint0_linear_11016_39" x1="54.6512" y1="532.419" x2="1854.57" y2="96.3248" gradientUnits="userSpaceOnUse">
<stop offset="0.381119" stop-color="#BF1D17"/>
<stop offset="1" stop-color="#590E0B" stop-opacity="0.2"/>
</linearGradient>
<linearGradient id="paint1_linear_11016_39" x1="54.6514" y1="532.419" x2="1854.58" y2="96.3247" gradientUnits="userSpaceOnUse">
<stop offset="0.381119" stop-color="#BF1D17"/>
<stop offset="1" stop-color="#590E0B" stop-opacity="0.2"/>
</linearGradient>
<linearGradient id="paint2_linear_11016_39" x1="54.6514" y1="532.42" x2="1854.58" y2="96.325" gradientUnits="userSpaceOnUse">
<stop offset="0.381119" stop-color="#BF1D17"/>
<stop offset="1" stop-color="#590E0B" stop-opacity="0.2"/>
</linearGradient>
<linearGradient id="paint3_linear_11016_39" x1="54.6514" y1="532.42" x2="1854.58" y2="96.3255" gradientUnits="userSpaceOnUse">
<stop offset="0.381119" stop-color="#BF1D17"/>
<stop offset="1" stop-color="#590E0B" stop-opacity="0.2"/>
</linearGradient>
</defs>
</svg>
