<svg width="1327" height="274" viewBox="0 0 1327 274" fill="none" xmlns="http://www.w3.org/2000/svg">
<g clip-path="url(#clip0_9068_523)">
<rect width="1326" height="274" transform="translate(0.5)" fill="#352D27"/>
<path d="M855.543 104.351C880.988 85.508 906.154 66.997 931.041 48.8183C955.929 30.6395 980.969 12.4473 1006.16 -5.75811C1008.19 -7.16672 1012.83 -10.4955 1020.07 -15.7445C1027.28 -21.2991 1036.24 -27.93 1046.96 -35.6375C1057.98 -43.3715 1070.01 -51.9627 1083.04 -61.4109C1096.34 -71.1913 1109.65 -80.9717 1122.96 -90.752C1136.57 -100.559 1149.75 -110.021 1162.5 -119.137C1175.25 -128.253 1186.7 -136.332 1196.86 -143.375C1206.99 -150.724 1215.11 -156.511 1221.2 -160.737C1227.58 -165.295 1230.92 -167.587 1231.22 -167.614C1232.14 -167.694 1233.43 -167.037 1235.09 -165.643C1237.03 -164.581 1239 -163.213 1240.99 -161.54C1242.98 -159.867 1244.82 -158.18 1246.51 -156.481C1248.48 -155.113 1249.79 -154.15 1250.46 -153.593C1250.81 -153.008 1251.85 -151.714 1253.57 -149.708C1255.56 -148.035 1257.43 -146.043 1259.17 -143.733C1261.19 -141.754 1262.9 -139.749 1264.31 -137.717C1265.69 -135.99 1265.95 -134.782 1265.09 -134.091C1254.2 -124.829 1243.5 -115.123 1233 -104.971C1222.47 -95.1251 1212.11 -84.9869 1201.94 -74.5566C1190.04 -62.7443 1178.33 -50.6398 1166.79 -38.2432C1155.55 -25.8732 1144.32 -13.5032 1133.08 -1.13322C1119.62 13.8941 1106.31 28.908 1093.15 43.9087C1080.29 58.8826 1067.3 74.0227 1054.17 89.3288C1078.67 70.2602 1103.2 51.4971 1127.75 33.0394C1152.62 14.5551 1177.77 -4.10859 1203.21 -22.9517C1225.74 -40.0007 1248.26 -57.0497 1270.78 -74.0987C1293.61 -91.1744 1316.45 -108.097 1339.31 -124.868C1347.69 -131.14 1355.93 -137.246 1364.03 -143.186C1372.41 -149.458 1380.79 -155.73 1389.17 -162.002C1393.79 -165.484 1398.43 -168.813 1403.07 -171.989C1407.72 -175.165 1412.51 -178.507 1417.44 -182.015C1417.72 -182.347 1418 -182.679 1418.27 -183.012C1418.83 -183.676 1419.26 -184.021 1419.57 -184.048L1420.94 -184.168C1421.86 -184.248 1422.84 -183.564 1423.89 -182.117C1426.52 -180.191 1429 -178.253 1431.33 -176.301C1433.96 -174.375 1436.45 -172.284 1438.8 -170.027C1439.16 -169.442 1440.2 -168.147 1441.91 -166.142C1443.9 -164.469 1445.77 -162.477 1447.51 -160.166C1449.53 -158.188 1451.24 -156.183 1452.65 -154.151C1454.03 -152.424 1454.29 -151.216 1453.43 -150.525C1437.92 -137.781 1423.14 -123.717 1409.09 -108.331C1402.9 -101.634 1397.03 -94.8114 1391.48 -87.8626C1385.91 -81.2194 1380.36 -74.2706 1374.83 -67.0163C1368.78 -58.7922 1362.72 -50.5682 1356.67 -42.3441C1350.92 -34.1466 1345.02 -25.9358 1338.96 -17.7118C1331.82 -7.8535 1324.51 1.86533 1317.03 11.4447C1309.56 21.0242 1301.92 30.4641 1294.11 39.7647L1266.07 78.2278C1265.79 78.56 1265.15 78.3078 1264.15 77.4713C1262.57 76.9936 1260.77 75.7654 1258.75 73.7868C1256.71 71.5027 1254.79 68.8997 1252.99 65.978C1251.2 63.0562 1249.57 60.2738 1248.11 57.6309C1246.92 54.6558 1246.42 52.3912 1246.59 50.837C1246.51 49.9205 1248.79 46.0278 1253.42 39.159C1258.33 31.9581 1264.35 23.2757 1271.47 13.112C1278.89 2.92155 1287.01 -8.09928 1295.82 -19.9505C1304.61 -32.1072 1313 -43.613 1320.98 -54.4677C1328.96 -65.3225 1335.98 -74.8619 1342.03 -83.086C1348.36 -91.6422 1352.63 -97.4018 1354.84 -100.365C1333.52 -87.1149 1312.37 -73.7258 1291.39 -60.1973C1270.71 -46.6955 1250.03 -33.1936 1229.36 -19.6917C1193.01 4.72025 1157.49 29.8294 1122.8 55.6356C1088.11 81.4419 1053.64 107.999 1019.39 135.306C1019.09 135.332 1018.6 135.067 1017.94 134.509C1016.36 134.031 1014.56 132.803 1012.54 130.825C1010.49 128.541 1008.43 126.104 1006.36 123.514C1004.57 120.592 1003.09 117.797 1001.93 115.127C1000.75 112.152 1000.09 109.901 999.959 108.373C999.879 107.457 1003.17 102.86 1009.84 94.5822C1016.48 85.9993 1024.66 75.7422 1034.4 63.811C1044.41 51.5476 1055.41 38.2745 1067.4 23.9915C1079.36 9.40297 1090.78 -4.36846 1101.66 -17.3228C1112.81 -30.6093 1122.57 -42.235 1130.94 -52.1999C1139.61 -62.1914 1145.48 -69.0141 1148.54 -72.6679C1127.87 -59.166 1107.52 -45.3853 1087.51 -31.3258C1067.47 -17.5717 1047.29 -3.65159 1026.97 10.4346C994.457 32.9726 962.279 55.7893 930.433 78.885C898.865 101.648 867.019 124.744 834.894 148.172L786.488 186.103L786.029 186.143L779.97 180.207C778.23 177.897 776.103 174.696 773.592 170.605C771.851 168.295 770.734 166.083 770.242 163.971L855.543 104.351Z" fill="#BF1D17"/>
<path opacity="0.2" d="M1211.93 235.74C1211.93 235.74 1212.07 235.574 1212.35 235.242C1213.19 234.246 1213.87 233.262 1214.4 232.293C1215.21 230.991 1215.71 229.715 1215.91 228.467C1216.14 227.523 1216.21 226.594 1216.13 225.677C1216.36 224.734 1216.14 223.983 1215.47 223.426C1215.45 223.12 1214.97 223.007 1214.06 223.087C1213.12 222.862 1212.06 223.108 1210.89 223.826C1209.7 224.238 1208.37 224.969 1206.93 226.019C1205.78 227.042 1204.64 228.065 1203.5 229.088C1202.36 230.111 1201.51 230.955 1200.95 231.619C1200.95 231.619 1200.81 231.785 1200.53 232.117C1199.7 233.114 1198.87 234.263 1198.06 235.565C1197.53 236.535 1197.01 237.658 1196.51 238.933C1196.28 239.876 1196.06 240.819 1195.83 241.762C1195.91 242.679 1196.28 243.416 1196.95 243.974C1197.31 244.558 1197.63 244.684 1197.91 244.352C1199.15 244.551 1200.38 244.444 1201.57 244.032C1202.74 243.314 1204.05 242.431 1205.5 241.381C1206.94 240.331 1208.24 239.295 1209.38 238.272C1210.52 237.248 1211.37 236.405 1211.93 235.74ZM1225.3 224.877C1229.23 220.533 1232.99 216.048 1236.59 211.425C1240.13 206.19 1244.42 200.583 1249.44 194.604C1250.27 193.608 1252.22 191.283 1255.29 187.629C1258.33 183.67 1261.53 179.697 1264.87 175.711C1268.5 171.393 1271.86 167.56 1274.95 164.212C1278.05 160.863 1280.05 159.149 1280.97 159.069C1282.49 158.936 1284.59 159.985 1287.24 162.215C1290.18 164.114 1292.15 165.482 1293.14 166.318C1294.17 167.46 1295.88 169.466 1298.29 172.334C1300.97 174.87 1302.07 176.929 1301.59 178.51L1301.67 179.426C1301.17 180.702 1300.35 181.851 1299.21 182.874C1298.34 183.565 1297.49 184.409 1296.66 185.405C1294.42 188.062 1292.33 190.554 1290.38 192.879C1288.43 195.204 1286.34 197.695 1284.11 200.352L1264.85 228.353L1254.93 241.685C1258.54 240.754 1262.71 239.159 1267.44 236.899C1272.14 234.334 1276.84 231.769 1281.55 229.204C1286.22 226.334 1290.59 223.49 1294.65 220.673C1299 217.523 1302.62 214.899 1305.51 212.799C1308.99 210.341 1311.06 209.39 1311.73 209.948C1312.39 210.506 1314.2 211.887 1317.17 214.091C1317.19 214.396 1316.97 215.339 1316.49 216.92L1312.61 220.03C1308.9 223.431 1304.04 227.703 1298.02 232.846C1292.29 237.656 1286.08 242.353 1279.4 246.938C1272.69 251.217 1265.92 254.733 1259.08 257.484C1252.24 260.236 1246.29 260.909 1241.25 259.502C1240.02 259.609 1238.6 259.118 1236.96 258.029C1235.63 256.913 1234.29 255.645 1232.94 254.224C1231.55 252.498 1230.17 250.772 1228.79 249.045C1227.71 247.292 1226.82 245.831 1226.1 244.662C1223.2 246.762 1219.72 249.22 1215.66 252.038C1211.6 254.855 1207.35 257.38 1202.93 259.613C1198.51 261.846 1194.05 263.62 1189.54 264.937C1185.01 265.948 1180.86 266.002 1177.09 265.1C1174.95 265.286 1172.51 263.806 1169.78 260.659C1167.04 257.512 1165.3 255.201 1164.55 253.727C1163.17 252 1161.75 249.815 1160.29 247.173C1158.8 244.224 1158.11 241.667 1158.23 239.502C1158.13 238.28 1159.29 235.716 1161.72 231.81C1164.15 227.904 1166.87 223.819 1169.88 219.554C1173.2 215.262 1176.24 211.303 1179.01 207.676C1182.07 204.022 1184.16 201.531 1185.28 200.202C1186.12 199.206 1188.07 196.881 1191.14 193.227C1194.18 189.268 1197.52 185.282 1201.17 181.269C1204.8 176.951 1208.16 173.118 1211.25 169.769C1214.35 166.421 1216.35 164.707 1217.27 164.627C1218.8 164.494 1220.89 165.543 1223.55 167.773C1226.48 169.672 1228.45 171.04 1229.45 171.876C1230.77 172.992 1232.64 174.983 1235.05 177.852C1237.73 180.388 1238.83 182.447 1238.36 184.028L1238.44 184.944C1237.93 186.22 1237.11 187.369 1235.97 188.392C1234.8 189.11 1233.79 189.967 1232.96 190.963C1230.73 193.62 1228.64 196.112 1226.68 198.437C1224.73 200.762 1222.79 203.24 1220.87 205.87L1213.46 216.214C1215.01 216.386 1216.75 216.85 1218.66 217.607C1220.57 218.363 1222.22 219.605 1223.6 221.331C1224.62 222.473 1225.19 223.655 1225.3 224.877Z" fill="#BF1D17"/>
<path opacity="0.2" d="M1123.9 206.021C1124.71 204.719 1125.49 203.111 1126.25 201.198C1127.28 198.953 1127.13 197.273 1125.81 196.157C1124.78 195.015 1123.35 194.524 1121.52 194.684C1119.66 194.538 1117.68 194.712 1115.56 195.204C1113.45 195.696 1111.37 196.494 1109.31 197.597C1107.22 198.394 1105.74 198.986 1104.85 199.371L1095.74 206.168C1095.18 206.833 1093.64 208.507 1091.1 211.191C1088.84 213.543 1086.33 216.532 1083.57 220.159C1080.78 223.481 1078.02 227.108 1075.29 231.041C1072.83 234.641 1070.97 238.035 1069.71 241.224C1068.45 244.412 1068.2 246.896 1068.98 248.676C1070.05 250.429 1072.73 251.119 1077.01 250.746L1078.84 250.586C1082.7 249.017 1087.09 246.326 1091.99 242.512C1096.86 238.393 1100.86 234.812 1103.98 231.769C1107.66 228.062 1111.31 224.05 1114.93 219.731C1118.53 215.108 1121.52 210.538 1123.9 206.021ZM1154.92 127.587C1146.95 135.055 1139.31 142.801 1132.01 150.826C1120.5 163.529 1109.44 176.191 1098.84 188.813C1102.02 186.381 1105.51 184.075 1109.32 181.896C1113.44 179.69 1117.46 178.108 1121.38 177.15C1122.88 176.711 1124.24 176.439 1125.46 176.332C1129.88 174.099 1133.89 170.671 1137.49 166.047C1141.93 160.427 1145.67 153.944 1148.72 146.597C1151.78 139.251 1153.84 132.914 1154.92 127.587ZM1144.27 190.852L1151.39 203.621C1152.93 207.181 1153.41 210.834 1152.81 214.58C1152.52 218.299 1151.46 222.085 1149.64 225.938C1147.8 229.485 1145.65 233.059 1143.19 236.659C1140.71 239.954 1138.34 242.778 1136.08 245.129C1141.67 242.179 1147.1 239.089 1152.36 235.859C1157.59 232.325 1162.66 228.65 1167.56 224.837C1170.73 222.405 1172.65 221.468 1173.31 222.025C1174.28 222.557 1176.25 223.924 1179.21 226.128C1179.24 226.434 1179.01 227.377 1178.54 228.958L1174.65 232.067C1170.64 235.495 1165.91 239.449 1160.45 243.927C1155.3 248.378 1149.67 252.717 1143.58 256.943C1137.76 260.836 1131.75 264.285 1125.55 267.289C1119.62 269.961 1114.22 271.51 1109.33 271.936C1107.5 272.096 1104.75 272.336 1101.08 272.656C1097.72 272.949 1094.05 273.269 1090.08 273.615C1086.39 273.63 1082.85 273.631 1079.46 273.619C1076.38 273.58 1074.2 273.308 1072.93 272.804L1053.19 247.744C1045.16 257.988 1037.43 268.205 1030.01 278.395C1029.76 279.033 1029.13 278.934 1028.14 278.097C1026.56 277.619 1024.92 276.53 1023.24 274.831C1021.55 273.131 1020 271.265 1018.59 269.233C1016.85 266.922 1015.58 264.724 1014.78 262.639C1013.65 260.275 1013.18 258.316 1013.35 256.762C1013.24 255.54 1016.51 250.637 1023.15 242.054C1029.79 233.472 1038.11 223.048 1048.12 210.785C1058.13 198.522 1069 185.415 1080.71 171.464C1092.73 157.486 1103.77 144.671 1113.83 133.019C1124.18 121.034 1132.86 111.196 1139.88 103.503C1147.19 95.4774 1151.15 91.4381 1151.76 91.3848C1152.67 91.3048 1154.15 92.4069 1156.2 94.691C1158.55 96.9485 1160.78 99.5248 1162.88 102.42C1163.6 103.589 1164.33 104.91 1165.07 106.384C1171.11 108.627 1176.95 115.506 1182.57 127.021C1181.51 136.041 1179.35 144.848 1176.1 153.443C1173.16 162.012 1169.05 169.605 1163.78 176.221C1158.78 182.506 1152.44 187.369 1144.73 190.812L1144.27 190.852Z" fill="#BF1D17"/>
<path opacity="0.2" d="M1010.34 251.945C1013.67 251.346 1016.83 250.456 1019.8 249.272C1022.78 248.089 1025.57 246.614 1028.19 244.847C1030.5 243.106 1032.67 241.531 1034.7 240.123C1037.04 238.687 1039.22 237.265 1041.26 235.857C1044.43 233.425 1046.35 232.488 1047.01 233.046C1047.68 233.603 1049.49 234.984 1052.45 237.188C1053.12 237.746 1052.89 238.689 1051.78 240.018L1047.89 243.127C1044.77 246.17 1041.36 249.392 1037.65 252.794C1034.23 255.863 1030.47 258.654 1026.38 261.166C1022.57 263.345 1018.4 264.94 1013.87 265.951C1009.34 266.962 1004.69 266.598 999.92 264.86C997.384 267.543 994.263 270.586 990.558 273.988C987.159 277.363 983.401 280.153 979.283 282.36C975.445 284.234 971.361 285.052 967.03 284.814C963.006 284.55 959.266 282.259 955.811 277.943L943.413 262.864C940.317 259.132 939.014 254.782 939.504 249.814C940.273 244.514 941.819 239.3 944.142 234.172C946.465 229.044 949.273 224.181 952.566 219.584C955.859 214.987 958.773 211.347 961.309 208.663C964.934 204.345 968.739 200.319 972.723 196.585C976.68 192.546 980.996 189.091 985.671 186.22C988.898 184.4 992.444 182.705 996.309 181.137C1000.15 179.262 1003.8 178.79 1007.27 179.719L1007.73 179.679L1032.84 202.884C1034.19 204.305 1034.15 207.386 1032.72 212.129C1031.26 216.566 1029.08 221.528 1026.17 227.015C1023.54 232.169 1020.59 237.198 1017.33 242.1C1014.37 246.976 1012.04 250.258 1010.34 251.945ZM996.768 249.897C997.604 248.9 999.111 246.768 1001.29 243.5C1003.47 240.231 1005.62 236.658 1007.74 232.778C1009.84 228.593 1011.78 224.422 1013.58 220.264C1015.67 216.079 1016.91 212.585 1017.28 209.782C1017.62 206.674 1016.98 204.575 1015.34 203.487C1013.68 202.092 1010.61 202.206 1006.14 203.828C1005.08 205.768 1003.36 208.996 1000.98 213.513C998.884 217.698 996.966 222.175 995.227 226.944C993.767 231.381 992.918 235.765 992.68 240.095C992.443 244.426 993.805 247.693 996.768 249.897ZM989.199 258.407C985.133 254.144 982.86 249.263 982.38 243.764C981.901 238.265 982.198 232.852 983.272 227.525C980.59 232.069 978.075 236.752 975.725 241.575C973.348 246.092 971.291 250.735 969.552 255.504C969.048 256.779 968.431 258.526 967.701 260.745C967.276 262.936 967.881 264.577 969.515 265.666C971.482 267.033 974.105 267.112 977.386 265.902C980.64 264.387 982.99 263.105 984.438 262.055C985.301 261.364 986.178 260.825 987.068 260.44C987.931 259.749 988.641 259.071 989.199 258.407Z" fill="#BF1D17"/>
<path opacity="0.2" d="M884.288 232.93L922.132 190.379C922.385 189.742 923.148 189.675 924.424 190.179C926.005 190.657 927.612 191.44 929.246 192.529C931.159 193.286 932.78 194.222 934.109 195.337C935.411 196.147 936.38 196.678 937.018 196.93C937.682 197.488 938.692 198.477 940.048 199.898C941.708 201.292 943.077 202.866 944.154 204.619C945.509 206.04 946.266 207.667 946.426 209.5C946.865 211.001 946.208 212.289 944.455 213.366C941.228 215.187 938.027 217.313 934.853 219.745C931.985 222.15 929.103 224.402 926.208 226.502C922.224 230.235 918.087 233.983 913.798 237.743C909.482 241.198 905.013 244.666 900.392 248.148C897.218 250.579 894.196 252.998 891.328 255.403C888.433 257.503 885.398 259.768 882.224 262.2C882.743 264.617 883.415 267.021 884.239 269.412C885.063 271.803 886.764 273.655 889.341 274.97C892.53 276.231 896.488 275.731 901.216 273.472C906.25 271.186 911.23 268.288 916.157 264.78C921.363 260.94 926.263 257.126 930.858 253.339C935.453 249.552 939.045 246.622 941.635 244.549C944.503 242.144 946.283 241.373 946.974 242.236C947.944 242.767 949.744 243.995 952.375 245.921C952.401 246.226 952.176 247.169 951.698 248.75C951.14 249.414 949.998 250.438 948.272 251.82C940.862 258.623 932.104 265.851 921.998 273.506C911.891 281.16 902.057 286.635 892.494 289.932C884.405 292.485 876.529 293.942 868.864 294.303C861.479 294.332 855.414 290.089 850.669 281.576C848.053 283.344 845.423 284.958 842.78 286.42C840.137 287.882 837.355 289.51 834.433 291.304C832.375 292.408 830.163 293.524 827.799 294.654C825.741 295.757 823.556 297.179 821.245 298.92C820.661 299.278 819.645 299.983 818.197 301.033C817.029 301.75 815.707 302.481 814.233 303.225C812.453 303.996 810.966 304.588 809.77 305C808.243 305.133 807.134 304.768 806.443 303.905C805.087 302.484 805.067 300.485 806.381 297.908C807.695 295.33 808.924 293.53 810.066 292.507L848.212 258.703L847.569 240.751C846.48 242.385 845.086 244.046 843.386 245.734C841.686 247.421 840.139 249.095 838.745 250.756C837.297 251.806 835.85 252.856 834.402 253.906C833.26 254.929 831.965 255.965 830.518 257.015C829.96 257.679 829.25 258.357 828.387 259.048C827.523 259.739 826.813 260.417 826.255 261.081C824.024 263.738 821.03 266.462 817.271 269.253C813.792 271.711 810.179 272.642 806.433 272.045C804.295 272.232 802.701 271.601 801.651 270.154C800.601 268.706 800.342 267.498 800.873 266.528L801.331 266.488C805.063 263.392 809.757 258.98 815.414 253.254C821.35 247.195 827.106 240.844 832.683 234.2C838.233 227.252 843.339 220.496 847.999 213.932C852.66 207.369 855.872 201.856 857.638 197.392C857.585 196.781 857.863 196.449 858.474 196.395C859.391 196.315 861.151 197.085 863.755 198.705C866.332 200.019 868.95 201.792 871.607 204.023C874.238 205.948 876.729 208.039 879.081 210.297C881.406 212.249 882.761 213.67 883.147 214.56C883.505 215.144 883.446 216.226 882.968 217.807L884.288 232.93Z" fill="#BF1D17"/>
<path opacity="0.2" d="M745.45 280.599L735.63 289.767C732.456 292.199 728.837 294.823 724.773 297.641C720.709 300.458 716.426 302.525 711.923 303.841C707.726 305.131 703.588 305.338 699.51 304.462C695.711 303.255 692.515 300.147 689.924 295.14L680.454 276.573C678.606 273.04 677.815 269.262 678.079 265.237C678.649 261.185 679.844 257.233 681.662 253.38C683.481 249.528 685.632 245.954 688.115 242.659C690.877 239.032 693.526 235.876 696.062 233.192C698.598 230.508 701.553 227.326 704.926 223.646C708.604 219.939 712.462 216.524 716.499 213.401C720.536 210.278 724.627 207.766 728.771 205.866C733.193 203.633 737.57 202.635 741.9 202.873C748.396 203.23 754.507 206.237 760.234 211.894C765.96 217.551 770.883 222.816 775.003 227.69C775.839 226.693 777.512 224.7 780.022 221.711C782.505 218.416 785.141 215.107 787.929 211.786C791.023 208.437 793.838 205.421 796.375 202.737C799.216 200.027 800.943 198.645 801.554 198.592C803.081 198.458 805.174 199.507 807.831 201.738C810.767 203.636 812.733 205.004 813.73 205.841C814.726 206.677 816.567 208.364 819.251 210.9C821.935 213.436 823.038 215.495 822.56 217.076C822.613 217.687 822.501 218.158 822.222 218.49C821.691 219.46 820.867 220.609 819.752 221.938C818.915 222.935 818.079 223.931 817.242 224.927C812.143 229.99 808.113 234.959 805.152 239.835L784.439 267.038L775.018 280.789C778.631 279.858 782.801 278.263 787.53 276.004C792.231 273.439 796.919 270.721 801.594 267.85C806.269 264.98 810.791 262.122 815.16 259.278C819.53 256.435 823.315 253.95 826.515 251.823C829.663 249.086 831.582 248.149 832.273 249.012C832.937 249.57 834.917 251.09 838.212 253.573C838.571 254.158 838.332 254.948 837.495 255.944C836.101 257.605 834.806 258.642 833.611 259.054C829.906 262.455 825.045 266.727 819.03 271.87C812.987 276.707 806.473 281.431 799.487 286.042C792.781 290.321 786.007 293.837 779.167 296.588C772.327 299.34 766.383 300.013 761.335 298.606C760.113 298.713 758.672 298.069 757.011 296.675C755.656 295.254 754.134 293.693 752.447 291.994C751.038 289.962 749.63 287.93 748.221 285.898C747.091 283.534 746.167 281.767 745.45 280.599ZM707.033 274.254C704.351 278.798 703.396 281.959 704.166 283.739C705.243 285.492 707.017 286.415 709.487 286.507C711.958 286.599 714.834 286.041 718.114 284.831C721.395 283.621 724.051 282.312 726.083 280.903L735.227 274.565C736.369 273.541 739.184 270.525 743.672 265.516C748.439 260.175 752.582 254.734 756.1 249.194C759.898 243.322 762.081 238.36 762.651 234.308C763.5 229.925 760.73 228.165 754.341 229.031C753.703 228.778 753.245 228.818 752.966 229.151C752.966 229.151 752.661 229.177 752.05 229.231C748.796 230.746 744.579 233.576 739.4 237.722C734.526 241.842 730.516 245.27 727.368 248.007C723.69 251.714 720.052 255.88 716.453 260.503C713.16 265.1 710.02 269.684 707.033 274.254Z" fill="#BF1D17"/>
<path opacity="0.2" d="M181.543 353.351C206.988 334.508 232.154 315.997 257.041 297.818C281.929 279.639 306.969 261.447 332.162 243.242C334.194 241.833 338.829 238.504 346.066 233.255C353.277 227.701 362.242 221.07 372.959 213.363C383.982 205.628 396.007 197.037 409.035 187.589C422.342 177.809 435.649 168.028 448.956 158.248C462.568 148.441 475.749 138.979 488.498 129.863C501.247 120.747 512.702 112.668 522.861 105.625C532.994 98.276 541.109 92.4888 547.204 88.2629C553.579 83.7049 556.919 81.4125 557.224 81.3859C558.141 81.3059 559.43 81.963 561.09 83.3573C563.03 84.4194 564.996 85.7869 566.989 87.4601C568.982 89.1331 570.823 90.8196 572.51 92.5193C574.476 93.8869 575.792 94.8495 576.456 95.4073C576.815 95.9916 577.851 97.2864 579.565 99.2917C581.558 100.965 583.425 102.957 585.166 105.267C587.186 107.246 588.9 109.251 590.308 111.283C591.69 113.01 591.95 114.218 591.087 114.909C580.197 124.171 569.5 133.877 558.996 144.029C548.466 153.875 538.114 164.013 527.943 174.443C516.044 186.256 504.325 198.36 492.786 210.757C481.552 223.127 470.318 235.497 459.084 247.867C445.619 262.894 432.307 277.908 419.148 292.909C406.295 307.883 393.301 323.023 380.169 338.329C404.671 319.26 429.199 300.497 453.754 282.039C478.615 263.555 503.768 244.891 529.213 226.048C551.736 208.999 574.26 191.95 596.783 174.901C619.612 157.826 642.454 140.903 665.309 124.132C673.689 117.86 681.93 111.754 690.031 105.814C698.41 99.5421 706.79 93.27 715.17 86.9978C719.792 83.5163 724.426 80.1874 729.075 77.0114C733.723 73.8353 738.51 70.4932 743.437 66.9849C743.716 66.6528 743.995 66.3206 744.274 65.9885C744.832 65.3241 745.263 64.9786 745.569 64.952L746.944 64.832C747.86 64.7521 748.843 65.4358 749.893 66.8834C752.524 68.8087 755.002 70.7473 757.327 72.6993C759.957 74.6246 762.449 76.7159 764.8 78.9734C765.159 79.5577 766.196 80.8525 767.91 82.8578C769.903 84.5309 771.77 86.5228 773.51 88.8336C775.53 90.8122 777.244 92.8174 778.653 94.8494C780.035 96.5758 780.294 97.7845 779.431 98.4755C763.92 111.219 749.14 125.283 735.091 140.669C728.903 147.366 723.034 154.189 717.483 161.137C711.906 167.781 706.356 174.729 700.832 181.984C694.778 190.208 688.723 198.432 682.668 206.656C676.919 214.853 671.017 223.064 664.962 231.288C657.819 241.147 650.509 250.865 643.034 260.445C635.558 270.024 627.916 279.464 620.109 288.765L592.066 327.228C591.787 327.56 591.149 327.308 590.153 326.471C588.572 325.994 586.772 324.765 584.752 322.787C582.706 320.503 580.786 317.9 578.992 314.978C577.198 312.056 575.57 309.274 574.108 306.631C572.925 303.656 572.419 301.391 572.591 299.837C572.511 298.92 574.788 295.028 579.422 288.159C584.335 280.958 590.349 272.276 597.466 262.112C604.889 251.922 613.008 240.901 621.824 229.049C630.614 216.893 638.999 205.387 646.979 194.532C654.959 183.678 661.977 174.138 668.031 165.914C674.365 157.358 678.634 151.598 680.838 148.635C659.522 161.885 638.373 175.274 617.389 188.803C596.711 202.305 576.033 215.806 555.355 229.308C519.006 253.72 483.488 278.829 448.8 304.636C414.112 330.442 379.643 356.999 345.394 384.306C345.088 384.332 344.603 384.067 343.939 383.509C342.358 383.031 340.558 381.803 338.538 379.825C336.492 377.541 334.432 375.104 332.359 372.514C330.565 369.592 329.09 366.797 327.934 364.127C326.75 361.152 326.092 358.901 325.959 357.373C325.879 356.457 329.172 351.86 335.838 343.582C342.477 334.999 350.663 324.742 360.396 312.811C370.408 300.548 381.409 287.274 393.399 272.991C405.363 258.403 416.783 244.632 427.658 231.677C438.812 218.391 448.572 206.765 456.937 196.8C465.608 186.809 471.477 179.986 474.545 176.332C453.867 189.834 433.521 203.615 413.507 217.674C393.467 231.428 373.287 245.348 352.968 259.435C320.457 281.973 288.279 304.789 256.433 327.885C224.865 350.648 193.019 373.744 160.894 397.172L112.488 435.103L112.029 435.143L105.97 429.207C104.23 426.897 102.103 423.696 99.5917 419.605C97.8509 417.295 96.7344 415.083 96.2423 412.971L181.543 353.351Z" fill="#BF1D17"/>
</g>
<defs>
<clipPath id="clip0_9068_523">
<rect width="1326" height="274" fill="white" transform="translate(0.5)"/>
</clipPath>
</defs>
</svg>
