<svg width="1085" height="369" viewBox="0 0 1085 369" fill="none" xmlns="http://www.w3.org/2000/svg">
<g clip-path="url(#clip0_9052_660)">
<path d="M938.341 125.671C938.341 125.671 938.495 125.462 938.803 125.045C939.725 123.792 940.466 122.567 941.026 121.369C941.894 119.754 942.399 118.194 942.541 116.689C942.738 115.546 942.755 114.431 942.59 113.344C942.787 112.201 942.468 111.323 941.633 110.708C941.578 110.345 941.007 110.246 939.919 110.411C938.777 110.214 937.535 110.588 936.195 111.533C934.8 112.116 933.279 113.088 931.632 114.451C930.347 115.758 929.062 117.066 927.777 118.374C926.492 119.681 925.542 120.753 924.927 121.588C924.927 121.588 924.773 121.797 924.465 122.214C923.543 123.467 922.648 124.901 921.78 126.516C921.221 127.713 920.688 129.092 920.183 130.652C919.986 131.795 919.788 132.937 919.591 134.08C919.756 135.167 920.256 136.019 921.091 136.634C921.564 137.304 921.954 137.43 922.261 137.012C923.766 137.155 925.216 136.935 926.611 136.352C927.951 135.407 929.445 134.253 931.093 132.89C932.74 131.528 934.206 130.193 935.491 128.885C936.776 127.577 937.726 126.506 938.341 125.671ZM953.465 111.693C957.825 106.21 961.976 100.573 965.918 94.7829C969.751 88.2674 974.434 81.2518 979.969 73.7361C980.892 72.4835 983.044 69.5607 986.426 64.9678C989.754 60.0124 993.263 55.0294 996.952 50.019C1000.95 44.591 1004.67 39.7618 1008.1 35.5314C1011.54 31.301 1013.8 29.1032 1014.89 28.9382C1016.7 28.663 1019.28 29.7555 1022.62 32.2154C1026.27 34.2578 1028.72 35.7402 1029.97 36.6627C1031.28 37.9477 1033.48 40.2102 1036.57 43.4502C1039.96 46.2726 1041.43 48.6452 1040.98 50.5678L1041.15 51.6553C1040.64 53.2154 1039.75 54.6493 1038.46 55.9569C1037.49 56.847 1036.54 57.9184 1035.61 59.171C1033.15 62.5113 1030.85 65.6428 1028.7 68.5656C1026.54 71.4884 1024.24 74.6199 1021.78 77.9602L1000.92 112.834L990.102 129.497C994.342 128.112 999.197 125.891 1004.67 122.836C1010.08 119.418 1015.5 116 1020.91 112.582C1026.27 108.801 1031.27 105.076 1035.9 101.406C1040.85 97.3176 1044.97 93.9109 1048.26 91.1856C1052.23 87.9877 1054.63 86.6963 1055.46 87.3112C1056.3 87.9262 1058.57 89.4362 1062.27 91.8411C1062.32 92.2036 1062.13 93.3462 1061.68 95.2688L1057.28 99.2742C1053.11 103.615 1047.64 109.082 1040.85 115.675C1034.37 121.85 1027.32 127.927 1019.7 133.906C1012.02 139.521 1004.21 144.231 996.253 148.034C988.3 151.837 981.259 153.091 975.128 151.796C973.678 152.017 971.937 151.539 969.904 150.364C968.234 149.134 966.536 147.723 964.811 146.13C963.031 144.175 961.251 142.221 959.471 140.266C958.053 138.255 956.872 136.58 955.926 135.24C952.631 137.966 948.666 141.164 944.031 144.834C939.396 148.505 934.525 151.84 929.418 154.84C924.31 157.841 919.12 160.298 913.847 162.21C908.519 163.761 903.571 164.141 899 163.351C896.463 163.736 893.441 162.155 889.936 158.608C886.43 155.06 884.178 152.435 883.178 150.733C881.397 148.778 879.535 146.279 877.589 143.237C875.589 139.831 874.578 136.833 874.555 134.24C874.335 132.79 875.526 129.642 878.128 124.797C880.731 119.951 883.668 114.87 886.94 109.552C890.575 104.179 893.903 99.2234 896.923 94.6855C900.305 90.0926 902.611 86.9611 903.841 85.2909C904.764 84.0383 906.916 81.1156 910.298 76.5226C913.626 71.5672 917.316 66.5568 921.368 61.4913C925.366 56.0633 929.083 51.2341 932.52 47.0037C935.958 42.7733 938.22 40.5756 939.308 40.4105C941.12 40.1354 943.697 41.2278 947.037 43.6877C950.685 45.7301 953.135 47.2126 954.388 48.135C956.058 49.365 958.437 51.6 961.525 54.8399C964.92 57.6624 966.393 60.0349 965.943 61.9575L966.108 63.0451C965.603 64.6052 964.708 66.0391 963.423 67.3467C962.083 68.2918 960.952 69.3907 960.029 70.6433C957.569 73.9836 955.263 77.1151 953.111 80.0379C950.958 82.9607 948.833 86.0647 946.736 89.35L938.681 102.255C940.549 102.342 942.653 102.765 944.993 103.522C947.333 104.279 949.393 105.636 951.173 107.591C952.481 108.876 953.245 110.243 953.465 111.693Z" fill="#1F0E0B"/>
<path d="M820.161 98.5483C821.029 96.9331 821.841 94.9555 822.599 92.6153C823.664 89.8577 823.361 87.8638 821.691 86.6338C820.383 85.3489 818.642 84.8714 816.467 85.2016C814.237 85.1692 811.88 85.5268 809.398 86.2745C806.915 87.0222 804.488 88.1324 802.115 89.6051C799.687 90.7153 797.957 91.5342 796.925 92.0618L786.579 100.864C785.964 101.699 784.245 103.814 781.422 107.21C778.908 110.187 776.14 113.945 773.12 118.483C770.045 122.659 767.025 127.196 764.061 132.097C761.403 136.58 759.443 140.771 758.181 144.672C756.919 148.572 756.815 151.554 757.87 153.619C759.288 155.63 762.534 156.249 767.609 155.479L769.785 155.149C774.277 152.984 779.302 149.439 784.86 144.516C790.362 139.231 794.86 134.654 798.352 130.786C802.46 126.083 806.512 121.018 810.509 115.59C814.452 109.799 817.669 104.119 820.161 98.5483ZM851.215 2.6018C842.275 12.1178 833.753 21.9412 825.648 32.0722C812.876 48.1037 800.647 64.0527 788.963 79.9191C792.565 76.7762 796.558 73.7596 800.94 70.8692C805.685 67.9238 810.359 65.731 814.962 64.2906C816.719 63.653 818.323 63.2241 819.773 63.0041C824.881 60.0036 829.406 55.6081 833.348 49.8176C838.213 42.7745 842.188 34.7539 845.272 25.7558C848.357 16.7577 850.338 9.03967 851.215 2.6018ZM843.325 78.8997L852.788 93.5962C854.898 97.7263 855.74 102.049 855.312 106.564C855.248 111.024 854.277 115.622 852.399 120.358C850.467 124.73 848.172 129.158 845.515 133.641C842.802 137.761 840.189 141.311 837.674 144.288C844.121 140.343 850.36 136.243 856.39 131.99C862.365 127.375 868.131 122.606 873.689 117.682C877.291 114.54 879.51 113.276 880.345 113.891C881.543 114.451 883.993 115.933 887.696 118.338C887.751 118.7 887.553 119.843 887.104 121.766L882.705 125.771C878.18 130.167 872.831 135.243 866.659 141.001C860.849 146.705 854.467 152.309 847.515 157.815C840.87 162.903 833.961 167.475 826.788 171.53C819.923 175.168 813.591 177.428 807.79 178.308C805.615 178.638 802.353 179.133 798.002 179.794C794.015 180.399 789.665 181.059 784.952 181.774C780.547 182.072 776.323 182.342 772.28 182.585C768.6 182.773 765.98 182.614 764.42 182.109L738.969 153.707C730.162 166.54 721.717 179.319 713.635 192.043C713.383 192.823 712.63 192.751 711.378 191.829C709.455 191.379 707.422 190.204 705.28 188.304C703.137 186.404 701.148 184.295 699.313 181.978C697.06 179.353 695.378 176.827 694.268 174.399C692.741 171.664 692.02 169.363 692.108 167.495C691.888 166.045 695.412 159.947 702.682 149.201C709.952 138.455 719.094 125.385 730.109 109.991C741.124 94.5975 753.088 78.1323 766.003 60.5957C779.28 43.0041 791.481 26.8739 802.606 12.205C814.038 -2.88137 823.653 -15.2813 831.45 -24.9947C839.555 -35.1257 843.97 -40.2462 844.695 -40.3562C845.782 -40.5213 847.634 -39.3188 850.249 -36.7488C853.227 -34.2339 856.078 -31.3289 858.804 -28.0339C859.749 -26.6939 860.721 -25.1726 861.722 -23.4701C869.105 -21.2529 876.588 -13.4879 884.172 -0.17519C883.592 10.6679 881.689 21.341 878.462 31.8442C875.597 42.2924 871.271 51.6643 865.484 59.9601C860.004 67.8383 852.799 74.124 843.869 78.8172L843.325 78.8997Z" fill="#1F0E0B"/>
<path d="M666.399 165.278C670.331 164.31 674.028 163.007 677.488 161.37C680.948 159.732 684.171 157.759 687.159 155.451C689.784 153.199 692.255 151.155 694.573 149.319C697.253 147.429 699.752 145.566 702.069 143.731C705.672 140.588 707.89 139.324 708.725 139.939C709.561 140.554 711.829 142.064 715.532 144.469C716.367 145.084 716.17 146.227 714.94 147.897L710.541 151.902C707.049 155.77 703.221 159.874 699.059 164.215C695.204 168.138 690.931 171.753 686.241 175.061C681.859 177.951 677.004 180.172 671.676 181.722C666.348 183.273 660.773 183.192 654.95 181.479C652.128 184.875 648.635 188.743 644.473 193.083C640.673 197.368 636.4 200.984 631.655 203.929C627.218 206.457 622.406 207.744 617.221 207.789C612.398 207.779 607.762 205.331 603.311 200.443L587.372 183.392C583.394 179.175 581.509 174.083 581.716 168.118C582.231 161.735 583.679 155.396 586.061 149.1C588.443 142.805 591.425 136.79 595.004 131.054C598.584 125.319 601.785 120.753 604.608 117.358C608.605 111.93 612.839 106.837 617.309 102.079C621.724 96.9584 626.611 92.5079 631.971 88.7274C635.684 86.3095 639.786 84.018 644.279 81.8526C648.717 79.3247 653.039 78.4832 657.247 79.328L657.791 79.2455L689.519 105.026C691.244 106.619 691.432 110.299 690.082 116.067C688.677 121.472 686.449 127.559 683.396 134.327C680.652 140.677 677.517 146.901 673.992 152.999C670.83 159.042 668.298 163.135 666.399 165.278ZM650.051 163.865C650.974 162.612 652.61 159.953 654.96 155.888C657.31 151.823 659.605 147.395 661.845 142.605C664.029 137.452 666.033 132.326 667.855 127.229C670.04 122.076 671.247 117.813 671.477 114.44C671.652 110.705 670.723 108.25 668.69 107.075C666.603 105.538 662.95 105.906 657.732 108.182C656.612 110.577 654.806 114.56 652.314 120.13C650.129 125.283 648.181 130.771 646.469 136.594C645.064 141.999 644.384 147.295 644.429 152.48C644.475 157.665 646.349 161.46 650.051 163.865ZM641.667 174.595C636.491 169.817 633.408 164.166 632.418 157.641C631.427 151.115 631.371 144.634 632.248 138.196C629.393 143.821 626.747 149.601 624.31 155.534C621.817 161.104 619.715 166.801 618.003 172.624C617.498 174.184 616.894 176.315 616.192 179.018C615.852 181.665 616.698 183.577 618.731 184.752C621.181 186.234 624.318 186.129 628.14 184.436C631.908 182.381 634.615 180.672 636.263 179.309C637.24 178.419 638.245 177.71 639.278 177.183C640.255 176.292 641.052 175.43 641.667 174.595Z" fill="#1F0E0B"/>
<path d="M509.109 152.992L551.033 99.3434C551.285 98.5634 552.192 98.4258 553.752 98.9308C555.674 99.3807 557.652 100.193 559.685 101.368C562.025 102.125 564.03 103.119 565.7 104.349C567.315 105.217 568.513 105.777 569.293 106.029C570.128 106.644 571.408 107.748 573.133 109.34C575.221 110.878 576.974 112.651 578.391 114.661C580.117 116.254 581.144 118.138 581.474 120.313C582.112 122.07 581.426 123.658 579.416 125.076C575.703 127.493 572.046 130.274 568.443 133.417C565.203 136.504 561.936 139.411 558.641 142.136C554.171 146.894 549.52 151.68 544.687 156.493C539.8 160.943 534.731 165.421 529.481 169.927C525.878 173.07 522.457 176.185 519.217 179.273C515.922 181.998 512.473 184.932 508.871 188.075C509.674 190.92 510.658 193.738 511.823 196.528C512.988 199.318 515.158 201.399 518.334 202.772C522.234 204.034 526.919 203.137 532.389 200.082C538.222 196.971 543.944 193.136 549.557 188.575C555.477 183.597 561.034 178.674 566.229 173.806C571.424 168.938 575.488 165.169 578.42 162.499C581.66 159.411 583.726 158.356 584.616 159.333C585.813 159.893 588.055 161.222 591.34 163.319C591.395 163.682 591.197 164.824 590.748 166.747C590.133 167.582 588.848 168.89 586.893 170.67C578.568 179.351 568.666 188.642 557.189 198.543C545.711 208.444 534.392 215.725 523.232 220.386C513.774 224.047 504.487 226.384 495.369 227.397C486.558 227.992 478.999 223.391 472.691 213.593C469.703 215.901 466.688 218.028 463.646 219.973C460.603 221.918 457.407 224.072 454.057 226.435C451.684 227.908 449.13 229.408 446.395 230.936C444.023 232.409 441.524 234.271 438.899 236.524C438.229 236.997 437.07 237.914 435.423 239.277C434.083 240.222 432.561 241.195 430.859 242.195C428.794 243.25 427.064 244.069 425.669 244.651C423.856 244.926 422.505 244.575 421.615 243.598C419.89 242.005 419.713 239.621 421.086 236.446C422.458 233.271 423.787 231.03 425.072 229.722L468.02 186.487L465.889 165.115C464.714 167.148 463.176 169.236 461.276 171.378C459.376 173.521 457.658 175.636 456.12 177.724C454.473 179.087 452.825 180.449 451.178 181.812C449.893 183.119 448.427 184.455 446.779 185.817C446.164 186.652 445.368 187.515 444.39 188.405C443.413 189.295 442.617 190.158 442.002 190.993C439.542 194.333 436.175 197.811 431.903 201.426C427.938 204.624 423.698 206.01 419.183 205.582C416.645 205.967 414.695 205.336 413.332 203.689C411.969 202.041 411.568 200.619 412.128 199.421L412.672 199.339C416.889 195.361 422.156 189.74 428.47 182.477C435.093 174.796 441.479 166.78 447.629 158.43C453.724 149.716 459.302 141.267 464.364 133.081C469.427 124.896 472.841 118.072 474.609 112.612C474.499 111.887 474.806 111.47 475.531 111.36C476.619 111.194 478.778 111.979 482.008 113.714C485.183 115.087 488.441 117.003 491.781 119.463C495.067 121.56 498.198 123.866 501.176 126.381C504.099 128.534 505.824 130.126 506.351 131.159C506.824 131.829 506.835 133.125 506.385 135.048L509.109 152.992Z" fill="#1F0E0B"/>
<path d="M325.314 223.724L314.293 235.41C310.691 238.553 306.572 241.96 301.937 245.63C297.302 249.301 292.348 252.092 287.075 254.005C282.165 255.863 277.244 256.425 272.311 255.69C267.686 254.537 263.636 251.073 260.163 245.295L247.453 223.86C244.98 219.785 243.748 215.336 243.758 210.513C244.13 205.635 245.255 200.829 247.133 196.093C249.01 191.358 251.305 186.93 254.017 182.81C257.037 178.272 259.958 174.305 262.781 170.91C265.603 167.515 268.887 163.493 272.632 158.845C276.739 154.142 281.083 149.774 285.663 145.741C290.243 141.708 294.933 138.4 299.733 135.817C304.841 132.817 309.987 131.294 315.172 131.249C322.95 131.181 330.471 134.304 337.734 140.619C344.997 146.934 351.271 152.843 356.557 158.345C357.48 157.093 359.324 154.587 362.092 150.83C364.804 146.709 367.698 142.561 370.773 138.386C374.21 134.156 377.34 130.343 380.163 126.947C383.348 123.497 385.303 121.717 386.028 121.607C387.84 121.332 390.417 122.424 393.757 124.884C397.405 126.926 399.855 128.409 401.108 129.331C402.36 130.254 404.684 132.126 408.08 134.949C411.475 137.771 412.948 140.144 412.498 142.066C412.608 142.791 412.509 143.363 412.201 143.78C411.642 144.978 410.747 146.412 409.517 148.082C408.594 149.334 407.672 150.587 406.749 151.84C401.049 158.268 396.618 164.503 393.456 170.546L370.807 204.58L360.611 221.704C364.851 220.319 369.706 218.099 375.176 215.043C380.591 211.625 385.979 208.026 391.339 204.246C396.699 200.465 401.878 196.712 406.875 192.987C411.873 189.261 416.2 186.008 419.858 183.228C423.405 179.723 425.624 178.459 426.514 179.436C427.349 180.051 429.827 181.715 433.947 184.427C434.42 185.097 434.195 186.058 433.272 187.311C431.735 189.399 430.269 190.734 428.874 191.317C424.711 195.657 419.236 201.124 412.449 207.717C405.606 213.948 398.193 220.08 390.207 226.113C382.53 231.729 374.715 236.438 366.762 240.241C358.809 244.044 351.768 245.299 345.638 244.004C344.187 244.224 342.419 243.565 340.331 242.028C338.606 240.435 336.672 238.689 334.529 236.789C332.694 234.472 330.859 232.154 329.023 229.837C327.496 227.102 326.259 225.064 325.314 223.724ZM278.992 219.073C276.137 224.698 275.237 228.543 276.292 230.608C277.71 232.618 279.896 233.585 282.851 233.507C285.807 233.429 289.195 232.544 293.018 230.851C296.841 229.158 299.911 227.394 302.228 225.559L312.657 217.301C313.942 215.993 317.072 212.18 322.047 205.862C327.329 199.126 331.859 192.32 335.636 185.442C339.721 178.146 341.95 172.059 342.322 167.181C343.002 161.886 339.563 159.998 332.005 161.516C331.225 161.263 330.681 161.346 330.373 161.763C330.373 161.763 330.011 161.818 329.286 161.928C325.518 163.984 320.702 167.681 314.837 173.022C309.335 178.308 304.81 182.703 301.262 186.208C297.155 190.911 293.13 196.158 289.187 201.949C285.608 207.684 282.209 213.392 278.992 219.073Z" fill="#1F0E0B"/>
<path d="M-342.031 353.386C-313.101 328.968 -284.478 304.968 -256.163 281.385C-227.848 257.802 -199.352 234.192 -170.674 210.554C-168.357 208.719 -163.079 204.395 -154.842 197.582C-146.659 190.406 -136.467 181.812 -124.264 171.801C-111.699 161.735 -98.0029 150.57 -83.1754 138.306C-68.0403 125.624 -52.9053 112.943 -37.7703 100.261C-22.2727 87.5249 -7.26395 75.2334 7.25611 63.387C21.7762 51.5407 34.83 41.0294 46.4175 31.8533C57.95 22.3147 67.1926 14.7925 74.1451 9.28687C81.4052 3.36367 85.2164 0.374546 85.5789 0.319527C86.6665 0.154457 88.2541 0.840659 90.3417 2.37812C92.7369 3.49804 95.1872 4.98048 97.6924 6.82545C100.198 8.67039 102.522 10.5428 104.664 12.4428C107.115 13.9252 108.757 14.974 109.592 15.589C110.065 16.259 111.4 17.7252 113.598 19.9877C116.103 21.8326 118.482 24.0676 120.735 26.6926C123.295 28.9001 125.493 31.1626 127.328 33.4801C129.108 35.4351 129.509 36.8576 128.532 37.7477C116.242 49.6265 104.216 62.0215 92.4534 74.9328C80.6361 87.4816 69.055 100.365 57.7102 113.584C44.4104 128.583 31.3468 143.917 18.5196 159.586C6.05485 175.2 -6.40987 190.814 -18.8746 206.428C-33.7993 225.382 -48.5427 244.309 -63.1048 263.208C-77.3045 282.053 -91.6579 301.106 -106.165 320.367C-78.3775 295.752 -50.535 271.499 -22.6375 247.609C5.62255 223.664 34.2176 199.482 63.1476 175.064C88.7277 153.009 114.308 130.954 139.888 108.899C165.83 86.7893 191.8 64.8605 217.798 43.1129C227.32 34.992 236.689 27.0799 245.904 19.3765C255.427 11.2555 264.949 3.13459 274.472 -4.98633C279.722 -9.49186 284.999 -13.8161 290.304 -17.9591C295.609 -22.1022 301.068 -26.4539 306.681 -31.0145C306.988 -31.432 307.296 -31.8495 307.603 -32.267C308.218 -33.1021 308.707 -33.5472 309.069 -33.6022L310.701 -33.8498C311.788 -34.0149 313.013 -33.2737 314.376 -31.6262C317.661 -29.5287 320.765 -27.4038 323.688 -25.2513C326.973 -23.1539 330.105 -20.8478 333.083 -18.3328C333.555 -17.6628 334.89 -16.1966 337.088 -13.9341C339.593 -12.0891 341.972 -9.85413 344.225 -7.22912C346.785 -5.02167 348.983 -2.75918 350.818 -0.441661C352.598 1.51333 353 2.93587 352.022 3.82598C334.482 20.2103 317.915 38.1158 302.32 57.5427C295.445 66.0035 288.961 74.5905 282.866 83.3038C276.716 91.6545 270.621 100.368 264.581 109.444C257.982 119.717 251.382 129.99 244.782 140.264C238.545 150.482 232.126 160.728 225.527 171.001C217.752 183.307 209.769 195.46 201.576 207.458C193.384 219.457 184.983 231.302 176.373 242.993L145.835 291.019C145.527 291.437 144.747 291.184 143.494 290.262C141.572 289.812 139.33 288.483 136.77 286.276C134.155 283.706 131.666 280.746 129.303 277.396C126.94 274.046 124.786 270.849 122.841 267.807C121.203 264.347 120.428 261.683 120.515 259.815C120.35 258.728 122.771 253.91 127.779 245.362C133.093 236.396 139.611 225.579 147.33 212.91C155.412 200.187 164.263 186.419 173.883 171.608C183.448 156.434 192.578 142.068 201.276 128.509C209.973 114.951 217.621 103.035 224.221 92.7613C231.128 82.0704 235.784 74.8735 238.189 71.1707C213.761 88.6004 189.543 106.184 165.532 123.921C141.885 141.603 118.237 159.286 94.5893 176.968C53.0716 208.859 12.5976 241.519 -26.8324 274.948C-66.2625 308.377 -105.374 342.685 -144.166 377.871C-144.529 377.926 -145.127 377.646 -145.963 377.031C-147.885 376.581 -150.127 375.252 -152.687 373.045C-155.302 370.475 -157.945 367.724 -160.615 364.791C-162.978 361.441 -164.951 358.217 -166.534 355.12C-168.171 351.66 -169.128 349.023 -169.403 347.211C-169.568 346.123 -165.988 340.388 -158.663 330.005C-151.394 319.259 -142.405 306.397 -131.698 291.421C-120.683 276.027 -108.565 259.353 -95.3427 241.399C-82.1756 223.082 -69.5959 205.782 -57.6037 189.498C-45.304 172.797 -34.5419 158.183 -25.3171 145.657C-15.7299 133.076 -9.24501 124.488 -5.86258 119.896C-29.5103 137.578 -52.7404 155.567 -75.553 173.865C-98.4206 191.799 -121.442 209.943 -144.617 228.295C-181.697 257.658 -218.36 287.33 -254.605 317.308C-290.543 346.869 -326.788 376.847 -363.34 407.244L-418.218 456.183L-418.761 456.265L-426.442 449.643C-428.695 447.018 -431.475 443.36 -434.783 438.67C-437.036 436.045 -438.536 433.492 -439.284 431.009L-342.031 353.386Z" fill="#1F0E0B"/>
</g>
<defs>
<clipPath id="clip0_9052_660">
<rect width="1085" height="369" rx="14" fill="white"/>
</clipPath>
</defs>
</svg>
