<svg width="1176" height="506" viewBox="0 0 1176 506" fill="none" xmlns="http://www.w3.org/2000/svg">
<path d="M1145.31 140.232C1145.31 140.232 1145.42 140.046 1145.65 139.676C1146.32 138.565 1146.85 137.491 1147.23 136.452C1147.84 135.043 1148.14 133.707 1148.15 132.442C1148.23 131.476 1148.17 130.546 1147.95 129.652C1148.03 128.685 1147.7 127.976 1146.96 127.525C1146.89 127.227 1146.41 127.186 1145.51 127.403C1144.55 127.321 1143.54 127.723 1142.49 128.608C1141.37 129.195 1140.17 130.116 1138.9 131.371C1137.92 132.554 1136.95 133.737 1135.97 134.92C1135 136.103 1134.28 137.065 1133.83 137.805C1133.83 137.805 1133.72 137.99 1133.49 138.361C1132.82 139.471 1132.18 140.731 1131.57 142.14C1131.19 143.178 1130.85 144.366 1130.54 145.703C1130.46 146.669 1130.38 147.635 1130.3 148.602C1130.51 149.496 1130.99 150.169 1131.73 150.62C1132.17 151.144 1132.51 151.221 1132.73 150.851C1134 150.86 1135.19 150.571 1136.31 149.984C1137.36 149.099 1138.52 148.029 1139.79 146.774C1141.07 145.519 1142.19 144.3 1143.17 143.117C1144.14 141.934 1144.86 140.972 1145.31 140.232ZM1156.89 127.485C1160.12 122.6 1163.17 117.601 1166.04 112.49C1168.76 106.783 1172.15 100.597 1176.21 93.932C1176.89 92.8212 1178.47 90.2295 1180.96 86.1567C1183.37 81.7858 1185.93 77.3788 1188.64 72.9358C1191.57 68.1225 1194.32 63.8284 1196.88 60.0537C1199.43 56.2789 1201.16 54.2832 1202.05 54.0666C1203.54 53.7055 1205.77 54.4283 1208.73 56.235C1211.92 57.6714 1214.07 58.7283 1215.18 59.4058C1216.36 60.3814 1218.36 62.1066 1221.17 64.5816C1224.2 66.6863 1225.6 68.5559 1225.37 70.1906L1225.58 71.0847C1225.27 72.4213 1224.63 73.6811 1223.66 74.8641C1222.91 75.6768 1222.19 76.6385 1221.52 77.7493C1219.71 80.7114 1218.02 83.4882 1216.44 86.08C1214.85 88.6718 1213.16 91.4487 1211.35 94.4108L1196.52 124.984L1188.71 139.655C1192.14 138.192 1196.03 135.989 1200.36 133.045C1204.63 129.804 1208.89 126.562 1213.15 123.32C1217.34 119.781 1221.24 116.313 1224.83 112.918C1228.65 109.152 1231.84 106.014 1234.38 103.504C1237.45 100.551 1239.36 99.3004 1240.1 99.7521C1240.84 100.204 1242.84 101.297 1246.1 103.031C1246.17 103.329 1246.09 104.296 1245.86 105.93L1242.48 109.588C1239.33 113.507 1235.17 118.46 1229.99 124.447C1225.04 130.064 1219.61 135.64 1213.69 141.175C1207.7 146.413 1201.53 150.905 1195.18 154.652C1188.84 158.399 1183.06 159.956 1177.86 159.324C1176.67 159.612 1175.18 159.341 1173.4 158.51C1171.92 157.607 1170.4 156.555 1168.85 155.353C1167.22 153.854 1165.6 152.354 1163.97 150.855C1162.65 149.283 1161.54 147.974 1160.65 146.926C1158.11 149.436 1155.04 152.389 1151.44 155.784C1147.85 159.18 1144.03 162.313 1139.99 165.184C1135.96 168.056 1131.81 170.48 1127.56 172.458C1123.23 174.137 1119.13 174.814 1115.27 174.488C1113.18 174.993 1110.55 173.896 1107.37 171.195C1104.19 168.494 1102.12 166.471 1101.17 165.125C1099.54 163.626 1097.81 161.679 1095.97 159.286C1094.05 156.594 1092.99 154.169 1092.78 152.011C1092.49 150.818 1093.26 148.109 1095.07 143.883C1096.89 139.656 1098.97 135.209 1101.31 130.54C1103.95 125.799 1106.36 121.428 1108.54 117.427C1111.03 113.354 1112.72 110.577 1113.62 109.096C1114.3 107.986 1115.88 105.394 1118.37 101.321C1120.78 96.9502 1123.49 92.5072 1126.5 87.9919C1129.43 83.1786 1132.18 78.8845 1134.74 75.1098C1137.29 71.335 1139.02 69.3393 1139.91 69.1227C1141.4 68.7616 1143.63 69.4844 1146.59 71.2911C1149.78 72.7275 1151.93 73.7844 1153.04 74.4619C1154.52 75.3653 1156.66 77.0544 1159.47 79.5293C1162.51 81.634 1163.91 83.5037 1163.67 85.1384L1163.89 86.0325C1163.58 87.3691 1162.94 88.6289 1161.96 89.8118C1160.91 90.6968 1160.05 91.6946 1159.37 92.8054C1157.57 95.7674 1155.87 98.5444 1154.29 101.136C1152.71 103.728 1151.17 106.469 1149.66 109.359L1143.89 120.697C1145.45 120.634 1147.23 120.833 1149.24 121.293C1151.24 121.754 1153.06 122.734 1154.68 124.234C1155.87 125.209 1156.6 126.293 1156.89 127.485Z" fill="url(#paint0_linear_11016_31)"/>
<path d="M1053.81 124.062C1054.41 122.653 1054.95 120.946 1055.41 118.941C1056.09 116.566 1055.7 114.927 1054.22 114.023C1053.03 113.048 1051.55 112.777 1049.76 113.21C1047.9 113.345 1045.96 113.815 1043.95 114.618C1041.93 115.422 1039.99 116.523 1038.12 117.923C1036.18 119.024 1034.8 119.833 1033.98 120.347L1026 128.434C1025.54 129.174 1024.27 131.062 1022.16 134.096C1020.28 136.76 1018.25 140.092 1016.06 144.093C1013.81 147.795 1011.62 151.796 1009.51 156.094C1007.62 160.023 1006.29 163.658 1005.52 166.999C1004.75 170.341 1004.88 172.833 1005.91 174.477C1007.24 176.049 1009.99 176.329 1014.16 175.318L1015.95 174.885C1019.54 172.754 1023.47 169.436 1027.74 164.93C1031.94 160.125 1035.35 155.985 1037.98 152.508C1041.06 148.291 1044.07 143.776 1047.01 138.962C1049.87 133.851 1052.14 128.884 1053.81 124.062ZM1072.7 41.8609C1065.95 50.4398 1059.56 59.2445 1053.54 68.2751C1044.07 82.5614 1035.04 96.7394 1026.46 110.809C1029.23 107.928 1032.34 105.125 1035.78 102.398C1039.52 99.5984 1043.25 97.4314 1046.98 95.8965C1048.4 95.2374 1049.71 94.7635 1050.9 94.4746C1054.94 91.6032 1058.39 87.6118 1061.25 82.5004C1064.79 76.2783 1067.52 69.3065 1069.44 61.5849C1071.35 53.8634 1072.44 47.2887 1072.7 41.8609ZM1071.68 106.006L1080.63 117.563C1082.69 120.85 1083.71 124.391 1083.68 128.184C1083.95 131.905 1083.47 135.806 1082.25 139.888C1080.96 143.672 1079.37 147.528 1077.48 151.457C1075.52 155.087 1073.61 158.234 1071.73 160.898C1076.81 157.142 1081.71 153.273 1086.43 149.29C1091.07 145.01 1095.53 140.617 1099.8 136.111C1102.57 133.23 1104.33 132.016 1105.07 132.468C1106.11 132.847 1108.26 133.904 1111.52 135.638C1111.59 135.936 1111.51 136.903 1111.27 138.537L1107.9 142.195C1104.45 146.186 1100.36 150.805 1095.64 156.052C1091.21 161.226 1086.3 166.36 1080.91 171.453C1075.74 176.175 1070.32 180.487 1064.64 184.388C1059.18 187.918 1054.07 190.261 1049.3 191.417C1047.51 191.85 1044.83 192.5 1041.25 193.366C1037.98 194.161 1034.4 195.027 1030.53 195.966C1026.88 196.535 1023.38 197.067 1020.03 197.563C1016.97 197.987 1014.78 198.046 1013.44 197.738L990.171 175.925C983.767 187.258 977.66 198.52 971.851 209.709C971.698 210.377 971.065 210.372 969.955 209.695C968.32 209.46 966.541 208.629 964.617 207.201C962.694 205.774 960.883 204.162 959.186 202.364C957.118 200.341 955.533 198.359 954.432 196.417C952.96 194.249 952.192 192.384 952.129 190.821C951.84 189.629 954.334 184.292 959.609 174.81C964.885 165.328 971.551 153.773 979.609 140.146C987.667 126.519 996.438 111.93 1005.92 96.3788C1015.71 80.7559 1024.7 66.4289 1032.9 53.3978C1041.33 39.9964 1048.44 28.9655 1054.23 20.3052C1060.24 11.2747 1063.55 6.68719 1064.15 6.54276C1065.04 6.32613 1066.67 7.19335 1069.04 9.14443C1071.7 11.0233 1074.29 13.2363 1076.8 15.7835C1077.68 16.8312 1078.6 18.028 1079.56 19.3738C1085.87 20.6842 1092.67 26.6096 1099.96 37.1502C1100.27 46.2267 1099.46 55.2579 1097.53 64.2439C1095.91 73.1576 1092.98 81.2809 1088.76 88.6138C1084.77 95.5764 1079.23 101.338 1072.13 105.898L1071.68 106.006Z" fill="url(#paint1_linear_11016_31)"/>
<path d="M948.43 186.512C951.637 185.42 954.622 184.065 957.385 182.449C960.149 180.833 962.692 178.955 965.013 176.814C967.036 174.747 968.947 172.864 970.744 171.166C972.84 169.396 974.786 167.662 976.584 165.965C979.357 163.084 981.113 161.87 981.854 162.321C982.594 162.773 984.595 163.866 987.855 165.601C988.595 166.052 988.514 167.019 987.611 168.5L984.237 172.157C981.608 175.634 978.718 179.331 975.565 183.251C972.639 186.8 969.342 190.123 965.675 193.22C962.233 195.947 958.35 198.15 954.023 199.829C949.697 201.509 945.046 201.847 940.07 200.844C937.965 203.878 935.337 207.355 932.184 211.274C929.33 215.121 926.033 218.444 922.294 221.243C918.78 223.672 914.865 225.094 910.548 225.509C906.529 225.851 902.487 224.148 898.424 220.4L883.903 207.352C880.282 204.128 878.341 200.023 878.08 195.037C878.044 189.682 878.79 184.295 880.317 178.876C881.844 173.457 883.89 168.229 886.456 163.189C889.021 158.15 891.356 154.114 893.461 151.079C896.397 146.266 899.554 141.715 902.932 137.425C906.238 132.838 909.987 128.774 914.178 125.234C917.095 122.95 920.347 120.742 923.933 118.611C927.446 116.182 930.987 115.167 934.554 115.564L935.001 115.456L963.312 134.629C964.865 135.83 965.289 138.883 964.584 143.787C963.807 148.393 962.393 153.626 960.342 159.487C958.517 164.978 956.357 170.392 953.864 175.729C951.669 180.994 949.857 184.588 948.43 186.512ZM934.707 186.524C935.385 185.413 936.555 183.078 938.217 179.52C939.879 175.962 941.469 172.106 942.987 167.952C944.432 163.5 945.729 159.083 946.877 154.703C948.322 150.251 949.018 146.612 948.964 143.785C948.838 140.66 947.886 138.682 946.107 137.851C944.255 136.722 941.239 137.295 937.057 139.57C936.298 141.647 935.083 145.097 933.411 149.919C931.966 154.372 930.741 159.086 929.738 164.062C928.961 168.668 928.78 173.129 929.195 177.446C929.61 181.763 931.447 184.789 934.707 186.524ZM928.501 196.073C923.842 192.469 920.862 187.985 919.562 182.62C918.262 177.255 917.744 171.859 918.006 166.431C916.037 171.326 914.253 176.334 912.653 181.454C910.982 186.277 909.645 191.176 908.641 196.152C908.334 197.489 907.986 199.309 907.598 201.611C907.507 203.842 908.351 205.373 910.13 206.204C912.28 207.261 914.885 206.945 917.947 205.257C920.937 203.27 923.068 201.65 924.342 200.394C925.092 199.582 925.877 198.918 926.699 198.403C927.449 197.591 928.05 196.814 928.501 196.073Z" fill="url(#paint2_linear_11016_31)"/>
<path d="M820.954 186.632L851.983 138.883C852.137 138.215 852.882 138.034 854.219 138.341C855.853 138.576 857.56 139.109 859.339 139.941C861.344 140.401 863.087 141.083 864.568 141.987C865.977 142.592 867.015 142.972 867.684 143.125C868.424 143.577 869.571 144.403 871.124 145.605C872.976 146.734 874.565 148.084 875.892 149.656C877.446 150.857 878.439 152.352 878.872 154.14C879.531 155.558 879.075 156.931 877.503 158.258C874.586 160.543 871.741 163.126 868.968 166.006C866.493 168.815 863.982 171.474 861.434 173.984C858.056 178.274 854.529 182.599 850.853 186.961C847.104 191.025 843.206 195.124 839.16 199.26C836.387 202.141 833.763 204.985 831.288 207.794C828.741 210.304 826.081 213 823.308 215.88C824.183 218.192 825.208 220.468 826.382 222.708C827.556 224.948 829.515 226.525 832.261 227.437C835.602 228.205 839.441 227.117 843.776 224.174C848.41 221.158 852.899 217.546 857.243 213.338C861.814 208.76 866.086 204.254 870.06 199.82C874.035 195.386 877.147 191.95 879.396 189.512C881.871 186.703 883.515 185.674 884.327 186.424C885.366 186.803 887.33 187.747 890.22 189.256C890.292 189.554 890.211 190.52 889.976 192.155C889.524 192.895 888.548 194.078 887.049 195.704C880.744 203.542 873.17 212.003 864.327 221.088C855.484 230.172 846.583 237.062 837.623 241.757C830.01 245.495 822.441 248.118 814.918 249.625C807.62 250.762 800.987 247.478 795.018 239.774C792.697 241.914 790.34 243.905 787.946 245.747C785.553 247.589 783.046 249.616 780.427 251.828C778.557 253.228 776.538 254.664 774.371 256.136C772.501 257.535 770.554 259.269 768.531 261.337C768.007 261.779 767.109 262.628 765.835 263.883C764.787 264.768 763.59 265.689 762.245 266.646C760.601 267.676 759.219 268.484 758.099 269.071C756.609 269.432 755.457 269.238 754.645 268.488C753.091 267.286 752.771 265.313 753.683 262.568C754.596 259.822 755.54 257.858 756.516 256.675L789.155 217.529L785.825 199.876C784.994 201.655 783.865 203.507 782.438 205.43C781.01 207.354 779.732 209.241 778.603 211.092C777.33 212.348 776.056 213.603 774.782 214.858C773.807 216.041 772.682 217.26 771.409 218.515C770.957 219.256 770.356 220.032 769.607 220.845C768.857 221.658 768.256 222.434 767.805 223.175C765.998 226.137 763.446 229.279 760.149 232.603C757.078 235.555 753.646 237.018 749.853 236.99C747.767 237.496 746.096 237.112 744.841 235.838C743.586 234.565 743.148 233.409 743.527 232.37L743.974 232.262C747.199 228.641 751.178 223.575 755.911 217.064C760.87 210.182 765.608 203.039 770.125 195.634C774.569 187.931 778.603 180.485 782.225 173.297C785.848 166.108 788.197 160.175 789.272 155.497C789.128 154.901 789.353 154.531 789.949 154.386C790.844 154.169 792.699 154.666 795.517 155.877C798.262 156.789 801.116 158.149 804.078 159.956C806.968 161.464 809.745 163.158 812.409 165.037C815.001 166.618 816.554 167.819 817.069 168.641C817.511 169.165 817.615 170.244 817.38 171.879L820.954 186.632Z" fill="url(#paint3_linear_11016_31)"/>
<path d="M690.844 254.6L682.512 265.139C679.739 268.019 676.555 271.157 672.96 274.553C669.365 277.948 665.44 280.634 661.186 282.612C657.23 284.517 653.171 285.343 649.007 285.089C645.07 284.465 641.444 281.873 638.13 277.312L625.981 260.376C623.624 257.161 622.274 253.544 621.931 249.525C621.887 245.433 622.474 241.347 623.694 237.265C624.914 233.183 626.504 229.327 628.464 225.696C630.65 221.696 632.796 218.178 634.9 215.144C637.005 212.11 639.449 208.52 642.231 204.375C645.311 200.158 648.613 196.203 652.135 192.509C655.658 188.816 659.325 185.719 663.137 183.218C667.174 180.346 671.351 178.703 675.668 178.288C682.144 177.666 688.637 179.721 695.148 184.455C701.659 189.188 707.317 193.655 712.121 197.855C712.798 196.744 714.153 194.522 716.186 191.19C718.146 187.56 720.255 183.893 722.514 180.191C725.07 176.416 727.4 173.012 729.505 169.977C731.908 166.871 733.407 165.245 734.003 165.101C735.494 164.74 737.72 165.463 740.682 167.269C743.87 168.706 746.019 169.763 747.13 170.44C748.241 171.118 750.313 172.509 753.347 174.613C756.382 176.718 757.781 178.588 757.546 180.222C757.691 180.819 757.65 181.302 757.424 181.672C757.045 182.711 756.403 183.97 755.5 185.451C754.822 186.562 754.145 187.673 753.467 188.784C749.186 194.554 745.947 200.072 743.752 205.337L727.356 235.341L720.107 250.35C723.539 248.888 727.422 246.685 731.758 243.741C736.021 240.499 740.248 237.109 744.439 233.569C748.63 230.029 752.672 226.526 756.565 223.058C760.458 219.59 763.827 216.565 766.672 213.983C769.373 210.804 771.13 209.59 771.943 210.339C772.683 210.791 774.869 211.997 778.499 213.957C778.941 214.481 778.824 215.298 778.146 216.409C777.017 218.261 775.893 219.48 774.773 220.066C771.62 223.986 767.456 228.939 762.28 234.926C757.032 240.615 751.301 246.263 745.087 251.871C739.099 257.108 732.93 261.601 726.58 265.348C720.231 269.095 714.455 270.652 709.253 270.019C708.061 270.308 706.539 269.888 704.688 268.759C703.134 267.557 701.396 266.243 699.473 264.816C697.775 263.018 696.077 261.221 694.38 259.424C692.908 257.256 691.729 255.648 690.844 254.6ZM651.91 254.094C649.941 258.989 649.471 262.258 650.5 263.902C651.828 265.473 653.72 266.119 656.176 265.84C658.633 265.56 661.392 264.576 664.454 262.888C667.516 261.199 669.945 259.506 671.743 257.808L679.831 250.169C680.807 248.986 683.137 245.582 686.823 239.955C690.734 233.959 694.013 227.958 696.66 221.953C699.533 215.577 700.947 210.344 700.903 206.252C701.084 201.791 698.081 200.467 691.894 202.282C691.226 202.128 690.779 202.237 690.553 202.607C690.553 202.607 690.255 202.679 689.659 202.824C686.669 204.81 682.926 208.241 678.427 213.118C674.227 217.922 670.777 221.913 668.076 225.092C664.996 229.309 662.024 233.973 659.16 239.085C656.594 244.124 654.178 249.127 651.91 254.094Z" fill="url(#paint4_linear_11016_31)"/>
<path d="M144.246 411.172C166.575 388.723 188.677 366.644 210.554 344.936C232.431 323.227 254.457 301.483 276.631 279.702C278.429 278.004 282.512 274.018 288.879 267.742C295.175 261.168 303.042 253.266 312.481 244.038C322.218 234.737 332.818 224.438 344.28 213.141C355.968 201.474 367.656 189.807 379.345 178.14C391.331 166.401 402.942 155.068 414.178 144.142C425.415 133.215 435.527 123.508 444.514 115.02C453.429 106.233 460.583 99.2938 465.975 94.2008C471.593 88.7376 474.551 85.9699 474.849 85.8977C475.744 85.681 477.116 86.1373 478.968 87.2664C481.045 88.0253 483.194 89.0823 485.416 90.4373C487.637 91.7923 489.71 93.1834 491.633 94.6106C493.782 95.6675 495.227 96.4218 495.968 96.8735C496.41 97.3974 497.629 98.522 499.625 100.247C501.847 101.602 503.991 103.291 506.059 105.315C508.353 106.968 510.349 108.693 512.046 110.49C513.672 111.99 514.11 113.146 513.36 113.959C503.984 124.75 494.865 135.952 486.004 147.565C477.071 158.88 468.358 170.457 459.867 182.296C449.877 195.761 440.108 209.487 430.56 223.475C421.31 237.391 412.06 251.307 402.81 265.223C391.753 282.102 380.846 298.944 370.087 315.749C359.627 332.483 349.054 349.402 338.367 366.506C359.729 343.976 381.164 321.743 402.67 299.809C424.475 277.802 446.541 255.575 468.869 233.126C488.578 212.889 508.287 192.652 527.997 172.416C548.004 152.107 568.047 131.947 588.126 111.936C595.47 104.477 602.7 97.2037 609.818 90.115C617.161 82.6561 624.505 75.1971 631.848 67.7382C635.895 63.6024 639.977 59.6156 644.096 55.7778C648.215 51.9401 652.447 47.9172 656.791 43.7091C657.017 43.3389 657.243 42.9686 657.469 42.5984C657.92 41.8578 658.295 41.4515 658.593 41.3793L659.935 41.0543C660.829 40.8377 661.903 41.3662 663.158 42.6397C666.048 44.1484 668.789 45.6931 671.381 47.2739C674.271 48.7825 677.048 50.4763 679.712 52.3551C680.154 52.879 681.373 54.0036 683.369 55.7288C685.59 57.0838 687.735 58.773 689.803 60.7962C692.097 62.4493 694.092 64.1745 695.79 65.972C697.416 67.4714 697.853 68.6275 697.104 69.4402C683.681 84.3672 671.18 100.491 659.599 117.812C654.487 125.361 649.708 132.987 645.264 140.691C640.747 148.096 636.302 155.799 631.93 163.8C627.179 172.84 622.427 181.88 617.675 190.919C613.222 199.887 608.619 208.89 603.867 217.93C598.285 228.749 592.517 239.455 586.564 250.048C580.611 260.641 574.472 271.121 568.149 281.488L546.197 323.725C545.972 324.095 545.303 323.941 544.192 323.264C542.558 323.029 540.594 322.085 538.3 320.432C535.934 318.481 533.645 316.195 531.432 313.576C529.22 310.957 527.193 308.45 525.351 306.057C523.735 303.293 522.895 301.13 522.832 299.567C522.615 298.673 524.282 294.483 527.832 286.996C531.609 279.14 536.252 269.653 541.763 258.536C547.571 247.347 553.944 235.232 560.882 222.192C567.748 208.853 574.311 196.219 580.571 184.29C586.831 172.36 592.337 161.876 597.089 152.836C602.066 143.426 605.422 137.091 607.157 133.831C588.071 150.13 569.171 166.542 550.456 183.067C532.039 199.519 513.622 215.972 495.205 232.425C462.932 262.016 431.585 292.172 401.163 322.893C370.742 353.613 340.65 385.043 310.887 417.182C310.589 417.254 310.07 417.064 309.329 416.612C307.695 416.377 305.731 415.433 303.437 413.78C301.071 411.829 298.669 409.729 296.231 407.48C294.018 404.861 292.14 402.318 290.596 399.852C288.98 397.089 287.991 394.962 287.63 393.471C287.413 392.577 289.979 387.538 295.327 378.354C300.602 368.872 307.156 357.502 314.988 344.245C323.046 330.618 331.93 315.844 341.641 299.923C351.279 283.704 360.502 268.374 369.31 253.934C378.343 239.124 386.247 226.165 393.022 215.058C400.095 203.878 404.874 196.251 407.358 192.179C388.941 208.631 370.894 225.31 353.217 242.214C335.469 258.82 317.607 275.612 299.632 292.588C270.873 319.751 242.484 347.139 214.465 374.753C186.672 401.997 158.653 429.611 130.409 457.596L88.2446 502.363L87.7975 502.471L80.9163 497.512C78.8484 495.489 76.2658 492.644 73.1685 488.977C71.1006 486.953 69.6649 484.935 68.8614 482.92L144.246 411.172Z" fill="url(#paint5_linear_11016_31)"/>
<defs>
<linearGradient id="paint0_linear_11016_31" x1="35.8933" y1="350.089" x2="1218.67" y2="63.5189" gradientUnits="userSpaceOnUse">
<stop offset="0.381119" stop-color="#BF1D17"/>
<stop offset="1" stop-color="#590E0B" stop-opacity="0.2"/>
</linearGradient>
<linearGradient id="paint1_linear_11016_31" x1="35.8932" y1="350.088" x2="1218.67" y2="63.5183" gradientUnits="userSpaceOnUse">
<stop offset="0.381119" stop-color="#BF1D17"/>
<stop offset="1" stop-color="#590E0B" stop-opacity="0.2"/>
</linearGradient>
<linearGradient id="paint2_linear_11016_31" x1="35.8934" y1="350.089" x2="1218.67" y2="63.5189" gradientUnits="userSpaceOnUse">
<stop offset="0.381119" stop-color="#BF1D17"/>
<stop offset="1" stop-color="#590E0B" stop-opacity="0.2"/>
</linearGradient>
<linearGradient id="paint3_linear_11016_31" x1="35.8932" y1="350.088" x2="1218.67" y2="63.5186" gradientUnits="userSpaceOnUse">
<stop offset="0.381119" stop-color="#BF1D17"/>
<stop offset="1" stop-color="#590E0B" stop-opacity="0.2"/>
</linearGradient>
<linearGradient id="paint4_linear_11016_31" x1="35.8935" y1="350.088" x2="1218.67" y2="63.5184" gradientUnits="userSpaceOnUse">
<stop offset="0.381119" stop-color="#BF1D17"/>
<stop offset="1" stop-color="#590E0B" stop-opacity="0.2"/>
</linearGradient>
<linearGradient id="paint5_linear_11016_31" x1="35.8933" y1="350.088" x2="1218.67" y2="63.5187" gradientUnits="userSpaceOnUse">
<stop offset="0.381119" stop-color="#BF1D17"/>
<stop offset="1" stop-color="#590E0B" stop-opacity="0.2"/>
</linearGradient>
</defs>
</svg>
