<svg width="20" height="21" viewBox="0 0 20 21" fill="none" xmlns="http://www.w3.org/2000/svg">
<path fill-rule="evenodd" clip-rule="evenodd" d="M2 6.25C2 6.05109 2.07902 5.86032 2.21967 5.71967C2.36032 5.57902 2.55109 5.5 2.75 5.5H17.25C17.4489 5.5 17.6397 5.57902 17.7803 5.71967C17.921 5.86032 18 6.05109 18 6.25C18 6.44891 17.921 6.63968 17.7803 6.78033C17.6397 6.92098 17.4489 7 17.25 7H2.75C2.55109 7 2.36032 6.92098 2.21967 6.78033C2.07902 6.63968 2 6.44891 2 6.25ZM2 11.5C2 11.3011 2.07902 11.1103 2.21967 10.9697C2.36032 10.829 2.55109 10.75 2.75 10.75H17.25C17.4489 10.75 17.6397 10.829 17.7803 10.9697C17.921 11.1103 18 11.3011 18 11.5C18 11.6989 17.921 11.8897 17.7803 12.0303C17.6397 12.171 17.4489 12.25 17.25 12.25H2.75C2.55109 12.25 2.36032 12.171 2.21967 12.0303C2.07902 11.8897 2 11.6989 2 11.5ZM2 16.75C2 16.5511 2.07902 16.3603 2.21967 16.2197C2.36032 16.079 2.55109 16 2.75 16H17.25C17.4489 16 17.6397 16.079 17.7803 16.2197C17.921 16.3603 18 16.5511 18 16.75C18 16.9489 17.921 17.1397 17.7803 17.2803C17.6397 17.421 17.4489 17.5 17.25 17.5H2.75C2.55109 17.5 2.36032 17.421 2.21967 17.2803C2.07902 17.1397 2 16.9489 2 16.75Z" fill="#ECE8DF"/>
</svg>
