<svg width="18" height="19" viewBox="0 0 18 19" fill="none" xmlns="http://www.w3.org/2000/svg">
<path d="M7.125 11V15.6875C7.125 15.8982 7.24275 16.0914 7.42987 16.1877C7.51125 16.2294 7.59937 16.25 7.6875 16.25C7.80263 16.25 7.91738 16.2148 8.0145 16.1454L10.6395 14.2704C10.7872 14.1646 10.875 13.994 10.875 13.8125V11H7.125ZM14.8125 2.75H3.1875C2.67075 2.75 2.25 3.17075 2.25 3.6875V4.84587C2.25 5.71325 2.64075 6.51837 3.32175 7.055L6.90112 9.875H11.0985L14.6779 7.055C15.3592 6.51837 15.75 5.71287 15.75 4.84587V3.6875C15.75 3.17075 15.3293 2.75 14.8125 2.75Z" fill="#ECE8DF"/>
</svg>
