<svg width="38" height="38" viewBox="0 0 38 38" fill="none" xmlns="http://www.w3.org/2000/svg">
<path d="M20.9194 0.090821C19.4334 0.090821 18.2076 0.63748 17.3643 1.41439C16.521 2.1913 16.0209 3.12209 15.5955 3.93782C15.17 4.75356 14.8072 5.46639 14.455 5.87246C14.1028 6.27853 13.8937 6.42415 13.2947 6.42415C12.5056 6.42415 12.1282 6.08334 11.8004 5.65475C11.4726 5.22616 11.3526 4.81361 11.3526 4.81361C11.2628 4.49584 11.0525 4.2257 10.7665 4.06072C10.4804 3.89575 10.1413 3.84899 9.82124 3.9304C9.82124 3.9304 8.61512 4.23206 7.44624 5.15996C6.27735 6.08786 5.06629 7.78274 5.06629 10.2242C5.06391 10.392 5.09492 10.5586 5.15752 10.7144C5.22011 10.8702 5.31303 11.0119 5.43089 11.1315C5.54874 11.251 5.68918 11.3459 5.84404 11.4107C5.9989 11.4755 6.16509 11.5089 6.33296 11.5089C6.50082 11.5089 6.66701 11.4755 6.82187 11.4107C6.97673 11.3459 7.11717 11.251 7.23502 11.1315C7.35288 11.0119 7.4458 10.8702 7.5084 10.7144C7.57099 10.5586 7.602 10.392 7.59962 10.2242C7.59962 8.56536 8.28856 7.72693 9.01967 7.14655C9.31913 6.90883 9.36175 6.95332 9.60353 6.83483C9.70451 7.00571 9.65322 7.01591 9.78907 7.19355C10.43 8.03163 11.6328 8.95748 13.2947 8.95748C14.5969 8.95748 15.6896 8.31144 16.3673 7.53001C17.0451 6.74859 17.4414 5.87807 17.8418 5.11048C18.2422 4.34289 18.6356 3.69034 19.0813 3.27975C19.2264 3.14607 19.5159 3.16267 19.68 3.06699C19.6526 3.71573 19.5389 3.87568 19.6899 4.74186C19.8515 5.66945 20.1675 6.67397 20.8848 7.52011C21.6021 8.36626 22.7756 8.95748 24.1553 8.95748C25.8749 8.95748 27.5231 8.2039 28.4452 6.90657C28.6719 7.03247 28.6996 6.98426 28.9647 7.20097C29.7125 7.81213 30.3996 8.67248 30.3996 10.2242C30.3972 10.392 30.4283 10.5586 30.4908 10.7144C30.5534 10.8702 30.6464 11.0119 30.7642 11.1315C30.8821 11.251 31.0225 11.3459 31.1774 11.4107C31.3322 11.4755 31.4984 11.5089 31.6663 11.5089C31.8342 11.5089 32.0003 11.4755 32.1552 11.4107C32.3101 11.3459 32.4505 11.251 32.5684 11.1315C32.6862 11.0119 32.7791 10.8702 32.8417 10.7144C32.9043 10.5586 32.9353 10.392 32.933 10.2242C32.933 7.85422 31.7201 6.18091 30.5678 5.23913C29.4156 4.29734 28.2324 3.94525 28.2324 3.94525C28.0656 3.89481 27.8901 3.87935 27.717 3.89985C27.5438 3.92034 27.3768 3.97635 27.2263 4.06436C27.0759 4.15237 26.9452 4.27049 26.8424 4.41134C26.7397 4.55218 26.6671 4.71271 26.6293 4.88288C26.4962 5.48306 25.3443 6.42415 24.1553 6.42415C23.4026 6.42415 23.1063 6.22371 22.8169 5.88236C22.5276 5.541 22.3004 4.96219 22.1861 4.30644C21.9575 2.99495 22.1712 1.56035 22.1712 1.56035C22.2006 1.3791 22.1903 1.19362 22.1408 1.01677C22.0914 0.839918 22.0042 0.675922 21.8851 0.536141C21.766 0.39636 21.618 0.284135 21.4513 0.207242C21.2845 0.130348 21.103 0.0906242 20.9194 0.090821ZM12.6663 11.4908C8.46856 11.4908 5.06629 14.8931 5.06629 19.0908C5.06629 26.3942 13.3361 31.8081 17.2951 34.8945C17.7609 35.32 18.3687 35.5564 18.9996 35.5575C19.6317 35.5564 20.2406 35.319 20.7067 34.892C24.6665 31.8065 32.933 26.3915 32.933 19.0908C32.933 14.8931 29.5307 11.4908 25.333 11.4908C21.3214 11.4908 18.9996 14.9741 18.9996 14.9741C18.9996 14.9741 16.6778 11.4908 12.6663 11.4908Z" fill="#ECE8DF"/>
</svg>
