<svg width="71" height="70" viewBox="0 0 71 70" fill="none" xmlns="http://www.w3.org/2000/svg">
<path d="M39.0359 1.34047e-06C36.2985 1.34047e-06 34.0405 1.00701 32.487 2.43815C30.9336 3.8693 30.0124 5.58391 29.2286 7.08659C28.4448 8.58927 27.7765 9.90236 27.1277 10.6504C26.4789 11.3984 26.0938 11.6667 24.9903 11.6667C23.5367 11.6667 22.8415 11.0389 22.2377 10.2493C21.6339 9.45984 21.4128 8.69987 21.4128 8.69987C21.2474 8.11451 20.86 7.61688 20.3331 7.31298C19.8061 7.00909 19.1814 6.92295 18.5919 7.07292C18.5919 7.07292 16.3701 7.6286 14.2169 9.33789C12.0637 11.0472 9.83275 14.1693 9.83275 18.6667C9.82838 18.9759 9.8855 19.2828 10.0008 19.5698C10.1161 19.8567 10.2873 20.1178 10.5044 20.338C10.7215 20.5582 10.9802 20.7331 11.2655 20.8524C11.5507 20.9718 11.8569 21.0332 12.1661 21.0332C12.4753 21.0332 12.7815 20.9718 13.0667 20.8524C13.352 20.7331 13.6107 20.5582 13.8278 20.338C14.0449 20.1178 14.2161 19.8567 14.3314 19.5698C14.4467 19.2828 14.5038 18.9759 14.4994 18.6667C14.4994 15.611 15.7685 14.0665 17.1153 12.9974C17.6669 12.5595 17.7454 12.6415 18.1908 12.4232C18.3768 12.738 18.2824 12.7568 18.5326 13.084C19.7133 14.6278 21.9289 16.3333 24.9903 16.3333C27.3892 16.3333 29.402 15.1432 30.6505 13.7038C31.899 12.2643 32.6291 10.6607 33.3666 9.24675C34.1041 7.83276 34.8288 6.6307 35.6498 5.87435C35.9171 5.6281 36.4505 5.65867 36.7527 5.48242C36.7024 6.67746 36.4928 6.97212 36.7709 8.56771C37.0687 10.2764 37.6508 12.1269 38.9721 13.6855C40.2934 15.2442 42.4552 16.3333 44.9968 16.3333C48.1644 16.3333 51.2006 14.9451 52.8992 12.5553C53.3167 12.7873 53.3678 12.6985 53.8562 13.0977C55.2336 14.2235 56.4994 15.8083 56.4994 18.6667C56.495 18.9759 56.5522 19.2828 56.6675 19.5698C56.7828 19.8567 56.9539 20.1178 57.171 20.338C57.3881 20.5582 57.6468 20.7331 57.9321 20.8524C58.2174 20.9718 58.5235 21.0332 58.8327 21.0332C59.142 21.0332 59.4481 20.9718 59.7334 20.8524C60.0187 20.7331 60.2774 20.5582 60.4945 20.338C60.7116 20.1178 60.8827 19.8567 60.998 19.5698C61.1133 19.2828 61.1705 18.9759 61.1661 18.6667C61.1661 14.301 58.9319 11.2186 56.8093 9.48372C54.6867 7.74886 52.5072 7.10026 52.5072 7.10026C52.1998 7.00735 51.8766 6.97888 51.5577 7.01663C51.2388 7.05439 50.9311 7.15756 50.6539 7.31968C50.3767 7.48181 50.1359 7.6994 49.9467 7.95885C49.7575 8.21829 49.6238 8.514 49.5541 8.82747C49.3089 9.93308 47.187 11.6667 44.9968 11.6667C43.6102 11.6667 43.0644 11.2974 42.5313 10.6686C41.9983 10.0398 41.5798 8.97358 41.3692 7.76563C40.9481 5.34972 41.3419 2.70703 41.3419 2.70703C41.396 2.37314 41.3769 2.03147 41.2859 1.70569C41.1949 1.37992 41.0341 1.07782 40.8148 0.820327C40.5954 0.562836 40.3227 0.356107 40.0156 0.214461C39.7084 0.072815 39.3741 -0.000361189 39.0359 1.34047e-06ZM23.8328 21C16.1001 21 9.83275 27.2673 9.83275 35C9.83275 48.4536 25.0666 58.4266 32.3594 64.112C33.2175 64.8959 34.3372 65.3314 35.4994 65.3333C36.6638 65.3313 37.7854 64.8941 38.6439 64.1074C45.9385 58.4237 61.1661 48.4487 61.1661 35C61.1661 27.2673 54.8988 21 47.1661 21C39.7764 21 35.4994 27.4167 35.4994 27.4167C35.4994 27.4167 31.2224 21 23.8328 21Z" fill="#FFCC79"/>
</svg>
