<svg width="26" height="24" viewBox="0 0 26 24" fill="none" xmlns="http://www.w3.org/2000/svg">
<path fill-rule="evenodd" clip-rule="evenodd" d="M2.31585 10.5172C8.75614 7.50653 13.0507 5.52172 15.1994 4.56283C21.3347 1.82487 22.6095 1.34922 23.4404 1.33348C23.6232 1.33005 24.0318 1.37866 24.2965 1.60913C24.6891 1.95098 24.6914 2.69301 24.6478 3.18413C24.3153 6.93227 22.8767 16.0279 22.1448 20.2259C21.8351 22.0022 21.2253 22.5978 20.635 22.6561C19.3522 22.7827 18.3779 21.7464 17.1353 20.8725C15.191 19.5049 14.0925 18.6536 12.2051 17.3191C10.0239 15.7769 11.4379 14.9293 12.6809 13.544C13.0063 13.1815 18.6588 7.66496 18.7683 7.1645C18.782 7.1019 18.7947 6.86857 18.6655 6.74542C18.5363 6.62228 18.3457 6.66431 18.2081 6.69783C18.0131 6.74533 14.9069 8.9482 8.88955 13.3063C8.00785 13.956 7.20926 14.2725 6.49377 14.2559C5.70492 14.2376 4.18764 13.7774 3.05965 13.3839C1.67613 12.9014 0.576531 12.6463 0.672321 11.8268C0.722201 11.3999 1.27002 10.9634 2.31585 10.5172Z" fill="white"/>
</svg>
