<svg width="17" height="16" viewBox="0 0 17 16" fill="none" xmlns="http://www.w3.org/2000/svg">
<path fill-rule="evenodd" clip-rule="evenodd" d="M1.21089 7.01125C5.50442 5.00415 8.36747 3.68094 9.79995 3.04168C13.8901 1.21637 14.74 0.899276 15.2939 0.888782C15.4158 0.886498 15.6882 0.918905 15.8646 1.07255C16.1264 1.30045 16.1279 1.79514 16.0989 2.12255C15.8772 4.62131 14.9181 10.6851 14.4302 13.4837C14.2237 14.6679 13.8172 15.065 13.4237 15.1038C12.5684 15.1883 11.919 14.4974 11.0906 13.9148C9.79431 13.003 9.062 12.4355 7.80372 11.5459C6.34961 10.5177 7.29227 9.95267 8.12095 9.02915C8.33784 8.78749 12.1062 5.10977 12.1792 4.77613C12.1883 4.7344 12.1968 4.57884 12.1106 4.49675C12.0245 4.41465 11.8974 4.44267 11.8057 4.46502C11.6757 4.49668 9.60492 5.96526 5.59336 8.8707C5.00556 9.30378 4.47316 9.51477 3.99617 9.50372C3.47027 9.49156 2.45875 9.18471 1.70676 8.92242C0.784413 8.60076 0.0513461 8.43063 0.115206 7.88434C0.148459 7.59971 0.513669 7.30872 1.21089 7.01125Z" fill="#52B6E0"/>
</svg>
