<svg width="30" height="30" viewBox="0 0 30 30" fill="none" xmlns="http://www.w3.org/2000/svg">
<path fill-rule="evenodd" clip-rule="evenodd" d="M4.40728 8.31512H1.12528C0.187556 8.31512 0 8.7455 0 9.21993C0 10.0674 1.11268 14.2705 5.18081 19.8294C7.8929 23.6257 11.714 25.6835 15.1911 25.6835C17.2773 25.6835 17.5354 25.2265 17.5354 24.4392V21.57C17.5354 20.6558 17.733 20.4734 18.3936 20.4734C18.8804 20.4734 19.7149 20.7107 21.6621 22.541C23.8874 24.7104 24.2542 25.6835 25.5059 25.6835H28.7879C29.7257 25.6835 30.1945 25.2265 29.924 24.3245C29.6281 23.4256 28.5656 22.1212 27.1558 20.5751C26.3908 19.6938 25.2434 18.7448 24.8957 18.2702C24.4089 17.6601 24.548 17.3888 24.8957 16.8466C24.8957 16.8466 28.8943 11.3554 29.3116 9.49124C29.5202 8.81323 29.3116 8.31512 28.319 8.31512H25.037C24.2026 8.31512 23.8178 8.7455 23.6091 9.21993C23.6091 9.21993 21.9402 13.1858 19.5758 15.7619C18.8108 16.5075 18.4631 16.7448 18.0458 16.7448C17.8372 16.7448 17.5353 16.5075 17.5353 15.8297V9.49124C17.5353 8.67767 17.2931 8.31512 16.5976 8.31512H11.4401C10.9187 8.31512 10.605 8.69266 10.605 9.05054C10.605 9.8217 11.7872 9.99959 11.9091 12.1689V16.8805C11.9091 17.9135 11.7176 18.1008 11.3004 18.1008C10.1878 18.1008 7.48134 14.1172 5.87615 9.55898C5.56162 8.67301 5.24606 8.31512 4.40728 8.31512Z" fill="white"/>
</svg>
