<svg width="21" height="23" viewBox="0 0 21 23" fill="none" xmlns="http://www.w3.org/2000/svg">
<path d="M9.99041 1.35223C4.44433 1.61631 0.0676963 6.23512 0.084521 11.7875C0.0896437 13.4786 0.497907 15.0748 1.2181 16.4851L0.112345 21.8526C0.0525289 22.143 0.314392 22.3972 0.602822 22.3289L5.86233 21.0828C7.21358 21.7559 8.73132 22.1447 10.3376 22.1692C16.0062 22.2558 20.7329 17.7547 20.9095 12.0882C21.0989 6.01408 16.0858 1.06194 9.99041 1.35223ZM16.2661 17.5218C14.7258 19.0621 12.6779 19.9103 10.4996 19.9103C9.22416 19.9103 8.00303 19.6242 6.87005 19.0598L6.1376 18.6949L2.91298 19.4589L3.59174 16.164L3.23089 15.4573C2.64273 14.3055 2.34451 13.0599 2.34451 11.7552C2.34451 9.5769 3.19277 7.52901 4.73306 5.98867C6.25959 4.46214 8.34093 3.60006 10.4998 3.60006C12.678 3.60011 14.7259 4.44838 16.2662 5.98862C17.8065 7.52891 18.6547 9.5768 18.6548 11.7551C18.6547 13.914 17.7927 15.9953 16.2661 17.5218Z" fill="#ECE8DF"/>
<path d="M15.5548 14.0149L13.5374 13.4357C13.2721 13.3595 12.9865 13.4348 12.7933 13.6317L12.2999 14.1343C12.0919 14.3463 11.7762 14.4144 11.5009 14.303C10.5466 13.9168 8.53907 12.1318 8.02639 11.239C7.87848 10.9815 7.90294 10.6595 8.08455 10.4245L8.51526 9.86727C8.68401 9.64895 8.71962 9.35575 8.60802 9.10338L7.75926 7.1837C7.55595 6.72391 6.96839 6.59007 6.58454 6.91471C6.02149 7.39092 5.35342 8.11459 5.27221 8.9163C5.12902 10.3298 5.73522 12.1116 8.02755 14.2511C10.6758 16.7228 12.7965 17.0494 14.1773 16.7149C14.9605 16.5252 15.5864 15.7647 15.9814 15.142C16.2507 14.7175 16.038 14.1537 15.5548 14.0149Z" fill="#ECE8DF"/>
</svg>
