<svg width="16" height="16" viewBox="0 0 16 16" fill="none" xmlns="http://www.w3.org/2000/svg">
<g clip-path="url(#clip0_9032_155)">
<path d="M7.61183 0.00925298C3.38625 0.210451 0.0516711 3.72954 0.06449 7.95991C0.068393 9.24837 0.37945 10.4645 0.928173 11.5391L0.0856888 15.6286C0.0401151 15.8498 0.23963 16.0435 0.459386 15.9915L4.46663 15.0421C5.49615 15.5549 6.65252 15.8511 7.87636 15.8698C12.1953 15.9357 15.7966 12.5064 15.9312 8.18904C16.0755 3.56114 12.2559 -0.21192 7.61183 0.00925298ZM12.3933 12.3289C11.2198 13.5025 9.65944 14.1488 7.9998 14.1488C7.02802 14.1488 6.09764 13.9307 5.23442 13.5007L4.67636 13.2227L2.21951 13.8048L2.73666 11.2944L2.46172 10.756C2.0136 9.87837 1.78638 8.92936 1.78638 7.93534C1.78638 6.27567 2.43268 4.71537 3.60624 3.54178C4.7693 2.37871 6.35509 1.72189 7.99992 1.72189C9.65955 1.72192 11.2198 2.36822 12.3934 3.54174C13.5669 4.71529 14.2132 6.27559 14.2133 7.93523C14.2132 9.58009 13.5564 11.1659 12.3933 12.3289Z" fill="#83D65C"/>
<path d="M11.8514 9.65703L10.3143 9.21568C10.1122 9.15767 9.89458 9.21499 9.74734 9.36503L9.37146 9.74799C9.21297 9.90947 8.97247 9.96135 8.7627 9.87648C8.03558 9.58222 6.50605 8.22228 6.11544 7.54204C6.00275 7.34581 6.02138 7.1005 6.15975 6.92145L6.48791 6.4969C6.61648 6.33056 6.64361 6.10717 6.55859 5.91489L5.91191 4.45228C5.75701 4.10196 5.30934 3.99998 5.01688 4.24733C4.58789 4.61016 4.07889 5.16152 4.01701 5.77235C3.90792 6.84929 4.36978 8.20686 6.11632 9.83695C8.13404 11.7202 9.74983 11.969 10.8019 11.7141C11.3986 11.5696 11.8754 10.9902 12.1764 10.5158C12.3816 10.1923 12.2195 9.76276 11.8514 9.65703Z" fill="#83D65C"/>
</g>
<defs>
<clipPath id="clip0_9032_155">
<rect width="16" height="16" fill="white"/>
</clipPath>
</defs>
</svg>
