<svg width="157" height="116" viewBox="0 0 157 116" fill="none" xmlns="http://www.w3.org/2000/svg">
<path fill-rule="evenodd" clip-rule="evenodd" d="M146.124 21.3266C145.894 20.0385 144.734 18.3101 143.69 17.7003C141.153 16.2182 138.852 16.044 134.616 17.013C131.442 17.7391 130.727 18.3024 131.344 19.5914C131.727 20.3912 131.615 21.5434 130.344 29.8585C130.068 31.6622 129.861 33.3019 129.884 33.5027C129.952 34.0942 130.986 34.2068 131.81 33.7126C132.554 33.266 132.578 33.211 133.073 30.8383L133.576 28.4195L134.289 28.4557C136.338 28.5603 140.995 31.4008 144.908 34.9327C146.922 36.7505 148.525 37.6618 151.22 38.5208C153.283 39.1781 153.794 39.2735 154.105 39.0598C154.422 38.8433 154.375 38.6424 153.822 37.8407C152.98 36.6214 145.267 30.0286 142.969 28.5646C142.013 27.9551 141.249 27.4029 141.271 27.3375C141.294 27.272 141.945 27.0099 142.717 26.7551C144.544 26.1528 145.541 25.1747 145.975 23.5587C146.165 22.8492 146.228 21.9071 146.124 21.3266ZM136.374 19.1269C137.107 19.0518 137.928 18.9953 138.198 19.0018C139.157 19.0244 141.147 19.8526 141.61 20.4214C142.625 21.6689 142.366 22.4941 140.619 23.5862C139.632 24.2032 135.282 25.2516 134.535 25.0525C134.39 25.0139 134.334 24.488 134.411 23.8835C134.487 23.2788 134.601 22.2133 134.663 21.5151C134.858 19.3255 134.891 19.2793 136.374 19.1269Z" fill="#ECE8DF"/>
<path fill-rule="evenodd" clip-rule="evenodd" d="M118.704 13.689C117.522 12.696 115.58 11.6793 113.561 10.9959C112.627 10.68 111.617 10.3061 111.315 10.1652C110.812 9.93011 102.736 9.98241 101.971 10.2254C101.789 10.2834 101.549 10.6684 101.438 11.0811C101.261 11.7366 101.142 11.8262 100.489 11.7928C99.966 11.7662 99.6495 11.6169 99.4348 11.2958C99.1725 10.9031 98.9084 10.8165 97.6155 10.6976C95.5837 10.5111 94.692 10.9226 94.4089 12.1781C94.013 13.9326 95.208 16.9833 96.3987 17.2568C96.6766 17.3209 97.4625 17.3352 98.1454 17.2889C99.1125 17.223 99.5313 17.0507 100.04 16.5092C100.598 15.9155 100.846 15.8319 101.742 15.9366C102.703 16.0487 102.858 16.1498 103.597 17.1466C104.21 17.9736 104.546 18.2379 104.997 18.2477C105.356 18.2558 105.656 18.4025 105.754 18.6186C106.156 19.501 105.297 34.51 104.433 41.691C104.164 43.9266 105.337 45.8568 107.206 46.2562C108.543 46.5415 109.303 46.3002 110.114 45.3339C111.105 44.1535 111.235 42.6663 110.747 38.0814C110.51 35.8478 110.27 33.7928 110.214 33.5149C110.023 32.5664 109.368 23.9663 109.373 22.4741C109.379 20.7662 109.728 18.6459 110.048 18.3743C110.168 18.2727 111.082 18.1581 112.081 18.1199C113.979 18.0474 114.287 17.9293 114.484 17.1951C114.575 16.858 114.911 16.7327 115.857 16.6834C117.903 16.5763 119.708 17.2404 120.521 18.3984C120.935 18.9891 121.204 18.8093 121.024 18.0625C120.652 16.5202 119.508 14.3639 118.704 13.689ZM105.661 10.53C107.569 10.5046 109.472 10.4538 109.889 10.4172C110.307 10.3807 110.698 10.3555 110.76 10.3617C110.998 10.3851 112.648 11.6362 112.612 11.7658C112.591 11.8411 110.689 11.9919 108.385 12.1011C104.423 12.2889 104.19 12.33 104.07 12.8637C103.894 13.6479 103.854 14.7106 103.971 15.5323C103.997 15.7194 104.003 15.9007 103.989 16.0433C103.976 16.1917 103.942 16.2984 103.893 16.326C103.536 16.5241 103.169 15.6554 103.341 15.0198C103.611 14.0148 103.24 12.8831 102.441 12.2816C101.84 11.8284 101.761 11.6465 101.957 11.1584C102.179 10.6064 102.371 10.5738 105.661 10.53ZM108.175 12.6556C109.883 12.6191 111.73 12.5664 112.281 12.5388C113.576 12.4732 113.817 12.5295 113.952 12.9278C114.164 13.5545 114.027 17.3133 113.786 17.4586C113.38 17.7042 105.411 17.8211 104.927 17.5883C104.344 17.3084 104.191 13.077 104.756 12.849C104.929 12.7793 106.468 12.6922 108.175 12.6556ZM114.662 15.9896C114.498 15.6954 114.538 13.0556 114.707 12.961C114.878 12.8661 116.575 13.5195 117.913 14.1952C118.616 14.5504 119.103 15.0243 119.545 15.7827C120.177 16.8687 119.988 17.3795 119.214 16.6736C118.646 16.1549 117.895 16.0132 116.249 16.1138C115.442 16.1632 114.728 16.1073 114.662 15.9896ZM99.8595 12.3579C99.8808 12.2788 100.156 12.1858 100.471 12.1507C101.243 12.0649 102.578 12.4023 102.032 12.5449C101.498 12.684 99.8108 12.5388 99.8595 12.3579ZM94.8188 13.1752C94.782 12.1083 94.832 11.928 95.2698 11.5487C95.7362 11.1445 95.7929 11.1491 96.3419 11.6365C97.1025 12.3111 97.377 13.0718 97.4249 14.6361C97.4705 16.1322 97.0908 16.9818 96.4523 16.8115C95.8043 16.6387 94.8663 14.5508 94.8188 13.1752ZM100.343 12.8642C100.405 12.8296 100.819 12.814 101.263 12.8296C102.595 12.8763 102.826 12.9836 103.06 13.6624C103.391 14.6205 103.145 15.2207 102.393 15.2904C100.755 15.4417 100.68 15.397 100.448 14.1245C100.328 13.4661 100.281 12.8988 100.343 12.8642ZM97.8597 12.793C97.9505 12.6796 98.1645 12.6603 98.5647 12.615C98.9094 12.5761 99.3419 12.6062 99.5254 12.6813C100.039 12.8927 100.276 14.4781 99.9651 15.6322C99.706 16.5961 99.6295 16.674 98.8944 16.7218C98.4592 16.7501 98.0756 16.766 98.0426 16.7572C98.009 16.7483 98.0234 16.2946 98.0741 15.7492C98.1249 15.2039 98.0683 14.3172 97.9481 13.7793C97.8169 13.1901 97.7528 12.9264 97.8597 12.793Z" fill="#ECE8DF"/>
<path d="M79.3556 13.3424C80.5217 10.5037 81.7665 7.10232 82.1216 5.78355C82.4768 4.46457 82.6842 3.29956 82.5824 3.19466C82.4805 3.08971 82.1738 3.24358 81.9005 3.53669C80.7669 4.75252 77.1607 10.5193 74.878 14.7659C74.507 15.4562 73.3963 17.3124 72.4099 18.891L69.5916 23.4009C67.4495 26.83 64.6189 30.86 64.4454 30.7278C64.0123 30.3982 66.3087 23.6844 70.3364 13.5024C73.4336 5.67312 73.6786 4.71315 72.6863 4.29725C71.8174 3.93291 70.1097 5.18623 68.2167 7.57749C65.6773 10.7855 64.6132 12.4312 58.8373 22.0879C56.3396 26.2633 51.0088 34.051 38.8332 51.3121C37.9325 52.5893 36.9107 54.04 36.0314 55.2905C35.3103 56.3162 34.6849 57.2069 34.3003 57.7565C33.4475 58.9759 32.0161 60.962 31.12 62.1699C30.4869 63.0231 29.7225 64.059 29.1445 64.846C28.9042 65.1734 28.6962 65.4578 28.5433 65.6681C27.1761 67.5477 25.6835 69.4341 23.5823 71.9366C22.5678 73.1447 21.7105 74.2346 21.6772 74.3583C21.5761 74.7335 22.3039 74.7963 23.1704 74.4871C25.628 73.6103 31.3569 66.8795 40.7335 53.8516C48.2785 43.3687 50.0135 40.9778 51.2756 39.3237C53.2222 36.7723 59.6637 27.7435 59.7403 27.4591C59.7581 27.3929 59.8263 27.2936 59.9218 27.1871C60.0158 27.0825 60.1359 26.9712 60.2602 26.8777C60.6705 26.5693 60.6573 26.7106 60.1268 28.2911C59.3481 30.6116 57.413 35.5556 55.7191 39.5519C53.7958 44.0894 53.4578 44.869 53.6816 45.077C53.7332 45.1251 53.8151 45.1427 53.9143 45.1692C55.2994 45.5385 59.7032 42.3584 62.6902 38.8323C65.1932 35.8773 70.1093 28.4844 71.8809 25.0107C72.0562 24.6672 72.2902 24.4902 72.4365 24.5908C72.5755 24.6865 72.6231 24.8856 72.5422 25.0331C71.9606 26.093 71.0842 28.9307 69.3176 35.4732C67.6043 41.8183 67.2539 43.1016 67.7168 43.5088C67.8373 43.6147 68.0128 43.6613 68.2337 43.7223C69.0141 43.9378 69.5613 42.7493 70.6822 38.404C72.6105 30.9293 75.1781 23.51 79.3556 13.3424Z" fill="#ECE8DF"/>
<path fill-rule="evenodd" clip-rule="evenodd" d="M129.421 22.2396C129.959 21.0212 129.799 19.4257 129.078 18.8468C128.441 18.3353 127.403 18.0771 125.977 18.076C121.495 18.0725 116.755 22.5501 114.803 28.6298C114.065 30.9318 114.007 31.2969 114.192 32.4813C114.601 35.0971 116.685 36.1494 120.282 35.557C123.769 34.9826 126.906 32.9375 127.467 30.8733C127.921 29.2016 127.087 29.1484 124.346 30.6745C121.778 32.1036 119.121 32.2915 118.143 31.113C117.813 30.7161 118.102 30.5039 122.516 27.8963C127.409 25.0062 128.644 23.994 129.421 22.2396ZM121.189 23.2622C122.246 22.3198 122.959 21.9903 124.126 21.9063C125.272 21.8237 125.844 21.9374 125.949 22.2687C126.044 22.571 119.28 26.5283 119.059 26.2999C118.842 26.0766 120.193 24.1504 121.189 23.2622Z" fill="#ECE8DF"/>
<path d="M102.594 29.4501C103.347 28.6282 103.924 25.9996 103.636 24.6968C103.394 23.599 103.35 23.5517 102.248 23.2051C100.724 22.7256 99.2028 23.0665 96.4622 24.5017C93.8584 25.865 92.8722 26.9141 91.6339 29.6369C90.165 32.8665 89.8821 34.6202 90.7083 35.3741C90.9078 35.5558 92.1061 35.9809 93.371 36.3181C96.0521 37.033 96.376 37.2165 96.1883 37.9136C95.8203 39.2803 92.2856 40.4907 86.72 41.1556C83.1594 41.5809 74.8976 43.0525 71.6916 43.8322C69.4143 44.3862 65.1988 45.8324 64.9719 46.1375C64.6884 46.5187 65.3718 46.5521 68.0053 46.2865C69.0523 46.1808 72.1362 45.871 74.858 45.5981C82.1798 44.8636 90.4864 43.6107 93.5747 42.775C99.7588 41.1019 102.001 38.5696 100.518 34.9332C100.037 33.755 98.9574 32.8573 96.887 31.9146C94.7711 30.9512 94.2356 30.4923 94.4215 29.8019C94.703 28.7566 98.2437 27.3337 99.6383 27.7055C99.9659 27.7929 100.171 28.0557 100.214 28.4426C100.353 29.6817 101.814 30.3004 102.594 29.4501Z" fill="#ECE8DF"/>
<path fill-rule="evenodd" clip-rule="evenodd" d="M89.0463 26.8501C89.7341 25.8934 89.6587 25.0762 88.8248 24.4477C86.1201 22.41 81.2713 24.1243 77.658 28.3959C75.67 30.7457 74.9893 31.9865 74.2683 34.5728C73.5135 37.2809 73.4766 38.8508 74.1403 40.0507C74.5425 40.7781 74.7558 40.9209 75.8955 41.2247C77.6578 41.6946 78.67 41.5189 80.8431 40.3661C82.6661 39.3993 82.6974 39.3929 83.1668 39.9032C83.4285 40.1876 83.8357 40.472 84.0717 40.535C84.8929 40.7539 86.4989 39.3803 86.5639 38.4029C86.5727 38.2726 86.5703 37.9046 86.5593 37.4341C86.5506 37.0625 86.5367 36.6268 86.5191 36.1935C86.4523 34.5654 86.5397 34.1045 87.5104 30.9573C88.0958 29.059 88.787 27.211 89.0463 26.8501ZM79.7434 30.2883C81.1152 28.7168 82.5837 27.6461 83.8639 27.2837C85.3924 26.8507 85.3955 26.9146 84.0772 31.6877C83.6776 33.134 83.3144 34.4464 83.0844 35.2754C82.9345 35.8158 82.8411 36.151 82.831 36.1843C82.6946 36.6316 80.083 37.8027 79.1768 37.8224C78.2041 37.8436 78.1317 37.807 77.6951 37.0768C77.2559 36.3424 77.2626 36.2092 77.8527 34.0278C78.4345 31.8778 78.5426 31.6635 79.7434 30.2883Z" fill="#ECE8DF"/>
<path d="M135.815 48.3746C139.016 45.8169 141.911 43.2716 142.001 42.9352C142.154 42.369 141.741 42.2946 140.561 42.6756C138.684 43.2818 135.709 45.1032 132.935 47.3456C131.528 48.4831 130.267 49.4922 130.134 49.5882C128.964 50.4315 126.216 53.0856 123.634 55.8667C121.921 57.7119 120.415 59.2853 120.287 59.3633C119.879 59.6131 120.742 55.5886 121.795 52.3388C122.768 49.3337 122.794 49.1856 122.374 49.0736C121.384 48.8097 118.492 50.306 117.113 51.7959C116.453 52.5078 116.317 52.8486 115.925 54.761C115.248 58.0689 115.027 64.4879 115.51 66.8542C115.746 68.0111 116.194 68.1841 117.43 67.5968C118.198 67.2317 118.657 66.7765 119.323 65.7159C122.301 60.9758 129.444 53.4646 135.815 48.3746Z" fill="#ECE8DF"/>
<path d="M90.0675 56.4232C91.4738 52.3647 92.8116 47.2432 92.5876 46.7748C92.3015 46.177 91.9368 46.1215 91.1975 46.5636C89.7675 47.419 89.5264 47.9813 87.7332 54.6405C86.8092 58.0723 85.5732 63.3153 84.9868 66.292C84.4001 69.2688 83.747 72.1152 83.5351 72.6171C83.0176 73.8449 83.1933 74.7391 83.9938 74.9526C85.5117 75.3573 86.3542 73.9587 87.4129 69.2765C88.2307 65.6589 88.2407 65.6324 89.5009 63.7322C90.8223 61.7392 91.6253 60.8722 92.5914 60.3955C93.6046 59.8956 93.7377 60.5279 93.1902 63.2454C92.5016 66.6625 92.0358 71.55 92.2908 72.6807C92.5458 73.8116 93.1179 74.0629 94.1406 73.4934C95.2089 72.8987 95.4731 72.2094 95.5515 69.8135C95.6272 67.4959 96.0147 64.0266 96.6298 60.1581C96.8406 58.8333 96.9276 57.3585 96.8243 56.8618C96.661 56.0765 96.5202 55.9224 95.7093 55.6436C94.4442 55.2082 92.7602 55.8758 91.1773 57.4403C89.4527 59.1452 89.2034 58.9164 90.0675 56.4232Z" fill="#ECE8DF"/>
<path fill-rule="evenodd" clip-rule="evenodd" d="M110.95 61.0944C112.47 57.1381 112.749 54.4706 111.763 53.3307C111.052 52.5091 109.909 52.4101 107.919 52.9987C103.404 54.3342 98.964 59.4642 98.1127 64.3286C97.7732 66.2688 97.7102 67.7136 97.9247 68.6393C98.3079 70.2934 99.8245 71.8964 101.043 71.9352C104.906 72.0584 108.068 68.5989 110.95 61.0944ZM101.394 66.794C100.117 64.4627 103.01 58.6429 105.933 57.6641C107.992 56.9749 108.312 58.0008 107.259 61.9107C106.71 63.9488 106.411 64.6771 105.752 65.5783C104.089 67.8542 102.256 68.3657 101.394 66.794Z" fill="#ECE8DF"/>
<path d="M59.3734 53.2015C59.8958 52.0255 60.7658 49.6634 61.307 47.9526C61.9838 45.8116 62.225 44.7742 62.08 44.6244C61.9636 44.5046 61.7163 44.5652 61.53 44.7585C60.589 45.7346 58.6546 48.4916 57.6129 50.3406C56.9688 51.4842 55.5527 53.8508 54.4656 55.5998C53.3785 57.3489 51.8178 59.8923 50.9973 61.2518C49.6465 63.4904 45.2372 70.169 44.162 71.6054C43.2807 72.7827 43.4951 71.585 44.8533 67.7449C47.5506 60.1196 48.2087 58.4028 50.5209 52.9639C52.4281 48.4782 53.06 46.4396 52.7679 45.7171C52.5828 45.2593 52.5088 45.2608 51.4974 45.7408C50.0619 46.4228 49.1598 47.2664 47.3895 49.5832C45.6765 51.8247 41.5078 58.1337 39.3591 61.736C38.0753 63.8885 34.4109 69.3457 29.3484 76.6447C27.5284 79.2689 23.3626 85.0674 20.6246 88.7875C19.4917 90.327 17.9241 92.5098 17.1411 93.6384C12.9729 99.6445 5.65746 109.255 2.67731 112.639C1.66964 113.783 0.901726 114.814 0.970389 114.928C1.03902 115.043 1.52845 115.04 2.05815 114.922C3.08654 114.691 4.82954 113.37 6.8868 111.262C9.0058 109.091 14.9676 101.536 19.8729 94.8051C20.6754 93.7038 22.6011 91.0963 24.1519 89.0106C25.7027 86.9248 27.365 84.6776 27.8455 84.0165C28.3259 83.3554 29.1797 82.2381 29.7428 81.5332C31.2788 79.6108 37.2245 71.4972 38.534 69.5366C39.7075 67.7793 40.6307 67.1099 39.9609 68.5024C39.7714 68.8963 39.0914 70.526 38.4499 72.1245C37.3589 74.8439 36.6973 76.4394 34.2056 82.3642C32.9142 85.4349 32.7842 85.9313 33.2394 86.0526C33.7051 86.1768 36.6888 84.6098 37.8651 83.6231C38.3629 83.2055 38.8477 82.8307 38.9425 82.7902C39.3056 82.6349 41.2459 80.5767 42.3654 79.1589C43.0092 78.344 43.7534 77.4126 44.0195 77.0888C44.8282 76.1061 49.056 69.7226 50.2047 67.7499C50.7979 66.7317 51.4195 65.8913 51.586 65.8829C51.788 65.8725 51.8018 66.0308 51.6264 66.3587C50.9156 67.6891 48.3498 75.2621 46.9898 80.043C46.1719 82.9196 46.0733 83.4864 46.2847 84.1C46.5896 84.9853 47.0453 85.1262 47.7184 84.5432C48.1503 84.1689 48.5933 82.9059 50.3843 76.9434C51.5658 73.0104 52.6461 69.5537 52.7852 69.262C52.9245 68.9703 53.3434 67.8444 53.7167 66.76C54.3469 64.9284 57.161 58.1832 59.3734 53.2015Z" fill="#ECE8DF"/>
<path d="M75.2888 65.4568C75.2366 65.4429 76.0686 62.2007 77.1375 58.2519C78.9505 51.5546 79.0599 51.0373 78.7654 50.5458C78.4586 50.0327 78.4308 50.0267 77.7267 50.3158C76.3167 50.8953 75.9856 51.6707 73.5968 59.9834C72.3854 64.1983 70.6873 69.7961 69.8232 72.4225C68.1861 77.3969 68.114 77.8931 68.9933 78.1276C69.5724 78.282 71.2325 77.1902 71.7263 76.3309C71.9843 75.8814 72.4646 74.565 72.7939 73.4057C73.347 71.4572 73.4674 71.2313 74.3838 70.4216C74.5953 70.2346 74.8097 70.066 75.0014 69.9319C75.3039 69.7201 75.5497 69.5944 75.6382 69.6194C75.9341 69.7029 77.2586 72.9561 77.7568 74.8226C77.9362 75.4959 78.2035 76.1316 78.3506 76.2362C79.135 76.7925 80.8722 75.5264 81.2519 74.1217C81.4717 73.309 80.9891 70.6199 80.4331 69.5592C80.0815 68.8885 79.9182 68.5026 79.4541 67.2447L78.9971 66.0063L80.3857 64.3841C82.3309 62.1109 83.7984 60.1499 84.1821 59.3108C84.5639 58.4758 84.4491 57.2373 83.9573 56.8885C83.5726 56.6156 82.0381 57.4494 81.8862 58.0136C81.7145 58.6514 75.6072 65.5417 75.2888 65.4568Z" fill="#ECE8DF"/>
<path fill-rule="evenodd" clip-rule="evenodd" d="M69.0876 65.0494C69.573 63.9945 69.577 63.8848 69.1497 63.3321C68.0478 61.906 65.2511 62.0422 62.5752 63.652C60.1954 65.0837 57.0475 68.0197 55.7207 70.0447C52.0436 75.6566 51.5086 80.4975 54.5212 80.8955C56.0823 81.1018 58.1302 80.6118 60.0413 79.5748L61.8795 78.5775L62.6488 79.071C63.6394 79.7068 64.3009 79.5769 65.2399 78.5631C66.1128 77.6204 66.1867 77.3372 66.157 75.0456C66.1356 73.409 66.2444 72.8429 67.0649 70.3224C67.5775 68.7474 68.1256 67.1702 68.2829 66.8174C68.4403 66.4647 68.8025 65.6693 69.0876 65.0494ZM60.0028 69.1386C61.1311 67.8677 62.885 66.5926 63.9487 66.2699C65.2037 65.8894 65.49 66.0393 65.0784 66.8598C64.8888 67.2369 64.2052 69.2642 63.5587 71.3652L62.3835 75.1852L61.0753 76.007C60.2533 76.5235 59.3337 76.8696 58.5994 76.9387C57.4356 77.0478 57.4303 77.046 57.1407 76.4208C56.5485 75.1426 58.0382 71.3522 60.0028 69.1386Z" fill="#ECE8DF"/>
</svg>
