<svg width="159" height="166" viewBox="0 0 159 166" fill="none" xmlns="http://www.w3.org/2000/svg">
<path fill-rule="evenodd" clip-rule="evenodd" d="M146.124 39.3266C145.894 38.0385 144.734 36.3101 143.69 35.7003C141.153 34.2182 138.852 34.044 134.616 35.013C131.442 35.7391 130.727 36.3024 131.344 37.5914C131.727 38.3912 131.615 39.5434 130.344 47.8585C130.068 49.6622 129.861 51.3019 129.884 51.5027C129.952 52.0942 130.986 52.2068 131.81 51.7126C132.554 51.266 132.578 51.211 133.073 48.8383L133.576 46.4195L134.289 46.4557C136.338 46.5603 140.995 49.4008 144.908 52.9327C146.922 54.7505 148.525 55.6618 151.22 56.5208C153.283 57.1781 153.794 57.2735 154.105 57.0598C154.422 56.8433 154.375 56.6424 153.822 55.8407C152.98 54.6214 145.267 48.0286 142.969 46.5646C142.013 45.9551 141.249 45.4029 141.271 45.3375C141.294 45.272 141.945 45.0099 142.717 44.7551C144.544 44.1528 145.541 43.1747 145.975 41.5587C146.165 40.8492 146.228 39.9071 146.124 39.3266ZM136.374 37.1269C137.107 37.0518 137.928 36.9953 138.198 37.0018C139.157 37.0244 141.147 37.8526 141.61 38.4214C142.625 39.6689 142.366 40.4941 140.619 41.5862C139.632 42.2032 135.282 43.2516 134.535 43.0525C134.39 43.0139 134.334 42.488 134.411 41.8835C134.487 41.2788 134.601 40.2133 134.663 39.5151C134.858 37.3255 134.891 37.2793 136.374 37.1269Z" fill="#ECE8DF"/>
<path fill-rule="evenodd" clip-rule="evenodd" d="M118.704 31.689C117.522 30.696 115.58 29.6793 113.561 28.9959C112.627 28.68 111.617 28.3061 111.315 28.1652C110.812 27.9301 102.736 27.9824 101.971 28.2254C101.789 28.2834 101.549 28.6684 101.438 29.0811C101.261 29.7366 101.142 29.8262 100.489 29.7928C99.966 29.7662 99.6495 29.6169 99.4348 29.2958C99.1725 28.9031 98.9084 28.8165 97.6155 28.6976C95.5837 28.5111 94.692 28.9226 94.4089 30.1781C94.013 31.9326 95.208 34.9833 96.3987 35.2568C96.6766 35.3209 97.4625 35.3352 98.1454 35.2889C99.1125 35.223 99.5313 35.0507 100.04 34.5092C100.598 33.9155 100.846 33.8319 101.742 33.9366C102.703 34.0487 102.858 34.1498 103.597 35.1466C104.21 35.9736 104.546 36.2379 104.997 36.2477C105.356 36.2558 105.656 36.4025 105.754 36.6186C106.156 37.501 105.297 52.51 104.433 59.691C104.164 61.9266 105.337 63.8568 107.206 64.2562C108.543 64.5415 109.303 64.3002 110.114 63.3339C111.105 62.1535 111.235 60.6663 110.747 56.0814C110.51 53.8478 110.27 51.7928 110.214 51.5149C110.023 50.5664 109.368 41.9663 109.373 40.4741C109.379 38.7662 109.728 36.6459 110.048 36.3743C110.168 36.2727 111.082 36.1581 112.081 36.1199C113.979 36.0474 114.287 35.9293 114.484 35.1951C114.575 34.858 114.911 34.7327 115.857 34.6834C117.903 34.5763 119.708 35.2404 120.521 36.3984C120.935 36.9891 121.204 36.8093 121.024 36.0625C120.652 34.5202 119.508 32.3639 118.704 31.689ZM105.661 28.53C107.569 28.5046 109.472 28.4538 109.889 28.4172C110.307 28.3807 110.698 28.3555 110.76 28.3617C110.998 28.3851 112.648 29.6362 112.612 29.7658C112.591 29.8411 110.689 29.9919 108.385 30.1011C104.423 30.2889 104.19 30.33 104.07 30.8637C103.894 31.6479 103.854 32.7106 103.971 33.5323C103.997 33.7194 104.003 33.9007 103.989 34.0433C103.976 34.1917 103.942 34.2984 103.893 34.326C103.536 34.5241 103.169 33.6554 103.341 33.0198C103.611 32.0148 103.24 30.8831 102.441 30.2816C101.84 29.8284 101.761 29.6465 101.957 29.1584C102.179 28.6064 102.371 28.5738 105.661 28.53ZM108.175 30.6556C109.883 30.6191 111.73 30.5664 112.281 30.5388C113.576 30.4732 113.817 30.5295 113.952 30.9278C114.164 31.5545 114.027 35.3133 113.786 35.4586C113.38 35.7042 105.411 35.8211 104.927 35.5883C104.344 35.3084 104.191 31.077 104.756 30.849C104.929 30.7793 106.468 30.6922 108.175 30.6556ZM114.662 33.9896C114.498 33.6954 114.538 31.0556 114.707 30.961C114.878 30.8661 116.575 31.5195 117.913 32.1952C118.616 32.5504 119.103 33.0243 119.545 33.7827C120.177 34.8687 119.988 35.3795 119.214 34.6736C118.646 34.1549 117.895 34.0132 116.249 34.1138C115.442 34.1632 114.728 34.1073 114.662 33.9896ZM99.8595 30.3579C99.8808 30.2788 100.156 30.1858 100.471 30.1507C101.243 30.0649 102.578 30.4023 102.032 30.5449C101.498 30.684 99.8108 30.5388 99.8595 30.3579ZM94.8188 31.1752C94.782 30.1083 94.832 29.928 95.2698 29.5487C95.7362 29.1445 95.7929 29.1491 96.3419 29.6365C97.1025 30.3111 97.377 31.0718 97.4249 32.6361C97.4705 34.1322 97.0908 34.9818 96.4523 34.8115C95.8043 34.6387 94.8663 32.5508 94.8188 31.1752ZM100.343 30.8642C100.405 30.8296 100.819 30.814 101.263 30.8296C102.595 30.8763 102.826 30.9836 103.06 31.6624C103.391 32.6205 103.145 33.2207 102.393 33.2904C100.755 33.4417 100.68 33.397 100.448 32.1245C100.328 31.4661 100.281 30.8988 100.343 30.8642ZM97.8597 30.793C97.9505 30.6796 98.1645 30.6603 98.5647 30.615C98.9094 30.5761 99.3419 30.6062 99.5254 30.6813C100.039 30.8927 100.276 32.4781 99.9651 33.6322C99.706 34.5961 99.6295 34.674 98.8944 34.7218C98.4592 34.7501 98.0756 34.766 98.0426 34.7572C98.009 34.7483 98.0234 34.2946 98.0741 33.7492C98.1249 33.2039 98.0683 32.3172 97.9481 31.7793C97.8169 31.1901 97.7528 30.9264 97.8597 30.793Z" fill="#ECE8DF"/>
<path d="M79.3556 31.3424C80.5217 28.5037 81.7665 25.1023 82.1216 23.7836C82.4768 22.4646 82.6842 21.2996 82.5824 21.1947C82.4805 21.0897 82.1738 21.2436 81.9005 21.5367C80.7669 22.7525 77.1607 28.5193 74.878 32.7659C74.507 33.4562 73.3963 35.3124 72.4099 36.891L69.5916 41.4009C67.4495 44.83 64.6189 48.86 64.4454 48.7278C64.0123 48.3982 66.3087 41.6844 70.3364 31.5024C73.4336 23.6731 73.6786 22.7132 72.6863 22.2972C71.8174 21.9329 70.1097 23.1862 68.2167 25.5775C65.6773 28.7855 64.6132 30.4312 58.8373 40.0879C56.3396 44.2633 51.0088 52.051 38.8332 69.3121C37.9325 70.5893 36.9107 72.04 36.0314 73.2905C35.3103 74.3162 34.6849 75.2069 34.3003 75.7565C33.4475 76.9759 32.0161 78.962 31.12 80.1699C30.4869 81.0231 29.7225 82.059 29.1445 82.846C28.9042 83.1734 28.6962 83.4578 28.5433 83.6681C27.1761 85.5477 25.6835 87.4341 23.5823 89.9366C22.5678 91.1447 21.7105 92.2346 21.6772 92.3583C21.5761 92.7335 22.3039 92.7963 23.1704 92.4871C25.628 91.6103 31.3569 84.8795 40.7335 71.8516C48.2785 61.3687 50.0135 58.9778 51.2756 57.3237C53.2222 54.7723 59.6637 45.7435 59.7403 45.4591C59.7581 45.3929 59.8263 45.2936 59.9218 45.1871C60.0158 45.0825 60.1359 44.9712 60.2602 44.8777C60.6705 44.5693 60.6573 44.7106 60.1268 46.2911C59.3481 48.6116 57.413 53.5556 55.7191 57.5519C53.7958 62.0894 53.4578 62.869 53.6816 63.077C53.7332 63.1251 53.8151 63.1427 53.9143 63.1692C55.2994 63.5385 59.7032 60.3584 62.6902 56.8323C65.1932 53.8773 70.1093 46.4844 71.8809 43.0107C72.0562 42.6672 72.2902 42.4902 72.4365 42.5908C72.5755 42.6865 72.6231 42.8856 72.5422 43.0331C71.9606 44.093 71.0842 46.9307 69.3176 53.4732C67.6043 59.8183 67.2539 61.1016 67.7168 61.5088C67.8373 61.6147 68.0128 61.6613 68.2337 61.7223C69.0141 61.9378 69.5613 60.7493 70.6822 56.404C72.6105 48.9293 75.1781 41.51 79.3556 31.3424Z" fill="#ECE8DF"/>
<path fill-rule="evenodd" clip-rule="evenodd" d="M129.421 40.2396C129.959 39.0212 129.799 37.4257 129.078 36.8468C128.441 36.3353 127.403 36.0771 125.977 36.076C121.495 36.0725 116.755 40.5501 114.803 46.6298C114.065 48.9318 114.007 49.2969 114.192 50.4813C114.601 53.0971 116.685 54.1494 120.282 53.557C123.769 52.9826 126.906 50.9375 127.467 48.8733C127.921 47.2016 127.087 47.1484 124.346 48.6745C121.778 50.1036 119.121 50.2915 118.143 49.113C117.813 48.7161 118.102 48.5039 122.516 45.8963C127.409 43.0062 128.644 41.994 129.421 40.2396ZM121.189 41.2622C122.246 40.3198 122.959 39.9903 124.126 39.9063C125.272 39.8237 125.844 39.9374 125.949 40.2687C126.044 40.571 119.28 44.5283 119.059 44.2999C118.842 44.0766 120.193 42.1504 121.189 41.2622Z" fill="#ECE8DF"/>
<path d="M102.594 47.4501C103.347 46.6282 103.924 43.9996 103.636 42.6968C103.394 41.599 103.35 41.5517 102.248 41.2051C100.724 40.7256 99.2028 41.0665 96.4622 42.5017C93.8584 43.865 92.8722 44.9141 91.6339 47.6369C90.165 50.8665 89.8821 52.6202 90.7083 53.3741C90.9078 53.5558 92.1061 53.9809 93.371 54.3181C96.0521 55.033 96.376 55.2165 96.1883 55.9136C95.8203 57.2803 92.2856 58.4907 86.72 59.1556C83.1594 59.5809 74.8976 61.0525 71.6916 61.8322C69.4143 62.3862 65.1988 63.8324 64.9719 64.1375C64.6884 64.5187 65.3718 64.5521 68.0053 64.2865C69.0523 64.1808 72.1362 63.871 74.858 63.5981C82.1798 62.8636 90.4864 61.6107 93.5747 60.775C99.7588 59.1019 102.001 56.5696 100.518 52.9332C100.037 51.755 98.9574 50.8573 96.887 49.9146C94.7711 48.9512 94.2356 48.4923 94.4215 47.8019C94.703 46.7566 98.2437 45.3337 99.6383 45.7055C99.9659 45.7929 100.171 46.0557 100.214 46.4426C100.353 47.6817 101.814 48.3004 102.594 47.4501Z" fill="#ECE8DF"/>
<path fill-rule="evenodd" clip-rule="evenodd" d="M89.0463 44.8501C89.7341 43.8934 89.6587 43.0762 88.8248 42.4477C86.1201 40.41 81.2713 42.1243 77.658 46.3959C75.67 48.7457 74.9893 49.9865 74.2683 52.5728C73.5135 55.2809 73.4766 56.8508 74.1403 58.0507C74.5425 58.7781 74.7558 58.9209 75.8955 59.2247C77.6578 59.6946 78.67 59.5189 80.8431 58.3661C82.6661 57.3993 82.6974 57.3929 83.1668 57.9032C83.4285 58.1876 83.8357 58.472 84.0717 58.535C84.8929 58.7539 86.4989 57.3803 86.5639 56.4029C86.5727 56.2726 86.5703 55.9046 86.5593 55.4341C86.5506 55.0625 86.5367 54.6268 86.5191 54.1935C86.4523 52.5654 86.5397 52.1045 87.5104 48.9573C88.0958 47.059 88.787 45.211 89.0463 44.8501ZM79.7434 48.2883C81.1152 46.7168 82.5837 45.6461 83.8639 45.2837C85.3924 44.8507 85.3955 44.9146 84.0772 49.6877C83.6776 51.134 83.3144 52.4464 83.0844 53.2754C82.9345 53.8158 82.8411 54.151 82.831 54.1843C82.6946 54.6316 80.083 55.8027 79.1768 55.8224C78.2041 55.8436 78.1317 55.807 77.6951 55.0768C77.2559 54.3424 77.2626 54.2092 77.8527 52.0278C78.4345 49.8778 78.5426 49.6635 79.7434 48.2883Z" fill="#ECE8DF"/>
<path d="M135.815 66.3746C139.016 63.8169 141.911 61.2716 142.001 60.9352C142.154 60.369 141.741 60.2946 140.561 60.6756C138.684 61.2818 135.709 63.1032 132.935 65.3456C131.528 66.4831 130.267 67.4922 130.134 67.5882C128.964 68.4315 126.216 71.0856 123.634 73.8667C121.921 75.7119 120.415 77.2853 120.287 77.3633C119.879 77.6131 120.742 73.5886 121.795 70.3388C122.768 67.3337 122.794 67.1856 122.374 67.0736C121.384 66.8097 118.492 68.306 117.113 69.7959C116.453 70.5078 116.317 70.8486 115.925 72.761C115.248 76.0689 115.027 82.4879 115.51 84.8542C115.746 86.0111 116.194 86.1841 117.43 85.5968C118.198 85.2317 118.657 84.7765 119.323 83.7159C122.301 78.9758 129.444 71.4646 135.815 66.3746Z" fill="#ECE8DF"/>
<path d="M90.0675 74.4232C91.4738 70.3647 92.8116 65.2432 92.5876 64.7748C92.3015 64.177 91.9368 64.1215 91.1975 64.5636C89.7675 65.419 89.5264 65.9813 87.7332 72.6405C86.8092 76.0723 85.5732 81.3153 84.9868 84.292C84.4001 87.2688 83.747 90.1152 83.5351 90.6171C83.0176 91.8449 83.1933 92.7391 83.9938 92.9526C85.5117 93.3573 86.3542 91.9587 87.4129 87.2765C88.2307 83.6589 88.2407 83.6324 89.5009 81.7322C90.8223 79.7392 91.6253 78.8722 92.5914 78.3955C93.6046 77.8956 93.7377 78.5279 93.1902 81.2454C92.5016 84.6625 92.0358 89.55 92.2908 90.6807C92.5458 91.8116 93.1179 92.0629 94.1406 91.4934C95.2089 90.8987 95.4731 90.2094 95.5515 87.8135C95.6272 85.4959 96.0147 82.0266 96.6298 78.1581C96.8406 76.8333 96.9276 75.3585 96.8243 74.8618C96.661 74.0765 96.5202 73.9224 95.7093 73.6436C94.4442 73.2082 92.7602 73.8758 91.1773 75.4403C89.4527 77.1452 89.2034 76.9164 90.0675 74.4232Z" fill="#ECE8DF"/>
<path fill-rule="evenodd" clip-rule="evenodd" d="M110.95 79.0944C112.47 75.1381 112.749 72.4706 111.763 71.3307C111.052 70.5091 109.909 70.4101 107.919 70.9987C103.404 72.3342 98.964 77.4642 98.1127 82.3286C97.7732 84.2688 97.7102 85.7136 97.9247 86.6393C98.3079 88.2934 99.8245 89.8964 101.043 89.9352C104.906 90.0584 108.068 86.5989 110.95 79.0944ZM101.394 84.794C100.117 82.4627 103.01 76.6429 105.933 75.6641C107.992 74.9749 108.312 76.0008 107.259 79.9107C106.71 81.9488 106.411 82.6771 105.752 83.5783C104.089 85.8542 102.256 86.3657 101.394 84.794Z" fill="#ECE8DF"/>
<path d="M59.3734 71.2015C59.8958 70.0255 60.7658 67.6634 61.307 65.9526C61.9838 63.8116 62.225 62.7742 62.08 62.6244C61.9636 62.5046 61.7163 62.5652 61.53 62.7585C60.589 63.7346 58.6546 66.4916 57.6129 68.3406C56.9688 69.4842 55.5527 71.8508 54.4656 73.5998C53.3785 75.3489 51.8178 77.8923 50.9973 79.2518C49.6465 81.4904 45.2372 88.169 44.162 89.6054C43.2807 90.7827 43.4951 89.585 44.8533 85.7449C47.5506 78.1196 48.2087 76.4028 50.5209 70.9639C52.4281 66.4782 53.06 64.4396 52.7679 63.7171C52.5828 63.2593 52.5088 63.2608 51.4974 63.7408C50.0619 64.4228 49.1598 65.2664 47.3895 67.5832C45.6765 69.8247 41.5078 76.1337 39.3591 79.736C38.0753 81.8885 34.4109 87.3457 29.3484 94.6447C27.5284 97.2689 23.3626 103.067 20.6246 106.788C19.4917 108.327 17.9241 110.51 17.1411 111.638C12.9729 117.645 5.65746 127.255 2.67731 130.639C1.66964 131.783 0.901726 132.814 0.970389 132.928C1.03902 133.043 1.52845 133.04 2.05815 132.922C3.08654 132.691 4.82954 131.37 6.8868 129.262C9.0058 127.091 14.9676 119.536 19.8729 112.805C20.6754 111.704 22.6011 109.096 24.1519 107.011C25.7027 104.925 27.365 102.678 27.8455 102.017C28.3259 101.355 29.1797 100.238 29.7428 99.5332C31.2788 97.6108 37.2245 89.4972 38.534 87.5366C39.7075 85.7793 40.6307 85.1099 39.9609 86.5024C39.7714 86.8963 39.0914 88.526 38.4499 90.1245C37.3589 92.8439 36.6973 94.4394 34.2056 100.364C32.9142 103.435 32.7842 103.931 33.2394 104.053C33.7051 104.177 36.6888 102.61 37.8651 101.623C38.3629 101.205 38.8477 100.831 38.9425 100.79C39.3056 100.635 41.2459 98.5767 42.3654 97.1589C43.0092 96.344 43.7534 95.4126 44.0195 95.0888C44.8282 94.1061 49.056 87.7226 50.2047 85.7499C50.7979 84.7317 51.4195 83.8913 51.586 83.8829C51.788 83.8725 51.8018 84.0308 51.6264 84.3587C50.9156 85.6891 48.3498 93.2621 46.9898 98.043C46.1719 100.92 46.0733 101.486 46.2847 102.1C46.5896 102.985 47.0453 103.126 47.7184 102.543C48.1503 102.169 48.5933 100.906 50.3843 94.9434C51.5658 91.0104 52.6461 87.5537 52.7852 87.262C52.9245 86.9703 53.3434 85.8444 53.7167 84.76C54.3469 82.9284 57.161 76.1832 59.3734 71.2015Z" fill="#ECE8DF"/>
<path d="M75.2888 83.4568C75.2366 83.4429 76.0686 80.2007 77.1375 76.2519C78.9505 69.5546 79.0599 69.0373 78.7654 68.5458C78.4586 68.0327 78.4308 68.0267 77.7267 68.3158C76.3167 68.8953 75.9856 69.6707 73.5968 77.9834C72.3854 82.1983 70.6873 87.7961 69.8232 90.4225C68.1861 95.3969 68.114 95.8931 68.9933 96.1276C69.5724 96.282 71.2325 95.1902 71.7263 94.3309C71.9843 93.8814 72.4646 92.565 72.7939 91.4057C73.347 89.4572 73.4674 89.2313 74.3838 88.4216C74.5953 88.2346 74.8097 88.066 75.0014 87.9319C75.3039 87.7201 75.5497 87.5944 75.6382 87.6194C75.9341 87.7029 77.2586 90.9561 77.7568 92.8226C77.9362 93.4959 78.2035 94.1316 78.3506 94.2362C79.135 94.7925 80.8722 93.5264 81.2519 92.1217C81.4717 91.309 80.9891 88.6199 80.4331 87.5592C80.0815 86.8885 79.9182 86.5026 79.4541 85.2447L78.9971 84.0063L80.3857 82.3841C82.3309 80.1109 83.7984 78.1499 84.1821 77.3108C84.5639 76.4758 84.4491 75.2373 83.9573 74.8885C83.5726 74.6156 82.0381 75.4494 81.8862 76.0136C81.7145 76.6514 75.6072 83.5417 75.2888 83.4568Z" fill="#ECE8DF"/>
<path fill-rule="evenodd" clip-rule="evenodd" d="M69.0876 83.0494C69.573 81.9945 69.577 81.8848 69.1497 81.3321C68.0478 79.906 65.2511 80.0422 62.5752 81.652C60.1954 83.0837 57.0475 86.0197 55.7207 88.0447C52.0436 93.6566 51.5086 98.4975 54.5212 98.8955C56.0823 99.1018 58.1302 98.6118 60.0413 97.5748L61.8795 96.5775L62.6488 97.071C63.6394 97.7068 64.3009 97.5769 65.2399 96.5631C66.1128 95.6204 66.1867 95.3372 66.157 93.0456C66.1356 91.409 66.2444 90.8429 67.0649 88.3224C67.5775 86.7474 68.1256 85.1702 68.2829 84.8174C68.4403 84.4647 68.8025 83.6693 69.0876 83.0494ZM60.0028 87.1386C61.1311 85.8677 62.885 84.5926 63.9487 84.2699C65.2037 83.8894 65.49 84.0393 65.0784 84.8598C64.8888 85.2369 64.2052 87.2642 63.5587 89.3652L62.3835 93.1852L61.0753 94.007C60.2533 94.5235 59.3337 94.8696 58.5994 94.9387C57.4356 95.0478 57.4303 95.046 57.1407 94.4208C56.5485 93.1426 58.0382 89.3522 60.0028 87.1386Z" fill="#ECE8DF"/>
</svg>
