<svg width="89" height="101" viewBox="0 0 89 101" fill="none" xmlns="http://www.w3.org/2000/svg">
<path d="M51.5353 0.463128C51.3711 0.432077 50.1617 0.306561 48.8478 0.184397C46.5677 -0.0277123 46.1351 -0.0389374 44.07 0.0604845C43.2607 0.0994077 40.6939 0.342423 39.3713 0.505259C38.4895 0.613865 36.664 1.01141 35.3357 1.38402C31.2162 2.54005 27.7322 4.12774 24.1378 6.48719C14.9968 12.4878 8.77085 22.3712 6.80874 33.9964C6.46595 36.028 6.17157 40.8892 6.28909 42.5799C6.33458 43.2368 6.40661 44.3115 6.44904 44.9684C6.57283 46.8857 7.21262 50.9684 7.36543 50.8155C7.39678 50.7841 7.31833 50.094 7.19119 49.2816C6.8694 47.2262 6.74342 42.6769 6.9474 40.4778C7.23099 37.4177 8.05509 33.3723 8.87612 31.0091C11.9242 22.2361 17.3451 15.156 24.9019 10.0785C27.5399 8.30594 30.9306 6.55264 33.2454 5.76383C33.6971 5.60989 34.201 5.4195 34.3652 5.34078C34.7592 5.1517 37.5213 4.37848 38.8565 4.08372C50.1891 1.58009 62.0876 4.03605 71.4197 10.8048C73.2097 12.1029 73.3918 12.2516 74.8689 13.6199C79.1284 17.5654 81.9929 21.4296 84.418 26.5013C85.7041 29.1909 87.2015 33.6085 87.538 35.7063C87.5782 35.9563 87.6353 36.2954 87.6647 36.4595C88.1163 38.9782 88.2552 40.7826 88.2503 44.0727C88.2455 47.2064 88.1937 47.9904 87.8368 50.3283C87.6125 51.7983 87.3738 53.1083 87.3065 53.2392C87.239 53.3701 87.1389 53.7266 87.084 54.0312C86.9597 54.7195 85.749 58.3898 85.2477 59.5977C84.1588 62.2213 82.3053 65.4968 80.6338 67.7512C78.9973 69.9583 78.2092 70.8719 76.3325 72.7371C71.7049 77.3362 66.5574 80.5 60.419 82.5173C57.2395 83.5623 55.6307 83.9203 52.3855 84.3049C46.987 84.945 41.3365 84.513 36.5301 83.093C32.6165 81.9366 29.4797 80.5772 26.4893 78.7414C25.8119 78.3254 25.229 77.981 24.9945 77.8556C24.9234 77.8176 24.8843 77.7997 24.8843 77.8061C24.8843 77.9049 26.329 78.8812 27.7958 79.7738C32.8901 82.8735 36.9056 84.3976 42.9007 85.5066C45.0036 85.8955 45.9186 85.9848 48.5072 86.0528C52.8509 86.1673 55.6271 85.8318 60.0422 84.6584C65.5916 83.1837 71.2295 80.0503 75.8374 75.8795C80.099 72.0221 83.7575 66.6129 85.991 60.8666C88.4853 54.4495 89.538 46.6925 88.7351 40.6469C87.9859 35.0067 87.412 32.7028 85.6277 28.1746C81.1823 16.893 72.2109 7.68462 61.2835 3.18702C58.6288 2.09426 54.5778 0.901051 52.5804 0.623486C52.1699 0.566341 51.6995 0.494325 51.5353 0.463128Z" fill="white"/>
<path fill-rule="evenodd" clip-rule="evenodd" d="M72.5327 18.3968C72.1839 17.631 71.201 16.7453 70.4704 16.5384C68.6951 16.0356 67.2754 16.3098 64.8725 17.6195C63.0715 18.6011 62.731 19.0716 63.3138 19.7736C63.6755 20.209 63.7953 20.9469 64.3804 26.3487C64.5072 27.5205 64.6492 28.5784 64.696 28.6998C64.8334 29.0577 65.4768 28.9559 65.8941 28.5104C66.2715 28.1078 66.2772 28.0695 66.1898 26.5061L66.1007 24.9124L66.5373 24.8165C67.7934 24.5407 71.0718 25.5386 74.0126 27.092C75.5261 27.8915 76.6438 28.1935 78.4132 28.2811C79.7676 28.348 80.0917 28.3227 80.2454 28.1374C80.4014 27.9496 80.3404 27.832 79.8753 27.4237C79.168 26.8026 73.4311 23.9711 71.8035 23.4398C71.1259 23.2185 70.5741 23.001 70.5771 22.9564C70.58 22.9118 70.9309 22.6399 71.3565 22.3523C72.3633 21.6722 72.8066 20.8958 72.8056 19.815C72.805 19.3405 72.6899 18.7419 72.5327 18.3968ZM66.2792 18.6465C66.7104 18.4776 67.1975 18.3057 67.3617 18.2649C67.945 18.1194 69.2832 18.3051 69.6556 18.5831C70.4724 19.1929 70.4507 19.751 69.5718 20.7235C69.0753 21.2729 66.616 22.6513 66.1321 22.6513C66.0383 22.6513 65.9189 22.3323 65.8669 21.9422C65.8145 21.5521 65.7097 20.8681 65.6336 20.422C65.395 19.0228 65.4076 18.9884 66.2792 18.6465Z" fill="white"/>
<path fill-rule="evenodd" clip-rule="evenodd" d="M54.7104 18.193C53.8338 17.77 52.4941 17.4586 51.162 17.368C50.5462 17.3262 49.8743 17.261 49.669 17.2233C49.3263 17.1603 44.4519 18.5371 44.0289 18.8161C43.9283 18.8826 43.8461 19.1627 43.8461 19.4389C43.8461 19.8774 43.7885 19.9532 43.3881 20.0411C43.0676 20.1115 42.852 20.071 42.6699 19.9062C42.4474 19.7048 42.2736 19.6947 41.4725 19.8357C40.2136 20.0574 39.7415 20.4627 39.7747 21.2935C39.821 22.4545 41.0402 24.1598 41.8047 24.1324C41.9831 24.1261 42.4606 24.0042 42.866 23.8617C43.44 23.6596 43.6651 23.4823 43.8844 23.0597C44.125 22.5963 44.2618 22.5027 44.8202 22.419C45.4195 22.3291 45.5297 22.3664 46.139 22.8656C46.6444 23.2797 46.8905 23.3888 47.1649 23.3198C47.3832 23.2651 47.5883 23.3068 47.683 23.4253C48.0696 23.9092 49.9936 33.4207 50.6405 38.0468C50.842 39.4869 51.8653 40.4966 53.0606 40.4348C53.915 40.3905 54.3357 40.1132 54.6687 39.3751C55.0753 38.4735 54.9117 37.5236 53.8705 34.7428C53.3636 33.3881 52.8839 32.1453 52.8048 31.9812C52.535 31.4209 50.7389 26.1618 50.4989 25.2295C50.2244 24.1626 50.0901 22.781 50.2392 22.5582C50.2952 22.4749 50.8296 22.2511 51.4268 22.0611C52.5631 21.6999 52.7297 21.575 52.7297 21.0838C52.7297 20.8583 52.9123 20.7242 53.4763 20.536C54.6962 20.1285 55.8956 20.2427 56.5752 20.8303C56.922 21.13 57.0554 20.973 56.8249 20.5369C56.3488 19.6361 55.3063 18.4805 54.7104 18.193ZM46.3096 18.392C47.4593 18.0586 48.6014 17.7102 48.8478 17.6179C49.0942 17.5256 49.3271 17.4447 49.3654 17.4383C49.5128 17.4134 50.7141 17.9197 50.7135 18.0066C50.7133 18.057 49.5879 18.4677 48.2127 18.9193C45.8473 19.696 45.7131 19.7604 45.7274 20.1135C45.7487 20.6324 45.8979 21.3022 46.1023 21.7957C46.1488 21.9081 46.1815 22.0203 46.1966 22.1116C46.2125 22.2065 46.2096 22.2786 46.1841 22.3042C46.0009 22.4871 45.6377 22.0059 45.6377 21.5807C45.6377 20.9083 45.2288 20.2638 44.648 20.0212C44.2106 19.8384 44.1335 19.738 44.1727 19.4007C44.217 19.0192 44.3275 18.967 46.3096 18.392ZM48.1759 19.3004C49.2024 18.9933 50.311 18.653 50.6395 18.5441C51.4117 18.2876 51.5667 18.2827 51.7132 18.5088C51.9436 18.8646 52.4724 21.2337 52.3505 21.3645C52.1446 21.5855 47.3457 22.9847 47.015 22.9199C46.617 22.8422 45.8356 20.2265 46.1399 19.9902C46.2332 19.9179 47.1495 19.6074 48.1759 19.3004ZM52.6411 20.3017C52.4938 20.1454 52.0879 18.4911 52.1753 18.4038C52.2629 18.3162 53.3955 18.4416 54.3142 18.6407C54.7973 18.7454 55.1689 18.9601 55.5596 19.36C56.1187 19.9326 56.0874 20.2829 55.5047 19.9711C55.0765 19.7419 54.5997 19.7784 53.6208 20.1151C53.1408 20.2803 52.6999 20.3643 52.6411 20.3017ZM43.0996 20.4985C43.0996 20.4456 43.2506 20.3418 43.4355 20.2675C43.8884 20.0854 44.7507 20.0737 44.4433 20.2538C44.1432 20.4294 43.0996 20.6195 43.0996 20.4985ZM40.1849 21.8476C39.9889 21.1878 39.9898 21.0669 40.1928 20.7573C40.409 20.4274 40.444 20.4208 40.8553 20.6337C41.425 20.9281 41.7148 21.3573 41.9984 22.3257C42.2696 23.252 42.1784 23.8455 41.7646 23.8455C41.3446 23.8455 40.4376 22.6983 40.1849 21.8476ZM43.4743 20.7341C43.5062 20.7022 43.7541 20.6235 44.0251 20.5593C44.8377 20.3669 44.9952 20.3953 45.2473 20.78C45.6032 21.3231 45.552 21.7387 45.1086 21.9073C44.1428 22.2744 44.0905 22.259 43.743 21.5032C43.5634 21.1123 43.4423 20.766 43.4743 20.7341ZM41.9613 21.1029C41.9977 21.0171 42.124 20.9694 42.3586 20.8745C42.5607 20.7929 42.827 20.7396 42.9503 20.756C43.2952 20.8025 43.6963 21.7527 43.6965 22.5247C43.6968 23.1695 43.6632 23.2309 43.2266 23.3831C42.968 23.4732 42.7387 23.5469 42.7173 23.5469C42.6955 23.5469 42.6304 23.2613 42.5722 22.9125C42.5141 22.5636 42.3355 22.0196 42.1753 21.7038C42 21.3579 41.9184 21.204 41.9613 21.1029Z" fill="white"/>
<path d="M30.8626 24.5255C31.1056 22.5596 31.3044 20.2293 31.3044 19.347C31.3044 18.4646 31.2401 17.7029 31.1615 17.6544C31.0828 17.6058 30.9224 17.7529 30.8049 17.9813C30.3175 18.9289 29.0759 23.1287 28.3871 26.1593C28.2752 26.6519 27.9058 27.9954 27.5664 29.1449L26.5967 32.429C25.8597 34.9259 24.8044 37.9125 24.678 37.8589C24.3625 37.7252 24.6579 33.1524 25.4355 26.1265C26.0334 20.724 26.0252 20.0841 25.3576 19.9896C24.7729 19.9068 23.9444 20.9733 23.1892 22.781C22.1761 25.2061 21.8007 26.4103 19.8805 33.3993C19.0502 36.4212 17.0949 42.1694 12.5434 54.9701C12.2068 55.9172 11.8252 56.9928 11.4971 57.9196C11.2281 58.6799 10.995 59.34 10.8519 59.747C10.5348 60.6501 9.99271 62.128 9.64758 63.0311C9.40365 63.669 9.11014 64.4428 8.88881 65.0303C8.79681 65.2747 8.71734 65.4868 8.65916 65.6435C8.13849 67.0443 7.54317 68.4702 6.68014 70.3819C6.26343 71.3048 5.92253 72.1278 5.92253 72.2106C5.92253 72.4616 6.37278 72.3797 6.84636 72.0425C8.18952 71.0862 10.5576 65.9314 14.1059 56.2389C16.9611 48.4399 17.6208 46.6587 18.1147 45.4162C18.8762 43.4997 21.301 36.7919 21.301 36.6017C21.301 36.5573 21.3261 36.484 21.3664 36.4016C21.4062 36.3207 21.4608 36.2312 21.5207 36.1522C21.7186 35.8914 21.7336 35.9818 21.6702 37.0566C21.5771 38.6347 21.212 42.0427 20.8385 44.8191C20.4143 47.9715 20.3369 48.5143 20.506 48.6069C20.5451 48.6284 20.5975 48.6257 20.6618 48.6257C21.5593 48.6257 23.7043 45.9078 24.9362 43.2097C25.9685 40.9487 27.7373 35.5159 28.2429 33.0528C28.293 32.8092 28.4057 32.6598 28.5105 32.6983C28.6101 32.7348 28.6713 32.8512 28.6464 32.9567C28.4673 33.7151 28.3994 35.6322 28.3965 40.01C28.3936 44.2557 28.3906 45.1151 28.7368 45.2922C28.8269 45.3382 28.9406 45.3381 29.0841 45.3394C29.5911 45.3441 29.7284 44.5111 29.6987 41.6123C29.6476 36.6257 29.9922 31.5673 30.8626 24.5255Z" fill="white"/>
<path fill-rule="evenodd" clip-rule="evenodd" d="M62.5819 21.7467C62.7093 20.8965 62.3522 19.9274 61.8224 19.6859C61.3539 19.4727 60.684 19.4843 59.8218 19.7209C57.1112 20.4647 54.9741 24.0486 54.7843 28.1681C54.7124 29.728 54.7369 29.9655 55.0416 30.674C55.715 32.2386 57.1461 32.5487 59.2245 31.5803C61.2396 30.6413 62.8033 28.8427 62.8065 27.4608C62.8089 26.3418 62.2956 26.4475 60.8866 27.8563C59.567 29.1756 57.991 29.7351 57.2076 29.1624C56.9437 28.9695 57.0837 28.789 59.3282 26.4267C61.8161 23.8083 62.3981 22.971 62.5819 21.7467ZM57.7713 23.755C58.2571 22.9908 58.6346 22.6664 59.3266 22.4198C60.0061 22.1775 60.3703 22.1533 60.4875 22.3426C60.5942 22.5155 57.149 26.1113 56.9778 26.0057C56.8106 25.9023 57.3137 24.4751 57.7713 23.755Z" fill="white"/>
<path d="M47.5354 30.7123C47.8574 30.0738 47.778 28.3371 47.3921 27.5718C47.0669 26.9268 47.0324 26.9047 46.3096 26.8717C45.3101 26.8261 44.4459 27.292 43.0226 28.644C41.6702 29.9283 41.2448 30.7473 40.9393 32.6529C40.577 34.9132 40.6914 36.055 41.3137 36.3881C41.4639 36.4683 42.2577 36.5342 43.0774 36.5342C44.8148 36.5342 45.0405 36.5948 45.0405 37.0612C45.0405 37.9755 43.1004 39.3193 39.8436 40.6606C37.76 41.5187 33.0042 43.8122 31.1927 44.8325C29.906 45.5574 27.5927 47.1617 27.5052 47.3898C27.3958 47.675 27.8144 47.5821 29.3635 46.978C29.9794 46.7377 31.7935 46.0311 33.3947 45.4078C37.7021 43.7307 42.5206 41.5662 44.2517 40.5306C47.7184 38.457 48.6618 36.5033 47.1729 34.4803C46.6906 33.8248 45.8916 33.4442 44.4863 33.2003C43.0501 32.9512 42.6516 32.7538 42.6516 32.292C42.6516 31.5927 44.5608 30.1152 45.4645 30.1152C45.6768 30.1152 45.8438 30.2451 45.9329 30.4793C46.2182 31.2298 47.2024 31.3728 47.5354 30.7123Z" fill="white"/>
<path fill-rule="evenodd" clip-rule="evenodd" d="M38.9211 31.3441C39.1812 30.6324 39.0026 30.1349 38.396 29.8814C36.4289 29.0596 33.7763 30.9367 32.287 34.2043C31.4676 36.0019 31.2581 36.8897 31.2432 38.6241C31.2277 40.44 31.461 41.4261 32.0577 42.0646C32.4193 42.4517 32.5715 42.5053 33.31 42.5053C34.4521 42.5053 35.0355 42.2272 36.1617 41.1459C37.1065 40.239 37.1244 40.2298 37.4913 40.4702C37.6958 40.6042 37.9883 40.714 38.1413 40.714C38.6735 40.714 39.4209 39.5893 39.301 38.9684C39.2851 38.8856 39.2237 38.6563 39.1405 38.3644C39.0747 38.134 38.9954 37.8643 38.9142 37.5968C38.6087 36.5916 38.5866 36.2894 38.6611 34.1633C38.706 32.8811 38.8231 31.6125 38.9211 31.3441ZM33.856 35.0385C34.4296 33.8292 35.1432 32.9165 35.8582 32.4773C36.7119 31.9526 36.7242 31.992 36.7042 35.1907C36.6981 36.1599 36.6921 37.0396 36.688 37.5953C36.6854 37.9576 36.6835 38.1824 36.6828 38.2048C36.6732 38.5067 35.2848 39.6724 34.7401 39.8355C34.1554 40.0106 34.1057 39.9998 33.7228 39.6167C33.3377 39.2314 33.3201 39.1471 33.3217 37.6873C33.3234 36.2484 33.3539 36.0967 33.856 35.0385Z" fill="white"/>
<path d="M70.703 36.9957C72.222 34.8664 73.5578 32.7959 73.5578 32.5708C73.5578 32.1921 73.2964 32.2143 72.6448 32.6485C71.6087 33.3393 70.1066 34.9713 68.7942 36.8327C68.1285 37.7769 67.5307 38.6166 67.4658 38.6987C66.8954 39.4199 65.6661 41.5338 64.5577 43.6995C63.8225 45.1363 63.1681 46.3691 63.1037 46.439C62.8972 46.6629 62.7643 44.0071 62.8713 41.8035C62.9704 39.7658 62.9623 39.669 62.6899 39.669C62.0485 39.669 60.5438 41.0842 59.9521 42.2439C59.6692 42.798 59.6423 43.0335 59.7169 44.2923C59.8458 46.4698 60.7577 50.5131 61.4348 51.9099C61.7659 52.5927 62.0645 52.6262 62.7163 52.0539C63.1216 51.698 63.3246 51.3377 63.5548 50.5647C64.5838 47.1103 67.6798 41.2331 70.703 36.9957Z" fill="white"/>
<path d="M44.3532 49.6334C44.5427 46.866 44.5178 43.4466 44.3061 43.1915C44.0358 42.866 43.8063 42.8921 43.4313 43.2911C42.7059 44.063 42.6516 44.4541 42.6516 48.9091C42.6516 51.205 42.7579 54.6833 42.888 56.639C43.0179 58.5947 43.0864 60.4801 43.0401 60.8287C42.9271 61.6812 43.1789 62.2101 43.6977 62.2101C44.6813 62.2101 44.963 61.1969 44.8408 58.0981C44.7463 55.7039 44.748 55.6857 45.2006 54.2899C45.6751 52.8259 46.0195 52.1511 46.526 51.6928C47.0572 51.2122 47.2406 51.5846 47.352 53.372C47.492 55.6195 48.0061 58.7478 48.3443 59.4111C48.6826 60.0745 49.0694 60.1362 49.5951 59.6105C50.1442 59.0615 50.1917 58.5873 49.8491 57.0788C49.5175 55.6195 49.187 53.3895 48.929 50.8725C48.8408 50.0105 48.6533 49.0755 48.51 48.7826C48.2834 48.3196 48.1732 48.2468 47.6375 48.2078C46.8017 48.1465 45.8922 48.8435 45.1898 50.0835C44.4246 51.4348 44.2367 51.3334 44.3532 49.6334Z" fill="white"/>
<path fill-rule="evenodd" clip-rule="evenodd" d="M57.7399 49.0736C58.0148 46.3511 57.7493 44.6397 56.9675 44.0923C56.4041 43.6976 55.6963 43.8262 54.5891 44.5248C52.0767 46.1099 50.2274 50.0509 50.5046 53.2289C50.6153 54.4964 50.8124 55.4087 51.0928 55.9509C51.5938 56.9196 52.7717 57.6677 53.5148 57.4891C55.8706 56.9231 57.219 54.2375 57.7399 49.0736ZM52.8901 54.2216C51.7384 52.979 52.5402 48.8648 54.1482 47.7674C55.2805 46.9946 55.6412 47.5817 55.6412 50.1974C55.6412 51.5609 55.5788 52.0653 55.3271 52.7374C54.692 54.4349 53.6668 55.0593 52.8901 54.2216Z" fill="white"/>
<path d="M25.2703 52.7309C25.3946 51.9099 25.5361 50.2907 25.5848 49.1327C25.6454 47.6837 25.6224 46.9961 25.5103 46.9267C25.4204 46.8713 25.2808 46.9503 25.1995 47.1019C24.7895 47.8678 24.0688 49.9106 23.74 51.2381C23.5368 52.0591 23.0658 53.772 22.6933 55.0447C22.3207 56.3174 21.7912 58.1647 21.5165 59.1499C21.0642 60.772 19.4855 65.6745 19.0693 66.7501C18.7281 67.6316 18.6628 66.8484 18.8587 64.2253C19.2482 59.0168 19.3666 57.8357 19.8791 54.0559C20.3019 50.9385 20.3521 49.5609 20.0578 49.1586C19.8714 48.9036 19.8269 48.9168 19.2935 49.3848C18.5366 50.0494 18.1285 50.7261 17.4354 52.4669C16.7645 54.1511 15.2712 58.7829 14.5585 61.389C14.1327 62.9463 12.8056 66.9625 10.933 72.361C10.2598 74.3019 8.68512 78.6146 7.63531 81.3924C7.20096 82.5418 6.60855 84.1652 6.31883 85C4.7765 89.4427 1.91797 96.6588 0.667102 99.2673C0.244119 100.149 -0.0524508 100.92 0.00776703 100.98C0.0679849 101.041 0.363388 100.957 0.664331 100.795C1.24858 100.48 2.0874 99.3653 2.98804 97.707C3.9158 95.9993 6.2904 90.2911 8.16051 85.2736C8.46641 84.4526 9.20623 82.5045 9.80433 80.9445C10.4024 79.3845 11.0416 77.7052 11.2245 77.2126C11.4073 76.72 11.7416 75.8804 11.9674 75.3467C12.5831 73.8911 14.8571 67.8372 15.3296 66.3954C15.7531 65.1032 16.2023 64.5318 16.024 65.5124C15.9735 65.7898 15.8277 66.9202 15.7001 68.0248C15.4832 69.9037 15.3429 71.0098 14.801 75.1227C14.5201 77.2543 14.5223 77.5858 14.8173 77.5858C15.1191 77.5858 16.668 76.1111 17.2186 75.2994C17.4516 74.9559 17.6837 74.6412 17.7344 74.6002C17.9286 74.4428 18.7667 72.8352 19.2127 71.7639C19.4694 71.1481 19.7677 70.4428 19.8759 70.1965C20.2048 69.4485 21.7218 64.7603 22.0952 63.3378C22.2881 62.6035 22.5271 61.9755 22.6264 61.9426C22.7468 61.9025 22.7809 61.999 22.7283 62.2328C22.5151 63.1816 22.1967 68.3356 22.1528 71.5461C22.1265 73.4778 22.1592 73.848 22.3869 74.1958C22.7154 74.6976 23.0139 74.7097 23.3259 74.2338C23.5261 73.9283 23.5884 73.0662 23.7005 69.0464C23.7746 66.3948 23.865 64.0574 23.9016 63.8521C23.9383 63.6469 24.0083 62.8744 24.0574 62.1354C24.1403 60.8873 24.7436 56.2086 25.2703 52.7309Z" fill="white"/>
<path d="M36.8884 57.7317C36.8545 57.7317 36.8298 55.5695 36.8331 52.9268C36.8389 48.4447 36.8209 48.1035 36.5628 47.8458C36.2938 47.5765 36.276 47.5774 35.8973 47.8751C35.1391 48.4715 35.0652 49.0106 34.9742 54.5969C34.928 57.4294 34.8127 61.2061 34.7178 62.9893C34.5378 66.3667 34.575 66.6884 35.1448 66.6884C35.5201 66.6884 36.3461 65.7307 36.5047 65.1121C36.5876 64.7886 36.6637 63.887 36.674 63.1085C36.6912 61.8003 36.7272 61.6392 37.1495 60.9813C37.2469 60.8294 37.3491 60.6884 37.4432 60.5728C37.5916 60.3903 37.7198 60.2709 37.7773 60.2718C37.9698 60.2747 39.3003 62.0849 39.9054 63.167C40.1235 63.5574 40.3886 63.9097 40.4946 63.9505C41.0594 64.1672 41.9037 63.0878 41.9045 62.1478C41.9051 61.6039 41.1755 60.0057 40.6666 59.4362C40.3448 59.0761 40.1833 58.8624 39.6979 58.1545L39.22 57.4575L39.7954 56.2139C40.6015 54.4712 41.1695 53.0029 41.2649 52.4153C41.3598 51.8305 41.0887 51.0766 40.7346 50.9407C40.4576 50.8344 39.6655 51.6103 39.6655 51.9877C39.6655 52.4144 37.0947 57.7317 36.8884 57.7317Z" fill="white"/>
<path d="M7.47274 51.4097C7.48572 51.405 7.50088 51.3823 7.5175 51.3407C7.56066 51.233 7.55527 51.1041 7.50569 51.0547C7.45626 51.0051 7.42098 51.0932 7.4274 51.2505C7.43206 51.3638 7.44868 51.4183 7.47274 51.4097Z" fill="white"/>
<path fill-rule="evenodd" clip-rule="evenodd" d="M33.0726 58.5095C33.1944 57.7702 33.1789 57.7011 32.8306 57.4272C31.9321 56.7204 30.2634 57.2709 28.9075 58.7211C27.7017 60.0108 26.2765 62.3674 25.8039 63.8521C24.4943 67.9671 24.959 71.0777 26.8453 70.8248C27.8227 70.6937 28.9812 70.0471 29.9678 69.0817L30.9169 68.1532L31.4623 68.3333C32.1648 68.5652 32.5436 68.3741 32.9464 67.585C33.3206 66.8513 33.3192 66.6622 32.9281 65.2368C32.6488 64.2188 32.6224 63.8473 32.7081 62.1375C32.7616 61.0691 32.8363 59.9933 32.8739 59.747C32.9117 59.5006 33.0012 58.9439 33.0726 58.5095ZM28.2454 62.5739C28.7208 61.5928 29.5736 60.505 30.1642 60.1266C30.861 59.6802 31.0586 59.7261 30.9433 60.3068C30.8901 60.5737 30.8068 61.9529 30.758 63.3719L30.6693 65.952L30.0122 66.6826C29.5992 67.1418 29.0996 67.5109 28.6668 67.6762C27.9809 67.9381 27.9774 67.9378 27.7005 67.5958C27.1344 66.8965 27.418 64.2826 28.2454 62.5739Z" fill="white"/>
</svg>
